<svg fill="none" height="15" viewBox="0 0 15 15" width="15" id="approved" xmlns="http://www.w3.org/2000/svg">
    <g fill="currentColor">
        <path
            d="m11.0595 3.94147c.178.17801.3427.36632.4971.56493-.0382-.05002-.0764-.09857-.1147-.14859.3001.3928.5501.82091.7428 1.2755-.025-.05885-.05-.11769-.0735-.17507.197.47077.3309.96508.3985 1.46969-.0088-.06473-.0176-.13093-.0264-.19566.0662.50902.0662 1.02393 0 1.53295.0088-.06473.0176-.13094.0264-.19567-.0676.50461-.2015.99892-.3985 1.46969.025-.05884.05-.11769.0735-.17506-.1927.45458-.4413.88412-.7428 1.27552.0383-.05.0765-.0986.1147-.1486-.3074.3972-.6648.7547-1.0619 1.0622.05-.0383.0986-.0765.1486-.1148-.3927.3001-.82076.5502-1.27525.7429.05884-.025.11767-.05.17503-.0735-.47066.1971-.96486.331-1.46935.3987.06471-.0088.1309-.0177.19562-.0265-.50891.0662-1.0237.0662-1.53261 0 .06472.0088.13091.0177.19562.0265-.50449-.0677-.99869-.2016-1.46935-.3987.05883.025.11766.05.17502.0735-.45448-.1927-.88396-.4413-1.2752-.7429.05.0383.09854.0765.14855.1148-.39712-.3075-.75454-.665-1.06194-1.0622.03824.05.07648.0986.11473.1486-.30005-.3928-.55009-.82094-.74277-1.27552.025.05884.05001.11769.07354.17506-.19709-.47077-.33094-.96508-.3986-1.46969.00883.06473.01765.13094.02648.19567-.06619-.50902-.06619-1.02393 0-1.53295-.00883.06473-.01765.13093-.02648.19566.06766-.50461.20151-.99892.3986-1.46969-.025.05885-.05001.11769-.07354.17507.19268-.45459.44125-.88417.74277-1.2755-.03825.05002-.07649.09857-.11473.14859.3074-.39721.66482-.75471 1.06194-1.06218-.05001.03825-.09855.0765-.14855.11475.39271-.30012.82072-.55021 1.2752-.74294-.05883.02501-.11766.05002-.17502.07356.47066-.19713.96486-.33101 1.46935-.39868-.06471.00882-.1309.01765-.19562.02648.50891-.0662 1.0237-.0662 1.53261 0-.06472-.00883-.13091-.01766-.19562-.02648.50449.06767.99869.20155 1.46935.39868-.05883-.02501-.11766-.05002-.17503-.07356.45449.19273.88395.44135 1.27525.74294-.05-.03825-.0986-.0765-.1486-.11475.1986.153.3868.31924.5648.49725.1339.13388.3309.21479.5207.21479.1809 0 .3956-.07944.5207-.21479.1279-.13976.2235-.32365.2147-.52079-.0088-.19419-.075-.37956-.2147-.52079-.9326-.92683-2.15628-1.58444-3.45649-1.79923-.63393-.104453-1.26933-.136818-1.90767-.05296-.35447.0456-.70452.10592-1.0487.20596-.33682.09857-.66334.2295-.98104.37662-.60304.27952-1.15901.66938-1.64586 1.12102-.48537.45018-.9075.98715-1.22961 1.56532-.62951 1.12691-.929563 2.45978-.80307 3.74852.06619.6782.22062 1.32552.48537 1.95516.27063.64.63099 1.2167 1.08253 1.7448.85896 1.0004 2.05622 1.7316 3.33731 2.0449 1.24873.3046 2.60484.2487 3.81092-.2089.32951-.125.65301-.2677.95901-.4413.3147-.178.6059-.3884.8898-.612.528-.4178.9796-.9313 1.3517-1.4918.7163-1.07688 1.087-2.39798 1.0575-3.68966-.0294-1.2961-.4442-2.60249-1.2149-3.65143-.2118-.28687-.4368-.56345-.6883-.81649-.1324-.13388-.3324-.21479-.5207-.21479-.1809 0-.3956.07944-.5207.21479-.1279.13976-.2235.32365-.2147.52079.0103.19714.0765.38103.2162.52226z" />
        <path
            d="m9.41073 5.56704c-.36624.36632-.731.73117-1.09724 1.09749-.58098.5811-1.16048 1.16074-1.74146 1.74185-.13385.13388-.26622.26628-.40007.40016h1.03988c-.49126-.49284-.98251-.98421-1.4723-1.47705-.06766-.06767-.13679-.13682-.20444-.20449-.13238-.13388-.33241-.21479-.52068-.21479-.18091 0-.39565.07944-.52067.21479-.12796.13976-.22357.32366-.21474.52079.00882.19567.07501.37956.21474.52079.49126.49284.98251.98421 1.4723 1.47705.06766.06767.13678.13682.20444.20449.28093.28098.75895.28098 1.03988 0 .36624-.36632.731-.73117 1.09724-1.09749.58097-.58111 1.16048-1.16074 1.74149-1.74185.1338-.13388.2662-.26628.4-.40016.1339-.13387.2148-.33101.2148-.52079 0-.18095-.0795-.39574-.2148-.52079-.1397-.12799-.3235-.22362-.52064-.21479-.19415.00736-.378.07356-.51773.21479z" />
    </g>
</svg>
