<svg xmlns="http://www.w3.org/2000/svg" width="15" height="15" viewBox="0 0 15 15" id="attachment">
  <path fill-rule="evenodd" clip-rule="evenodd" d="M9.83962 5.154C10.035 5.34912 10.0353 5.6657 9.84014 5.86111L5.86749 9.83962C5.67237 10.035 5.35579 10.0353 5.16038 9.84014C4.96497 9.64502 4.96474 9.32844 5.15986 9.13304L9.13251 5.15452C9.32763 4.95911 9.64422 4.95888 9.83962 5.154Z" stroke-width="0.75" stroke-linecap="round" stroke-linejoin="round"/>
  <path fill-rule="evenodd" clip-rule="evenodd" d="M4.87113 6.15035C5.0664 6.34562 5.0664 6.6622 4.87113 6.85746L3.21293 8.51566C2.77912 8.94948 2.5354 9.53786 2.5354 10.1514C2.5354 10.7649 2.77912 11.3533 3.21293 11.7871C3.64675 12.2209 4.23513 12.4646 4.84864 12.4646C5.15241 12.4646 5.45322 12.4048 5.73387 12.2885C6.01453 12.1723 6.26954 12.0019 6.48434 11.7871L8.14254 10.1289C8.33781 9.93361 8.65439 9.93361 8.84965 10.1289C9.04491 10.3241 9.04491 10.6407 8.84965 10.836L7.19145 12.4942C6.88378 12.8018 6.51854 13.0459 6.11656 13.2124C5.71458 13.3789 5.28374 13.4646 4.84864 13.4646C3.96991 13.4646 3.12718 13.1155 2.50582 12.4942C1.88447 11.8728 1.5354 11.0301 1.5354 10.1514C1.5354 9.27264 1.88447 8.42991 2.50582 7.80856L4.16403 6.15035C4.35929 5.95509 4.67587 5.95509 4.87113 6.15035Z" stroke-width="0.75" stroke-linecap="round" stroke-linejoin="round"/>
  <path fill-rule="evenodd" clip-rule="evenodd" d="M7.80856 2.50582C8.42991 1.88447 9.27264 1.5354 10.1514 1.5354C11.0301 1.5354 11.8728 1.88447 12.4942 2.50582C13.1155 3.12718 13.4646 3.96991 13.4646 4.84864C13.4646 5.72736 13.1155 6.5701 12.4942 7.19145L10.836 8.84965C10.6407 9.04491 10.3241 9.04491 10.1289 8.84965C9.93361 8.65439 9.93361 8.33781 10.1289 8.14254L11.7871 6.48434C12.2209 6.05052 12.4646 5.46214 12.4646 4.84864C12.4646 4.23513 12.2209 3.64675 11.7871 3.21293C11.3533 2.77912 10.7649 2.5354 10.1514 2.5354C9.53786 2.5354 8.94948 2.77912 8.51566 3.21293L6.85746 4.87113C6.6622 5.0664 6.34562 5.0664 6.15035 4.87113C5.95509 4.67587 5.95509 4.35929 6.15035 4.16403L7.80856 2.50582Z" stroke-width="0.75" stroke-linecap="round" stroke-linejoin="round"/>
</svg>
