<svg xmlns="http://www.w3.org/2000/svg" width="16" height="13" viewBox="0 0 16 13" id="blockquote">
    <path
        d="M11.8182 0C9.85991 0 8.27273 1.58718 8.27273 3.54545C8.27273 5.50373 9.85991 7.09091 11.8182 7.09091C12.233 7.09091 12.6301 7.01586 13 6.88468V7.09091C13 9.04623 11.4099 10.6364 9.45455 10.6364C8.80218 10.6364 8.27273 11.1658 8.27273 11.8182C8.27273 12.4705 8.80218 13 9.45455 13C12.7128 13 15.3636 10.3492 15.3636 7.09091V3.54545C15.3636 1.58718 13.7765 0 11.8182 0ZM3.54545 0C1.58718 0 0 1.58718 0 3.54545C0 5.50373 1.58718 7.09091 3.54545 7.09091C3.96027 7.09091 4.35736 7.01586 4.72727 6.88468V7.09091C4.72727 9.04623 3.13714 10.6364 1.18182 10.6364C0.529455 10.6364 0 11.1658 0 11.8182C0 12.4705 0.529455 13 1.18182 13C4.44009 13 7.09091 10.3492 7.09091 7.09091V3.54545C7.09091 1.58718 5.50373 0 3.54545 0Z" />
</svg>
