<svg xmlns="http://www.w3.org/2000/svg" width="11" height="13" viewBox="0 0 11 13" id="bold">
    <path
        d="M5.5689 13H1.59618C1.02274 13 0.611869 12.8729 0.363574 12.6187C0.121191 12.3586 0 11.9477 0 11.3861V1.61392C0 1.04047 0.124147 0.629604 0.372442 0.38131C0.626648 0.127103 1.03456 0 1.59618 0H5.80832C6.42906 0 6.96703 0.0384266 7.42224 0.11528C7.87744 0.192133 8.28536 0.339927 8.64598 0.558663C8.95339 0.741928 9.22533 0.975443 9.4618 1.25921C9.69827 1.53706 9.87858 1.84743 10.0027 2.19031C10.1269 2.52729 10.189 2.88495 10.189 3.2633C10.189 4.56389 9.53865 5.51569 8.23806 6.11869C9.94657 6.66257 10.8008 7.72078 10.8008 9.29331C10.8008 10.0205 10.6146 10.6767 10.2422 11.2619C9.86971 11.8413 9.36721 12.2699 8.73465 12.5477C8.33856 12.7133 7.88336 12.8315 7.36903 12.9025C6.85471 12.9675 6.25466 13 5.5689 13ZM5.37381 7.22715H2.6337V11.0225H5.46248C7.24193 11.0225 8.13165 10.3811 8.13165 9.09823C8.13165 8.44202 7.90109 7.96612 7.43997 7.67053C6.97885 7.37494 6.29013 7.22715 5.37381 7.22715ZM2.6337 1.97749V5.33834H5.0457C5.70191 5.33834 6.20737 5.27626 6.56207 5.15211C6.92269 5.02797 7.19759 4.7915 7.38677 4.4427C7.53456 4.19441 7.60846 3.91655 7.60846 3.60914C7.60846 2.95293 7.37494 2.51842 6.90791 2.30559C6.44088 2.08686 5.72851 1.97749 4.77081 1.97749H2.6337Z"
    />
</svg>
