<svg fill="none" height="15" id="clap" viewBox="0 0 15 15" width="15" xmlns="http://www.w3.org/2000/svg"
    xmlns:xlink="http://www.w3.org/1999/xlink">
    <clipPath id="a">
        <path d="m0 0h15v15h-15z" />
    </clipPath>
    <g clip-path="url(#a)">
        <path clip-rule="evenodd"
            d="m9.72424.704612c-.06846-.249267-.32094-.383143-.56627-.316704-.24103.065278-.40453.30916-.33519.562308l.50507 1.876764.00125.00372c.06519.19421.24229.33054.44864.33054.01223 0 .0226-.00145.02951-.00267.00719-.00126.01357-.0028.0183-.00403.00581-.00151.01396-.00387.01894-.00532l.00352-.00102c.00733-.00208.01093-.0028.0121-.00303.00017-.00004.00028-.00006.00036-.00008h.016l.0168-.00455c.24103-.06526.40443-.30919.33523-.5623l-.50409-1.872991zm2.29116-.033041c-.2366-.117475-.5052.004073-.6135.219251l-.8326 1.766928-.0014.00342c-.0871.21628-.005.50136.2252.61566l.0083.0041.0087.00291.0063.00207c.0445.01479.1109.03685.1812.03685.179 0 .3382-.09184.4254-.26514l.8144-1.77907c.1163-.23438-.006-.499744-.222-.606979zm1.4469 1.792049c.2262-.1111.5146-.00535.6123.22018.136.23676.0085.50324-.2049.60918l-.003.00147-1.7798.82692-.0072.00237-.0062.00207c-.0445.01479-.1109.03685-.1813.03685-.1789 0-.338-.09188-.4253-.26518-.1142-.22681-.0049-.51746.2269-.61217zm-4.72067 1.95709c-.23089-.24224-.55156-.40216-.89622-.40316-.36385-.01712-.69045.12835-.92473.36084l-1.47813 1.45313c-.26078-.62485-.90711-1.03627-1.61449-.95731-.18256.01554-.34972.09011-.48463.19334-.31815-.29671-.77102-.46759-1.24011-.4194l-.00098.00011c-.50486.0557-.89638.48234-.89638 1.0005v.0009l.01626 2.34158c-.00004.60308-.08005 1.22169-.223384 1.75938l-.004329.01624v.01505c-.330044 1.17119.009363 2.42269.867613 3.27499.88663.8804 2.07462 1.3622 3.31249 1.3622h.00499.00005c.08518 0 .19343 0 .29331-.0131.45903.1434.94971.2231 1.42579.2231 1.20328 0 2.40882-.4484 3.31335-1.3631l3.1386-3.1329c.2369-.23538.3632-.5594.3632-.88246 0-.3403-.127-.64796-.3634-.88272l-.0036-.00351-.0037-.00322c-.0861-.07322-.1876-.13746-.2942-.18792.2783-.47531.2274-1.1065-.1865-1.51746-.1143-.11352-.2595-.20339-.411-.26313.0393-.12544.0587-.25732.0587-.38857 0-.34031-.127-.64797-.3634-.88273-.4121-.40927-1.021-.47624-1.4967-.21299-.0443-.09068-.0997-.18089-.1718-.26436l-.0035-.00377c-.2314-.24751-.55585-.41161-.9049-.41274-.27812-.01445-.55449.07409-.77586.24302-.01463-.01703-.03198-.03441-.05241-.04983zm-1.1654.60865c.06576-.0653.15807-.0914.24965-.0914.08289 0 .16281.04021.22662.10097.02143.03018.03651.06296.04419.09479l-2.44171 2.48345-.05308-.64307 1.97396-1.94437zm1.70787.22613c.04465-.04433.07525-.06685.10512-.0794.0279-.01172.06593-.01917.1316-.01265l.00645.00064h.00648c.08471 0 .1663.04199.23078.10499.04241.04847.06882.13083.06241.2279-.00643.09733-.04534.19152-.10891.25465l-2.39089 2.39035c-.18071.17964-.18065.47122.00018.65079.09104.0904.20616.13472.33591.13472.11023 0 .24278-.04225.3359-.13472l3.04167-3.02041c.1281-.12726.3386-.12726.4667 0 .0562.05579.0921.13569.0921.23176 0 .09604-.0359.17597-.0921.23175l-3.05786 3.02041c-.18089.17963-.18089.47135 0 .65097.09103.0904.20615.13476.3359.13476s.24487-.04436.33591-.13476l2.61875-2.60046c.1281-.12725.3386-.12725.4668 0 .1281.12726.1281.33626 0 .46352l-.6173.61294-.4546.43527-1.56315 1.55229c-.18089.1796-.18089.4713 0 .6509.09104.0904.20616.1347.33591.1347.12974 0 .24484-.0443.33594-.1347l2.0006-1.98666c.1282-.12726.3386-.12726.4668 0 .0562.05579.092.13569.092.23176 0 .09474-.0345.16999-.0996.22386l-.0046.00386-3.14331 3.13748c-1.46192 1.4517-3.85196 1.4517-5.31388 0-.6179-.6136-.865-1.5188-.63339-2.3621l.00458-.0167v-.0165c.17897-.66837.26025-1.33652.26025-2.01978v-2.34203c0-.01374.00648-.03236.02002-.04749.01335-.01491.02477-.01724.0289-.01724h.00747l.00743-.00085c.34916-.04001.65947.21301.70145.5463l.11391 1.63204.00054.00405c.03853.28694.23143.53946.50803.63756l.00262.00086c.29235.09677.58487.01799.79554-.1722zm-7.08744.34385c.34947-.04005.66.21343.70156.54715l.03193.38046.01621 1.68997v.00061c-.00005.59558-.07811 1.19206-.20348 1.7274l-.00317.005c-.00615.01019-.01169.02214-.01555.03584-.00136.00481-.00244.00962-.00328.01443-.30443 1.0702-.04924 2.2084.65053 3.0483-.31381-.1675-.60198-.3764-.85374-.6264-.63336-.629-.86527-1.5339-.63342-2.3782.18235-.65858.26486-1.34856.26486-2.03695l-.01627-2.34233c.0001-.01372.00658-.03217.02003-.04719.01335-.01492.02476-.01724.02889-.01724h.00748z"
            fill="currentColor" fill-rule="evenodd" />
    </g>
</svg>
