<svg width="15" height="15" viewBox="0 0 15 15" id="comment" xmlns="http://www.w3.org/2000/svg">
<path fill-rule="evenodd" clip-rule="evenodd" d="M5.26297 11.3333H12.3333C12.7015 11.3333 13 11.0349 13 10.6667V4C13 3.63181 12.7015 3.33333 12.3333 3.33333H3C2.63181 3.33333 2.33333 3.63181 2.33333 4V12C2.33333 12.3682 2.63181 12.6667 3 12.6667H3.06112C3.19273 12.6667 3.3214 12.6277 3.43092 12.5547L5.26297 11.3333ZM5.66667 12.6667H12.3333C13.4379 12.6667 14.3333 11.7712 14.3333 10.6667V4C14.3333 2.89543 13.4379 2 12.3333 2H3C1.89543 2 1 2.89543 1 4V12C1 13.1046 1.89543 14 3 14H3.06112C3.45597 14 3.84198 13.8831 4.17052 13.6641L5.66667 12.6667Z" fill="#999999"/>
<path fill-rule="evenodd" clip-rule="evenodd" d="M3.66667 6C3.66667 5.63181 3.96514 5.33333 4.33333 5.33333H11C11.3682 5.33333 11.6667 5.63181 11.6667 6C11.6667 6.36819 11.3682 6.66667 11 6.66667H4.33333C3.96514 6.66667 3.66667 6.36819 3.66667 6Z" fill="#999999"/>
<path fill-rule="evenodd" clip-rule="evenodd" d="M3.66667 8.66667C3.66667 8.29848 3.96514 8 4.33333 8H11C11.3682 8 11.6667 8.29848 11.6667 8.66667C11.6667 9.03486 11.3682 9.33333 11 9.33333H4.33333C3.96514 9.33333 3.66667 9.03486 3.66667 8.66667Z" fill="#999999"/>
</svg>
