<svg width="25" height="25" viewBox="0 0 25 25" fill="none" xmlns="http://www.w3.org/2000/svg">
<path d="M23.2693 7.66587L17.9912 2.68898C17.5271 2.25108 16.8842 2 16.2275 2H8.77281C8.10643 2 7.48005 2.24458 7.00903 2.68898L1.73068 7.66613C1.25938 8.11027 1 8.7009 1 9.32925V16.3585C1 16.9778 1.26628 17.584 1.73068 18.0216L7.00876 22.9985C7.47978 23.4429 8.10615 23.6875 8.77281 23.6875H16.2275C16.8847 23.6875 17.5277 23.4362 17.9912 22.9985L23.2693 18.0222C23.7334 17.5845 24 16.9783 24 16.3585V9.32925C24 8.70064 23.7406 8.11001 23.2693 7.66587ZM22.3047 16.1347C22.3047 16.4782 22.1628 16.8013 21.9051 17.0444L16.9543 21.7121C16.701 21.9515 16.3494 22.0889 15.9902 22.0889H9.01011C8.6456 22.0889 8.30317 21.9552 8.04545 21.7121L3.09517 17.0444C2.83717 16.8013 2.69534 16.4782 2.69534 16.1347V9.55301C2.69534 9.21451 2.84104 8.88277 3.0949 8.6434L8.04545 3.97535C8.30317 3.73234 8.64588 3.5986 9.01011 3.5986H15.9902C16.3494 3.5986 16.701 3.73598 16.9548 3.97535L21.9051 8.64366C22.1628 8.88641 22.3047 9.20931 22.3047 9.55301V16.1347Z" fill="black"/>
<path d="M17.4487 10.9904C16.8917 10.8263 16.3172 11.1217 16.1084 11.6305C15.8299 12.3527 15.3251 13.6986 15.0814 14.3223C15.064 14.388 14.9595 14.3715 14.9595 14.3059V7.19891C14.9595 7.01837 14.8725 6.85422 14.7332 6.72293C14.5766 6.5916 14.3503 6.52596 14.124 6.54236C13.7062 6.55878 13.3929 6.87065 13.3929 7.23172V12.2542C13.3929 12.3035 13.3407 12.3527 13.2711 12.3527C13.2015 12.3527 13.1492 12.3035 13.1492 12.2542V6.23052C13.1492 6.04998 13.0622 5.88583 12.923 5.77093C12.7489 5.62324 12.5226 5.55757 12.2963 5.574C11.8785 5.59039 11.5652 5.90226 11.5652 6.26334V12.2542C11.5652 12.3035 11.513 12.3527 11.4434 12.3527C11.3738 12.3527 11.3215 12.3035 11.3215 12.2542V7.00195C11.3215 6.82141 11.2345 6.65726 11.0952 6.54236C10.9386 6.41106 10.7123 6.34542 10.486 6.34542C10.0682 6.36182 9.75495 6.67369 9.75495 7.03476V12.2542C9.75495 12.3035 9.70273 12.3527 9.6331 12.3527C9.56346 12.3527 9.51124 12.3035 9.51124 12.2542V8.62686C9.51124 8.44632 9.42421 8.28217 9.28497 8.1673C9.12831 8.03597 8.90201 7.97034 8.67574 7.97034C8.25797 7.98673 7.94465 8.2986 7.94465 8.65971V9.1685C7.94465 9.57882 7.94465 10.0056 7.94465 10.4159C7.92723 11.9423 7.92723 13.4852 8.01429 15.0117C8.10131 16.3904 8.15353 17.8676 9.18053 18.9508C9.94642 19.7715 11.0256 20.1162 12.1049 20.1162C12.9752 20.1162 13.8977 19.8864 14.6462 19.4268C15.8995 18.6554 16.2824 17.1454 16.7524 15.898C17.1702 14.7983 17.5879 13.6986 18.0057 12.5989C18.0579 12.484 18.0927 12.3691 18.1449 12.2378C18.319 11.7454 18.0231 11.1709 17.4487 10.9904Z" fill="black"/>
</svg>
