<svg fill="none" height="15" id="danger" viewBox="0 0 15 15" width="15" xmlns="http://www.w3.org/2000/svg">
    <g fill="currentColor">
        <path
            d="m13.9612 4.59947-3.1668-2.98613c-.2785-.26274-.6643-.41339-1.05831-.41339h-4.47279c-.39983 0-.77566.14675-1.05827.41339l-3.16702 2.98629c-.282773.26648-.438401.62086-.438401.99787v4.21756c0 .37154.159767.73524.438401.99784l3.16685 2.9862c.28262.2666.65844.4134 1.05844.4134h4.47279c.39441 0 .78011-.1509 1.05831-.4134l3.1668-2.9859c.2785-.2625.4384-.6263.4384-.99814v-4.21756c0-.37717-.1556-.73154-.4384-.99803zm-.5788 5.08133c0 .20607-.0851.4-.2397.5458l-2.9705 2.8006c-.152.1437-.36293.2261-.57849.2261h-4.18803c-.21871 0-.42417-.0803-.5788-.2261l-2.97017-2.8006c-.1548-.1458-.23989-.33973-.23989-.5458v-3.94904c0-.2031.08741-.40215.23973-.54577l2.97033-2.80083c.15463-.14581.36026-.22605.5788-.22605h4.18803c.21556 0 .42649.08243.57879.22605l2.9702 2.80098c.1546.14566.2397.33939.2397.54562z" />
        <path
            d="m10.4686 6.59408c-.3342-.09847-.67884.07878-.80417.38408-.16709.43331-.46997 1.24084-.6162 1.61507-.01043.03939-.07309.02954-.07309-.00986v-4.26417c0-.10832-.05224-.20681-.13579-.28559-.09399-.0788-.22975-.11818-.36553-.10834-.25066.00985-.43866.19697-.43866.41362v3.01349c0 .02954-.03133.05909-.07309.05909-.04179 0-.07312-.02955-.07312-.05909v-3.61422c0-.10832-.05221-.20681-.13576-.27575-.10445-.08861-.24023-.12801-.37599-.11816-.25066.00984-.43865.19696-.43865.4136v3.59453c0 .02954-.03133.05909-.0731.05909-.04178 0-.07311-.02955-.07311-.05909v-3.15136c0-.10832-.05222-.20681-.13578-.27575-.094-.07878-.22976-.11816-.36554-.11816-.25066.00983-.43863.19695-.43863.4136v3.13167c0 .02954-.03134.05909-.07312.05909s-.07311-.02955-.07311-.05909v-2.17641c0-.10833-.05222-.20681-.13576-.27574-.094-.0788-.22978-.11818-.36554-.11818-.25066.00984-.43866.19696-.43866.41363v.30528.74844c-.01045.91586-.01045 1.84157.04179 2.75745.05221.82722.08354 1.71355.69974 2.36355.45954.4924 1.10706.6992 1.75459.6992.5222 0 1.07574-.1379 1.52482-.4136.75196-.4629.98174-1.3689 1.26376-2.11737.2506-.65981.5013-1.31963.7519-1.97944.0314-.06894.0522-.13789.0836-.21666.1044-.29545-.0731-.64013-.4178-.74845z" />
    </g>
</svg>
