<svg  height="15" viewBox="0 0 15 15" width="15" id="dashboard" xmlns="http://www.w3.org/2000/svg"
    xmlns:xlink="http://www.w3.org/1999/xlink">
    <clipPath id="a">
        <path d="m0 0h15v15h-15z" />
    </clipPath>
    <mask id="b" height="16" maskUnits="userSpaceOnUse" width="16" x="0" y="0">
        <path d="m15.6965 0h-15.428617v16h15.428617z" fill="#fff" />
    </mask>
    <g clip-path="url(#a)">
        <g fill="currentColor" mask="url(#b)">
            <path
                d="m.95224 6.77219.001619.00174c.276461.28763.671951.47329 1.089021.47329h3.66326c.43676 0 .81234-.18622 1.10624-.47155l.0033-.00348c.2743-.30549.45223-.6948.45223-1.14652v-3.80962c0-.43198-.17782-.821272-.43323-1.10716l-.00174-.001866-.01804-.01879c-.27883-.310237-.67581-.474123-1.10876-.474123h-3.66326c-.41458 0-.81133.164234-1.089845.474117-.276006.287418-.453035.696992-.453035 1.127822v3.80962c0 .45172.177937.84103.45224 1.14652zm5.21323-.68438-.01949.02034v.01563c-.12185.10095-.28382.1781-.43984.1781h-3.66326c-.15446 0-.29956-.07575-.42093-.17793v-.019l-.02342-.02089c-.11435-.10202-.18429-.27766-.18429-.45839v-3.80962c0-.17769.06797-.33722.18813-.46208.12021-.12501.2724-.19454.44051-.19454h3.66326c.16101 0 .32236.06361.43984.17509v.0219l.02342.02089c.11574.10309.18426.26001.18426.43874v3.80962c0 .17619-.08594.3557-.18819.46214z" />
            <path
                d="m8.18596.68736c-.27647.287457-.45384.69742-.45384 1.12869v3.80962c0 .45172.17793.84103.45216 1.14652l.00336.00348c.2939.28533.66949.47155 1.10625.47155h3.66321c.4178 0 .7934-.18617 1.0684-.45178l.0018-.00184.0189-.01961c.296-.30785.4538-.69851.4538-1.14832v-3.80962c0-.42836-.1565-.839238-.4538-1.128718-.2785-.309301-.6749-.473221-1.0891-.473221h-3.66321c-.4348 0-.81173.165141-1.10793.473249zm5.21554 5.3967-.0039.00369-.0188.01961-.0036.00404c-.0993.1205-.2491.19048-.4181.19048h-3.66321c-.15603 0-.31799-.07715-.43984-.1781v-.01563l-.01956-.02034c-.10224-.10644-.18812-.28595-.18812-.46214v-3.80962c0-.17318.08308-.33377.18997-.464.11866-.12233.28824-.19262.45755-.19262h3.66321c.1681 0 .3203.06951.4405.19452.1202.12486.1881.28442.1881.4621v3.80962c0 .18073-.0699.35637-.1842.45839z" />
            <path
                d="m8.18764 8.20702-.00168.00169c-.27675.28779-.45384.69783-.45384 1.14814v3.79015c0 .4505.17709.8605.45384 1.1483l.00168.0017c.2939.2853.66949.4716 1.10625.4716h3.66321c.4167 0 .8118-.1853 1.0882-.4724.2982-.2898.4547-.7013.4547-1.1492v-3.79015c0-.44774-.1565-.85917-.4546-1.14898-.2765-.28718-.6716-.4724-1.0883-.4724h-3.66321c-.43676 0-.81235.18617-1.10625.47155zm5.20996.66826c.1195.1242.1881.28347.1881.48157v3.79015c0 .1981-.0686.3575-.1881.4818-.1202.125-.2724.1945-.4405.1945h-3.66321c-.16931 0-.33889-.0703-.45755-.1926-.10616-.1296-.18997-.2904-.18997-.4837v-3.79015c0-.19333.08381-.35412.18997-.48348.11866-.12236.2883-.19272.45755-.19272h3.66321c.1681 0 .3203.06958.4405.19463z" />
            <path
                d="m.955528 8.21154-.001681.00168c-.276756.2878-.453847.69783-.453847 1.14815v3.79013c0 .4505.177091.8606.453847 1.1483l.001681.0017c.293902.2854.669482.4716 1.106242.4716h3.66322c.4167 0 .81178-.1853 1.0882-.4724.29816-.2898.45469-.7013.45469-1.1492v-3.79013c0-.44774-.15653-.85918-.45463-1.14899-.27648-.28718-.67156-.47239-1.08826-.47239h-3.66322c-.43676 0-.81234.18617-1.106242.47155zm5.209972.66825c.1195.12421.18813.28348.18813.48158v3.79013c0 .1981-.06863.3575-.18813.4818-.12017.125-.27238.1945-.44051.1945h-3.66322c-.1693 0-.33889-.0703-.45754-.1926-.10617-.1295-.18998-.2904-.18998-.4837v-3.79013c0-.19334.08381-.35412.18998-.48348.11865-.12236.28829-.19272.45754-.19272h3.66322c.16813 0 .32029.06958.44051.19462z" />
        </g>
    </g>
</svg>
