<svg
    width="15"
    height="15"
    viewBox="0 0 25.3125 26.25"
    id="dashboard"
    version="1.1"
    sodipodi:docname="dashboard.svg"
    inkscape:version="1.3.2 (091e20e, 2023-11-25)"
    xmlns:inkscape="http://www.inkscape.org/namespaces/inkscape"
    xmlns:sodipodi="http://sodipodi.sourceforge.net/DTD/sodipodi-0.dtd"
    xmlns="http://www.w3.org/2000/svg"
    xmlns:svg="http://www.w3.org/2000/svg">
    <sodipodi:namedview
        id="namedview4"
        pagecolor="#ffffff"
        bordercolor="#000000"
        borderopacity="0.25"
        inkscape:showpageshadow="2"
        inkscape:pageopacity="0.0"
        inkscape:pagecheckerboard="0"
        inkscape:deskcolor="#d1d1d1"
        showgrid="false"
        showguides="true"
        inkscape:zoom="23.616176"
        inkscape:cx="7.7065821"
        inkscape:cy="6.9867365"
        inkscape:window-width="1470"
        inkscape:window-height="847"
        inkscape:window-x="0"
        inkscape:window-y="37"
        inkscape:window-maximized="0"
        inkscape:current-layer="g4" />
    <g
        clip-path="url(#clip0_1183_1875)"
        id="g4">
        <g
            id="g5"
            transform="matrix(0.98041373,0,0,0.98041373,-0.57931084,-0.61583961)">
            <path
                d="m 1.81248,12.7163 -6e-5,10e-5 0.00295,0.003 c 0.49348,0.5134 1.1994,0.8448 1.94386,0.8448 H 10.298 c 0.7796,0 1.45,-0.3324 1.9746,-0.8417 l 2e-4,2e-4 0.0057,-0.0064 c 0.4896,-0.5453 0.8072,-1.2402 0.8072,-2.0465 V 3.86978 c 0,-0.77107 -0.3174,-1.46594 -0.7733,-1.97624 l 10e-5,-5e-5 L 12.3093,1.89021 12.2771,1.85667 C 11.7794,1.30291 11.0708,1.01038 10.298,1.01038 H 3.75923 c -0.74,0 -1.4482,0.29315 -1.94533,0.84628 -0.49266,0.51303 -0.80865,1.2441 -0.80865,2.01312 v 6.80002 c 0,0.8063 0.31761,1.5012 0.80723,2.0465 z m 9.30542,-1.2216 -0.0348,0.0363 v 0.0279 c -0.2175,0.1802 -0.5066,0.3179 -0.7851,0.3179 H 3.75923 c -0.27571,0 -0.53471,-0.1352 -0.75135,-0.3176 V 11.5253 L 2.96608,11.488 C 2.76197,11.3059 2.63714,10.9924 2.63714,10.6698 V 3.86978 c 0,-0.31717 0.12131,-0.60192 0.3358,-0.8248 l 4e-5,-4e-5 C 3.18754,2.82181 3.45916,2.69774 3.75923,2.69774 H 10.298 c 0.2874,0 0.5754,0.11353 0.7851,0.31253 v 0.03908 l 0.0418,0.03729 c 0.2066,0.18401 0.3289,0.46412 0.3289,0.78314 v 6.80002 c 0,0.3145 -0.1534,0.6349 -0.3359,0.8249 z"
                stroke-width="0.25"
                id="path2" />
            <path
                d="m 14.7244,1.85511 c -0.4935,0.5131 -0.8101,1.24487 -0.8101,2.01467 v 6.80002 c 0,0.8063 0.3176,1.5012 0.8071,2.0465 l -2e-4,2e-4 0.0062,0.006 c 0.5246,0.5093 1.195,0.8417 1.9746,0.8417 h 6.5387 c 0.7458,0 1.4161,-0.3323 1.907,-0.8064 v 0 l 0.0032,-0.0033 0.0337,-0.035 c 0,-10e-5 10e-5,-10e-5 10e-5,-10e-5 0.5285,-0.5495 0.81,-1.2467 0.81,-2.0496 V 3.86978 c 0,-0.76461 -0.2794,-1.49801 -0.81,-2.01472 C 24.6876,1.30297 23.9801,1.01038 23.2407,1.01038 H 16.702 c -0.7761,0 -1.4489,0.29477 -1.9776,0.84473 z m 0,0 0.0901,0.08664 z m 9.3095,9.63289 -3e-4,-3e-4 -0.0066,0.0069 -0.0336,0.035 -3e-4,-3e-4 -0.0062,0.0075 c -0.1772,0.2151 -0.4445,0.34 -0.7462,0.34 H 16.702 c -0.2785,0 -0.5676,-0.1377 -0.7851,-0.3179 V 11.531 L 15.882,11.4947 c -0.1825,-0.19 -0.3358,-0.5104 -0.3358,-0.8249 V 3.86978 c 0,-0.30912 0.1483,-0.59576 0.3391,-0.82822 0.2118,-0.21835 0.5145,-0.34382 0.8167,-0.34382 h 6.5387 c 0.3001,0 0.5718,0.12407 0.7863,0.3472 v 4e-5 c 0.2145,0.22288 0.3358,0.50764 0.3358,0.8248 v 6.80002 c 0,0.3226 -0.1248,0.6361 -0.3289,0.8182 z"
                stroke-width="0.25"
                id="path3" />
            <path
                d="m 14.7274,15.2775 h -10e-5 l -0.0029,0.003 c -0.494,0.5137 -0.8101,1.2456 -0.8101,2.0494 v 6.7653 c 0,0.804 0.3161,1.536 0.8101,2.0496 l -10e-5,10e-5 0.0031,0.003 c 0.5246,0.5093 1.195,0.8417 1.9746,0.8417 h 6.5387 c 0.7438,0 1.449,-0.3307 1.9424,-0.8432 0.5322,-0.5173 0.8116,-1.2517 0.8116,-2.0512 v -6.7653 c 0,-0.7992 -0.2794,-1.5336 -0.8115,-2.0509 -0.4935,-0.5126 -1.1987,-0.8432 -1.9425,-0.8432 H 16.702 c -0.7796,0 -1.45,0.3323 -1.9746,0.8417 z m 9.2996,1.1928 v 0 c 0.2133,0.2217 0.3358,0.506 0.3358,0.8596 v 6.7653 c 0,0.3535 -0.1225,0.638 -0.3358,0.8599 -0.2145,0.2231 -0.4862,0.3472 -0.7863,0.3472 H 16.702 c -0.3022,0 -0.6049,-0.1255 -0.8167,-0.3438 -0.1895,-0.2312 -0.3391,-0.5183 -0.3391,-0.8633 v -6.7653 c 0,-0.3451 0.1496,-0.6321 0.3391,-0.863 0.2118,-0.2184 0.5146,-0.344 0.8167,-0.344 h 6.5387 c 0.3001,0 0.5717,0.1242 0.7863,0.3474 z"
                stroke-width="0.25"
                id="path4" />
            <path
                d="m 1.81248,26.172416 -6e-5,1e-4 0.00295,0.003 c 0.49348,0.5134 1.1994,0.8448 1.94386,0.8448 H 10.298 c 0.7796,0 1.45,-0.3324 1.9746,-0.8417 l 2e-4,2e-4 0.0057,-0.0064 c 0.4896,-0.5453 0.8072,-1.2402 0.8072,-2.0465 v -6.80002 c 0,-0.77107 -0.3174,-1.46594 -0.7733,-1.97624 l 10e-5,-5e-5 -0.0032,-0.0033 -0.0322,-0.03354 c -0.4977,-0.55376 -1.2063,-0.84629 -1.9791,-0.84629 H 3.75923 c -0.74,0 -1.4482,0.29315 -1.94533,0.84628 -0.49266,0.51303 -0.80865,1.2441 -0.80865,2.01312 v 6.80002 c 0,0.8063 0.31761,1.5012 0.80723,2.0465 z"
                stroke-width="0.25"
                id="path2-1"
                sodipodi:nodetypes="cccsscccssccccsscsscc" />
        </g>
    </g>
    <defs
        id="defs4">
        <clipPath
            id="clip0_1183_1875">
            <rect
                width="27"
                height="28"
                fill="#ffffff"
                id="rect4"
                x="0"
                y="0" />
        </clipPath>
    </defs>
</svg>
