<svg xmlns="http://www.w3.org/2000/svg" width="5" height="5" viewBox="0 0 5 5" id="drag">
    <path
        d="M4.60651 2.82074C4.60064 3.56485 4.121 4.25923 3.39664 4.51173C2.6625 4.76806 1.84221 4.54616 1.34104 3.96273C0.843775 3.38313 0.790917 2.52424 1.19225 1.88342C1.58575 1.25026 2.3708 0.905938 3.11669 1.05323C3.97613 1.22348 4.60064 1.96568 4.60651 2.82074C4.60847 3.0675 5.00001 3.0675 4.99805 2.82074C4.99218 1.90638 4.40291 1.08766 3.52585 0.76821C2.65858 0.454497 1.63469 0.726126 1.04934 1.42624C0.45419 2.13784 0.362177 3.15932 0.855522 3.95126C1.34495 4.73745 2.30228 5.13725 3.2224 4.95744C4.25021 4.75467 4.99218 3.83648 5.00001 2.82074C5.00001 2.57398 4.60847 2.57398 4.60651 2.82074Z" />
</svg>
