<svg fill="none" id="edit" height="15" viewBox="0 0 15 15" width="15" xmlns="http://www.w3.org/2000/svg">
    <path
        d="m9.31779 1.00023c-.21503.00575-.42512.12618-.53754.33864l-4.53777 8.579c-.02989.05821-.047.12313-.05.18963l-.19168 3.4316c-.00471.0806.01145.161.04666.2322s.08807.1303.15262.1707c.06454.0403.13821.0604.2127.0578s.14684-.0276.20889-.0724l2.63349-1.8964c.0514-.0371.09419-.0865.12501-.1445l4.53773-8.57446c.1714-.32375.0653-.75104-.2333-.93918l-2.03763-1.28233c-.07466-.04703-.15571-.07531-.23751-.08579-.03068-.00393-.06096-.005336-.09167-.00451zm.075.93465 1.75011 1.09721-4.25859 8.04171-1.75011-1.09724 3.3252-6.27621.87922.55538c.04542.02876.09562.04755.14774.05529s.10514.00428.15602-.01019c.05089-.01446.09864-.03964.14055-.07411.0419-.03446.07713-.07753.10367-.12675s.04387-.10362.05101-.1601c.00714-.05647.00394-.11392-.00941-.16906s-.0366-.10688-.06841-.15229c-.0318-.0454-.07156-.08357-.11698-.11232l-.88755-.5599zm-4.44193 8.92672 1.32508.8308-1.42926 1.0294z"
        fill="currentColor" />
</svg>
