
<svg
    xmlns="http://www.w3.org/2000/svg"
    width="13"
    height="13"
    viewBox="0 0 13 13"
    id="image"
>
    <path
      fill-rule="evenodd"
      clip-rule="evenodd"
      d="M1.625 1.625V11.375H11.375V1.625H1.625ZM1.21875 0C0.545653 0 0 0.545653 0 1.21875V11.7812C0 12.4543 0.545653 13 1.21875 13H11.7812C12.4543 13 13 12.4543 13 11.7812V1.21875C13 0.545653 12.4543 0 11.7812 0H1.21875Z"
    />
    <path
      fill-rule="evenodd"
      clip-rule="evenodd"
      d="M8.93749 6.94897L11.566 10.0703L12.809 9.0236L9.71435 5.34873C9.30854 4.86683 8.56644 4.86683 8.16063 5.34873L5.582 8.41085L4.09928 7.19772C3.71838 6.88607 3.16885 6.89236 2.79519 7.21265L0.0805969 9.53944L1.13813 10.7732L3.46525 8.77856L5.01799 10.049C5.44777 10.4006 6.08029 10.3419 6.43798 9.91713L8.93749 6.94897Z"
    />
    <path
      d="M5.28125 4.0625C5.28125 4.7356 4.7356 5.28125 4.0625 5.28125C3.3894 5.28125 2.84375 4.7356 2.84375 4.0625C2.84375 3.3894 3.3894 2.84375 4.0625 2.84375C4.7356 2.84375 5.28125 3.3894 5.28125 4.0625Z"
    />
    <path
      fill-rule="evenodd"
      clip-rule="evenodd"
      d="M4.0625 4.875C4.51123 4.875 4.875 4.51123 4.875 4.0625C4.875 3.61377 4.51123 3.25 4.0625 3.25C3.61377 3.25 3.25 3.61377 3.25 4.0625C3.25 4.51123 3.61377 4.875 4.0625 4.875ZM4.0625 5.28125C4.7356 5.28125 5.28125 4.7356 5.28125 4.0625C5.28125 3.3894 4.7356 2.84375 4.0625 2.84375C3.3894 2.84375 2.84375 3.3894 2.84375 4.0625C2.84375 4.7356 3.3894 5.28125 4.0625 5.28125Z"
    />
</svg>

