<svg fill="none" id="info" height="15" viewBox="0 0 15 15" width="15" xmlns="http://www.w3.org/2000/svg"
    xmlns:xlink="http://www.w3.org/1999/xlink">
    <clipPath id="a">
        <path d="m0 0h15v15h-15z" />
    </clipPath>
    <g clip-path="url(#a)">
        <path clip-rule="evenodd"
            d="m7.375.5c-1.35975 0-2.68896.403212-3.81954 1.15865-1.13059.75543-2.01178 1.82916-2.53213 3.0854-.520351 1.25624-.656499 2.63857-.391226 3.97219.265274 1.33366.920056 2.55866 1.881536 3.52016.96149.9614 2.1865 1.6162 3.52012 1.8815s2.71595.1291 3.97214-.3912c1.2563-.5204 2.33-1.4016 3.0855-2.5322.7554-1.1305 1.1586-2.46017 1.1586-3.81992-.002-1.82263-.727-3.57003-2.0157-4.85883-1.2888-1.2888-3.03667-2.013731-4.8593-2.01575zm-.99984 1.84848c.99416-.19775 2.02462-.09626 2.96109.29164.93645.3879 1.73685 1.04478 2.30005 1.88758.563.84269.8636 1.83339.8637 2.84687-.0015 1.35888-.542 2.66163-1.5029 3.62253s-2.26365 1.5014-3.62252 1.5029c-1.01348-.0001-2.00419-.3007-2.84688-.8637-.8428-.5632-1.49968-1.3636-1.88758-2.30005-.3879-.93647-.48939-1.96694-.29164-2.96109s.68586-1.90734 1.4026-2.62408c.71674-.71675 1.62993-1.20486 2.62408-1.4026zm.99984 1.15152c-.55228 0-1 .44772-1 1s.44771 1 1 1c.55228 0 1-.44772 1-1 0-.55229-.44772-1-1-1zm-.25005 2.625c-.19261.00003-.37984.0636-.53264.18087s-.26265.28167-.31249.46773c-.04985.18605-.03692.38335.03679.56131.0431.10407.10558.19812.18339.27754v2.09698c-.08964.04252-.17223.10036-.24372.17185-.16409.16412-.25628.38662-.25628.61872s.09219.4546.25628.6187c.1641.1641.38666.2563.61872.2563h1c.23206 0 .45462-.0922.61872-.2563.16409-.1641.25628-.3866.25628-.6187s-.09219-.4546-.25628-.61872c-.07149-.07149-.15408-.12933-.24372-.17185v-2.70943c0-.23206-.09219-.45462-.25628-.61872-.1641-.16409-.38666-.25628-.61872-.25628z"
            fill="currentColor" fill-rule="evenodd" />
    </g>
</svg>
