<svg
    xmlns="http://www.w3.org/2000/svg"
    width="16"
    height="16"
    viewBox="0 0 25 25"
    fill="none"
>
    <path
        d="M3.40909 25H10.2273C12.1072 25 13.6364 23.4708 13.6364 21.5909V17.0455C13.6364 16.4179 13.1281 15.9091 12.5 15.9091C11.8719 15.9091 11.3636 16.4179 11.3636 17.0455V21.5909C11.3636 22.2174 10.8543 22.7273 10.2273 22.7273H3.40909C2.78209 22.7273 2.27273 22.2174 2.27273 21.5909V3.40909C2.27273 2.78265 2.78209 2.27273 3.40909 2.27273H10.2273C10.8543 2.27273 11.3636 2.78265 11.3636 3.40909V7.95455C11.3636 8.5821 11.8719 9.09091 12.5 9.09091C13.1281 9.09091 13.6364 8.5821 13.6364 7.95455V3.40909C13.6364 1.52921 12.1072 0 10.2273 0H3.40909C1.52921 0 0 1.52921 0 3.40909V21.5909C0 23.4708 1.52921 25 3.40909 25Z"
        fill="#CBCBCB"
    />
    <path
        d="M6.81818 12.5C6.81818 13.1276 7.32643 13.6364 7.95454 13.6364H21.1204L16.242 18.5148C15.7981 18.9586 15.7981 19.6778 16.242 20.1216C16.464 20.3436 16.7547 20.4546 17.0454 20.4546C17.3362 20.4546 17.6269 20.3436 17.8489 20.1216L24.6663 13.3042C24.7715 13.1993 24.8548 13.0735 24.9125 12.934C25.0273 12.6564 25.0273 12.3436 24.9125 12.066C24.8548 11.9266 24.7715 11.8007 24.6663 11.6958L17.8489 4.87839C17.405 4.4345 16.6859 4.4345 16.242 4.87839C15.7981 5.32228 15.7981 6.04139 16.242 6.48528L21.1204 11.3637H7.95454C7.32643 11.3637 6.81818 11.8725 6.81818 12.5Z"
        fill="#CBCBCB"
    />
</svg>
