<svg xmlns="http://www.w3.org/2000/svg" width="19" height="13" viewBox="0 0 19 13" id="paragraph">
  <path d="M18.0087 5.31818H0.900433C0.403394 5.31818 0 5.84764 0 6.5C0 7.15236 0.403394 7.68182 0.900433 7.68182H18.0087C18.5057 7.68182 18.9091 7.15236 18.9091 6.5C18.9091 5.84764 18.5057 5.31818 18.0087 5.31818ZM0.900433 2.36364H18.0087C18.5057 2.36364 18.9091 1.83418 18.9091 1.18182C18.9091 0.529455 18.5057 0 18.0087 0H0.900433C0.403394 0 0 0.529455 0 1.18182C0 1.83418 0.403394 2.36364 0.900433 2.36364ZM18.0087 10.6364H0.900433C0.403394 10.6364 0 11.1658 0 11.8182C0 12.4705 0.403394 13 0.900433 13H18.0087C18.5057 13 18.9091 12.4705 18.9091 11.8182C18.9091 11.1658 18.5057 10.6364 18.0087 10.6364Z" />
</svg>
