<svg xmlns="http://www.w3.org/2000/svg" width="25" height="25" viewBox="0 0 25 25" id="person">
    <path
        d="M23.8889 25H1.11111C0.5 25 0 24.5 0 23.8889C0 19.6944 2.08333 15.8056 5.55556 13.5C6.05556 13.1667 6.75 13.3056 7.08333 13.8056C7.41667 14.3056 7.27778 15 6.77778 15.3333C4.22222 17.0278 2.58333 19.7778 2.25 22.7778H22.6944C22.3611 19.7778 20.7222 17.0278 18.1667 15.3333C17.6667 15 17.5278 14.3056 17.8611 13.8056C18.1944 13.3056 18.8889 13.1667 19.3889 13.5C22.9167 15.8056 25 19.6944 25 23.8889C25 24.5 24.5 25 23.8889 25ZM12.5 13.3333C8.83333 13.3333 5.83333 10.3333 5.83333 6.66667C5.83333 3 8.83333 0 12.5 0C16.1667 0 19.1667 3 19.1667 6.66667C19.1667 10.3333 16.1667 13.3333 12.5 13.3333ZM12.5 2.22222C10.0556 2.22222 8.05556 4.22222 8.05556 6.66667C8.05556 9.11111 10.0556 11.1111 12.5 11.1111C14.9444 11.1111 16.9444 9.11111 16.9444 6.66667C16.9444 4.22222 14.9444 2.22222 12.5 2.22222Z" />
</svg>
