<svg width="25" height="25" viewBox="0 0 25 25" fill="none" xmlns="http://www.w3.org/2000/svg">
<path fill-rule="evenodd" clip-rule="evenodd" d="M12.5 1C6.153 1 1 6.153 1 12.5C1 18.847 6.153 24 12.5 24C18.847 24 24 18.847 24 12.5C24 6.153 18.847 1 12.5 1ZM12.5 3C17.743 3 22 7.257 22 12.5C22 17.743 17.743 22 12.5 22C7.257 22 3 17.743 3 12.5C3 7.257 7.257 3 12.5 3Z" fill="black"/>
<path fill-rule="evenodd" clip-rule="evenodd" d="M11.1274 9.37249C11.1274 8.61549 11.7424 8.00049 12.4999 8.00049C13.2569 8.00049 13.8719 8.61549 13.8719 9.37249C13.8719 10.13 13.2569 10.745 12.4999 10.745C11.9474 10.745 11.4999 11.1925 11.4999 11.745V13.918C11.4999 14.47 11.9479 14.918 12.4999 14.918C13.0519 14.918 13.4999 14.47 13.4999 13.918V12.594C14.8734 12.1675 15.8719 10.886 15.8719 9.37249C15.8719 7.51149 14.3609 6.00049 12.4999 6.00049C10.6384 6.00049 9.12744 7.51149 9.12744 9.37249C9.12744 9.92449 9.57544 10.3725 10.1274 10.3725C10.6794 10.3725 11.1274 9.92449 11.1274 9.37249Z" fill="black"/>
<path d="M12.5 18.5C13.0523 18.5 13.5 18.0523 13.5 17.5C13.5 16.9477 13.0523 16.5 12.5 16.5C11.9477 16.5 11.5 16.9477 11.5 17.5C11.5 18.0523 11.9477 18.5 12.5 18.5Z" fill="black"/>
</svg>
