<svg fill="none" height="15" viewBox="0 0 15 15" id="question" width="15" xmlns="http://www.w3.org/2000/svg"
    xmlns:xlink="http://www.w3.org/1999/xlink">
    <clipPath id="a">
        <path d="m0 0h15v15h-15z" />
    </clipPath>
    <g clip-path="url(#a)" fill="currentColor">
        <path clip-rule="evenodd"
            d="m7.49961.600098c-3.8082 0-6.900001 3.091802-6.900001 6.900002s3.091801 6.9 6.900001 6.9c3.80819 0 6.89999-3.0918 6.89999-6.9s-3.0918-6.900002-6.89999-6.900002zm0 1.200002c3.14579 0 5.69999 2.5542 5.69999 5.7s-2.5542 5.7-5.69999 5.7c-3.1458 0-5.7-2.5542-5.7-5.7s2.5542-5.7 5.7-5.7z"
            fill-rule="evenodd" />
        <path clip-rule="evenodd"
            d="m6.67559 5.62354c0-.4542.369-.8232.8235-.8232.4542 0 .8232.369.8232.8232 0 .4545-.369.8235-.8232.8235-.3315 0-.6.2685-.6.6v1.3038c0 .3312.2688.6.6.6s.6-.2688.6-.6v-.7944c.8241-.2559 1.4232-1.0248 1.4232-1.9329 0-1.1166-.9066-2.0232-2.0232-2.0232-1.1169 0-2.0235.9066-2.0235 2.0232 0 .3312.2688.6.6.6s.6-.2688.6-.6z"
            fill-rule="evenodd" />
        <path
            d="m7.49941 11.1001c.33137 0 .6-.2686.6-.6 0-.3313-.26863-.59995-.6-.59995s-.6.26865-.6.59995c0 .3314.26863.6.6.6z" />
    </g>
</svg>
