<svg width="44" height="58" viewBox="0 0 44 58" fill="none" xmlns="http://www.w3.org/2000/svg">
<path d="M10 12.5912C10 11.6817 10.7419 10.9443 11.6571 10.9443H34.8571C39.4332 10.9443 43.1429 14.6309 43.1429 19.1786V55.4093C43.1429 56.3188 42.4009 57.0561 41.4857 57.0561H11.6571C10.7419 57.0561 10 56.3188 10 55.4093V12.5912Z" fill="#FF7F5F"/>
<path d="M5 7.59119C5 6.68165 5.74193 5.94434 6.65714 5.94434H29.8571C34.4332 5.94434 38.1429 9.63094 38.1429 14.1786V50.4093C38.1429 51.3188 37.4009 52.0561 36.4857 52.0561H6.65714C5.74193 52.0561 5 51.3188 5 50.4093V7.59119Z" fill="#FF7F5F"/>
<path d="M0 2.59119C0 1.68166 0.741928 0.944336 1.65714 0.944336H24.8571C29.4332 0.944336 33.1429 4.63094 33.1429 9.17859V45.4093C33.1429 46.3188 32.4009 47.0561 31.4857 47.0561H1.65714C0.741928 47.0561 0 46.3188 0 45.4093V2.59119Z" fill="#FF7F5F"/>
</svg>
