<svg fill="none" height="15" viewBox="0 0 15 15" id="search" width="15" xmlns="http://www.w3.org/2000/svg"
    xmlns:xlink="http://www.w3.org/1999/xlink">
    <clipPath id="a">
        <path d="m0 0h15v15h-15z" />
    </clipPath>
    <g clip-path="url(#a)">
        <path
            d="m6.32981.5c-3.21281 0-5.82981 2.617-5.82981 5.82981s2.617 5.82979 5.82981 5.82979c1.39712 0 2.68019-.4961 3.68579-1.3197l3.4808 3.4809c.0537.0559.118.1006.1892.1314.0712.0307.1479.047.2254.0478.0776.0008.1545-.0139.2263-.0433.0718-.0293.1371-.0726.1919-.1275.0549-.0548.0982-.1201.1275-.1919.0294-.0718.0441-.1487.0433-.2263-.0008-.0775-.0171-.1542-.0478-.2254-.0308-.0712-.0755-.1355-.1314-.1892l-3.4809-3.4808c.8236-1.0056 1.3197-2.28867 1.3197-3.68579 0-3.21281-2.61698-5.82981-5.82979-5.82981zm0 1.16596c2.58268 0 4.66389 2.08117 4.66389 4.66385s-2.08121 4.66389-4.66389 4.66389-4.66385-2.08121-4.66385-4.66389 2.08117-4.66385 4.66385-4.66385z"
            fill="currentColor" />
    </g>
</svg>
