<svg version="1.1" id="search" xmlns="http://www.w3.org/2000/svg"
    xmlns:xlink="http://www.w3.org/1999/xlink" x="0px" y="0px"
    viewBox="0 0 25 25" style="enable-background:new 0 0 25 25;" xml:space="preserve">
<style type="text/css">
	.st0{clip-path:url(#SVGID_00000005245765027706761500000014152071446753149324_);}
</style>
<g>
	<defs>
		<rect id="SVGID_1_" y="0" width="25" height="25"/>
	</defs>
	<clipPath id="SVGID_00000026136002316485085260000015910446519490584460_">
		<use xlink:href="#SVGID_1_"  style="overflow:visible;"/>
	</clipPath>
	<g style="clip-path:url(#SVGID_00000026136002316485085260000015910446519490584460_);">
		<path d="M10.4,0C4.7,0,0,4.7,0,10.4c0,5.7,4.7,10.4,10.4,10.4c2.5,0,4.8-0.9,6.6-2.4l6.2,6.2c0.1,0.1,0.2,0.2,0.3,0.2
			C23.7,25,23.8,25,24,25c0.1,0,0.3,0,0.4-0.1c0.1-0.1,0.2-0.1,0.3-0.2c0.1-0.1,0.2-0.2,0.2-0.3C25,24.2,25,24.1,25,24
			c0-0.1,0-0.3-0.1-0.4c-0.1-0.1-0.1-0.2-0.2-0.3L18.5,17c1.5-1.8,2.4-4.1,2.4-6.6C20.8,4.7,16.2,0,10.4,0z M10.4,2.1
			c4.6,0,8.3,3.7,8.3,8.3c0,4.6-3.7,8.3-8.3,8.3c-4.6,0-8.3-3.7-8.3-8.3C2.1,5.8,5.8,2.1,10.4,2.1z"/>
	</g>
</g>
</svg>
