<svg
    xmlns="http://www.w3.org/2000/svg"
    width="16"
    height="16"
    viewBox="0 0 25 25"
    fill="none"
>
    <path
        d="M12.0079 7.1875C9.07975 7.1875 6.69537 9.57188 6.69537 12.5C6.69537 15.4281 9.07975 17.8125 12.0079 17.8125C14.936 17.8125 17.3204 15.4281 17.3204 12.5C17.3204 9.57188 14.936 7.1875 12.0079 7.1875ZM12.0079 15.9375C10.111 15.9375 8.57037 14.3969 8.57037 12.5C8.57037 10.6031 10.111 9.0625 12.0079 9.0625C13.9047 9.0625 15.4454 10.6031 15.4454 12.5C15.4454 14.3969 13.9016 15.9375 12.0079 15.9375Z"
        fill="#CBCBCB"
    />
    <path
        d="M22.6422 13.5875L22.1204 13.2844C21.8547 13.1312 21.6954 12.8406 21.6954 12.5094V12.4875C21.6954 12.1562 21.8547 11.8656 22.1204 11.7125L22.6422 11.4094C23.9516 10.6531 24.4047 8.97187 23.6454 7.65937L22.0141 4.83437C21.6485 4.2 21.0547 3.74688 20.3485 3.55625C19.6422 3.36563 18.9016 3.4625 18.2672 3.83125L17.7516 4.12813C17.4829 4.28438 17.1516 4.28125 16.886 4.12813L16.8141 4.08438C16.5485 3.93125 16.3829 3.64687 16.3829 3.3375V2.74375C16.3829 1.23125 15.1516 0 13.6391 0H10.3766C8.86412 0 7.63287 1.23125 7.63287 2.74375V3.3375C7.63287 3.64687 7.46725 3.93437 7.20162 4.0875L7.12975 4.13125C6.86412 4.2875 6.53287 4.2875 6.26412 4.13125L5.7485 3.83437C5.11412 3.46875 4.3735 3.36875 3.66725 3.55938C2.95787 3.75 2.36725 4.20312 2.00162 4.8375L0.370372 7.6625C-0.385878 8.97188 0.0641219 10.6562 1.3735 11.4125L1.89537 11.7156C2.161 11.8687 2.32037 12.1594 2.32037 12.5156C2.32037 12.8469 2.161 13.1375 1.89537 13.2906L1.3735 13.5938C0.739122 13.9594 0.285997 14.5531 0.0953716 15.2594C-0.0952534 15.9687 0.00162169 16.7063 0.370372 17.3406L2.00162 20.1656C2.36725 20.8 2.961 21.2531 3.66725 21.4438C4.37662 21.6344 5.11412 21.5375 5.7485 21.1688L6.26412 20.8719C6.53287 20.7156 6.86412 20.7188 7.12975 20.8719L7.20162 20.9156C7.46725 21.0688 7.63287 21.3531 7.63287 21.6625V22.2563C7.63287 23.7688 8.86412 25 10.3766 25H13.636C15.1485 25 16.3797 23.7688 16.3797 22.2563V21.6625C16.3797 21.3531 16.5454 21.0656 16.811 20.9125L16.8829 20.8688C17.1485 20.7125 17.4797 20.7125 17.7485 20.8688L18.2641 21.1656C18.8985 21.5313 19.6391 21.6281 20.3485 21.4406C21.0579 21.25 21.6485 20.7969 22.0141 20.1625L23.6454 17.3375C24.011 16.7031 24.1079 15.9625 23.9204 15.2563C23.7329 14.5469 23.2766 13.9531 22.6422 13.5875ZM22.0235 16.4L20.3922 19.225C20.2766 19.425 20.0891 19.5687 19.8641 19.6312C19.6391 19.6906 19.4047 19.6594 19.2047 19.5437L18.6891 19.2469C17.8391 18.7563 16.786 18.7594 15.9422 19.2531L15.8829 19.2875C15.036 19.7719 14.5079 20.6844 14.5079 21.6625V22.2563C14.5079 22.7344 14.1172 23.125 13.6391 23.125H10.3766C9.8985 23.125 9.50787 22.7344 9.50787 22.2563V21.6625C9.50787 20.6812 8.97975 19.7719 8.13287 19.2875L8.0735 19.2531C7.6485 19.0062 7.1735 18.8813 6.69537 18.8813C6.2235 18.8813 5.7485 19.0031 5.3235 19.2469L4.80787 19.5437C4.60787 19.6594 4.3735 19.6906 4.1485 19.6312C3.9235 19.5719 3.736 19.4281 3.62037 19.225L1.98912 16.4C1.8735 16.2 1.84225 15.9656 1.90162 15.7406C1.961 15.5156 2.10475 15.3281 2.30787 15.2125L2.82975 14.9094C3.67037 14.4219 4.19537 13.5031 4.19225 12.4906C4.19225 11.4969 3.67037 10.575 2.82975 10.0906L2.30787 9.7875C1.89225 9.54688 1.7485 9.01562 1.98912 8.6L3.62037 5.775C3.736 5.575 3.9235 5.43125 4.1485 5.36875C4.3735 5.30938 4.60787 5.34062 4.80787 5.45625L5.3235 5.75313C6.1735 6.24375 7.22662 6.24062 8.07037 5.74687L8.12975 5.7125C8.97662 5.22812 9.50475 4.31562 9.50475 3.3375V2.74375C9.50475 2.26562 9.89537 1.875 10.3735 1.875H13.6329C14.111 1.875 14.5016 2.26562 14.5016 2.74375V3.3375C14.5016 4.31875 15.0297 5.22812 15.8766 5.7125L15.936 5.74687C16.7829 6.24062 17.836 6.24375 18.686 5.75313L19.2016 5.45625C19.4016 5.34062 19.636 5.30938 19.861 5.36875C20.086 5.42812 20.2735 5.57188 20.3891 5.775L22.0204 8.6C22.261 9.01562 22.1172 9.54688 21.7016 9.7875L21.1797 10.0906C20.3391 10.5781 19.8141 11.4969 19.8172 12.4906L20.7547 12.5L19.8172 12.5094C19.8172 13.5031 20.3391 14.425 21.1797 14.9094L21.7016 15.2125C21.9016 15.3281 22.0454 15.5156 22.1079 15.7406C22.1704 15.9656 22.1391 16.1969 22.0235 16.4Z"
        fill="#CBCBCB"
    />
</svg>
