<?xml version="1.0" encoding="UTF-8" standalone="no"?>
<svg
   id="strikethrough"
   width="13"
   height="13"
>
  <path
     fill-rule="evenodd"
     clip-rule="evenodd"
     d="M 9.7595274,9.87695 C 10.051475,9.428365 10.197524,8.9226897 10.197524,8.3598622 c 0,-0.2634826 -0.02665,-0.5036569 -0.07995,-0.7205397 H 7.8529037 c 0.072381,0.053327 0.1387203,0.1115385 0.1990497,0.1746454 0.1904628,0.1904245 0.2856582,0.4400962 0.2856582,0.7490198 0,0.3893256 -0.1755866,0.7151873 -0.5268273,0.9775263 C 7.4637685,9.798632 7.0109758,9.927729 6.45238,9.927729 6.0461319,9.927729 5.7181634,9.864299 5.4684898,9.737343 5.2188163,9.606096 5.0241564,9.441097 4.884504,9.242196 4.7490927,9.0432949 4.6221351,8.7957339 4.503646,8.4995114 4.4063196,8.2498396 4.2878305,8.0615259 4.1481776,7.9345655 4.0127592,7.8076174 3.8456068,7.744141 3.6467134,7.744141 c -0.2454396,0 -0.4485674,0.08252 -0.6093759,0.247558 -0.1565745,0.1608085 -0.2348618,0.3554651 -0.2348618,0.5839822 0,0.3935546 0.1311844,0.7998338 0.3935533,1.2187338 0.2666028,0.41475 0.611493,0.746893 1.0346703,0.996577 0.5966807,0.34702 1.3541627,0.520534 2.2724609,0.520534 0.7659504,0 1.4282064,-0.126953 1.986791,-0.380854 0.558652,-0.253901 0.9817736,-0.605141 1.2695762,-1.053722 z M 3.029402,4.8285123 H 5.1064188 C 5.0161696,4.7601073 4.9400881,4.6846178 4.8781602,4.6020524 4.7765998,4.4666335 4.7258125,4.305825 4.7258125,4.1196264 c 0,-0.3004538 0.1481137,-0.5564788 0.4443406,-0.7680675 0.3004537,-0.215815 0.694007,-0.3237268 1.1806666,-0.3237268 0.5247377,0 0.9055957,0.099443 1.1425748,0.2983367 0.2369986,0.1946599 0.4401211,0.4676137 0.6093373,0.8188476 0.1312462,0.2454473 0.2518284,0.4231774 0.3618279,0.5332058 0.088014,0.081456 0.2060824,0.1315547 0.3542772,0.1502901 H 9.0820636 C 9.265273,4.8025667 9.4212392,4.7164999 9.550039,4.5703108 9.7108169,4.3883465 9.7912803,4.1852188 9.7912803,3.9609349 9.7912803,3.7154953 9.7277747,3.4637047 9.600822,3.2055627 9.4738692,2.9474278 9.2728237,2.701981 8.9978249,2.4692363 8.722754,2.2322572 8.3757302,2.0439427 7.9567581,1.9042944 7.5420794,1.7604141 7.0490608,1.688474 6.4777701,1.688474 5.7625998,1.688474 5.140529,1.7963838 4.6115573,2.0122047 4.0825856,2.2237933 3.6784545,2.5284773 3.3991564,2.9262645 3.1198587,3.3240518 2.9802135,3.7789707 2.9802135,4.2910131 c 0,0.1900105 0.016397,0.3691769 0.049189,0.5374992 z"
     id="path1"
     style="stroke-width:0.740235" />
  <path
     d="M 12.297293,7.2027046 H 0.70270327 C 0.31481067,7.2027046 0,6.8878903 0,6.5000001 0,6.1121095 0.31481067,5.7972953 0.70270327,5.7972953 H 12.297293 C 12.68518,5.7972953 13,6.1121095 13,6.5000001 13,6.8878903 12.68518,7.2027046 12.297293,7.2027046 Z"
     id="path2"
     style="stroke-width:0.740235" />
</svg>
