<svg fill="none" height="15" viewBox="0 0 15 15" id="strikethrough" width="15" xmlns="http://www.w3.org/2000/svg"
    xmlns:xlink="http://www.w3.org/1999/xlink">
    <clipPath id="a">
        <path d="m0 0h15v15h-15z" />
    </clipPath>
    <clipPath id="b">
        <path d="m0 2h15v11h-15z" />
    </clipPath>
    <g clip-path="url(#a)">
        <g clip-path="url(#b)" fill="currentColor">
            <path clip-rule="evenodd"
                d="m10.8499 11.3602c.3287-.5128.4931-1.0908.4931-1.73421 0-.30118-.03-.57573-.09-.82364h-2.5495c.0815.06096.15617.1275.22408.19963.21442.21768.32159.50307.32159.8562 0 .44502-.19767.81752-.59309 1.11742-.39066.295-.9004.4426-1.52925.4426-.45734 0-.82656-.0725-1.10763-.2176-.28107-.1501-.50022-.3387-.65743-.566-.15244-.2274-.29537-.5104-.42876-.84898-.10957-.2854-.24296-.50066-.40018-.64578-.15245-.14512-.34062-.21768-.56453-.21768-.27631 0-.50498.09433-.68602.28298-.17626.18382-.2644.40634-.2644.66755 0 .44991.14769.91431.44305 1.39311.30014.4741.6884.8538 1.1648 1.1392.67173.3967 1.52448.595 2.55827.595.86228 0 1.60783-.1451 2.23667-.4353.62893-.2903 1.10523-.6918 1.42923-1.2045zm-7.57655-5.77086h2.33824c-.1016-.07819-.18725-.16448-.25697-.25886-.11433-.1548-.1715-.33862-.1715-.55146 0-.34344.16674-.6361.50022-.87797.33824-.24669.78129-.37004 1.32916-.37004.59073 0 1.01949.11367 1.28628.34102.2668.22251.49547.53452.68597.93602.14775.28056.2835.48373.40733.6095.09909.09311.232.15038.39884.17179h.29628c.2063-.02966.3819-.12804.5269-.29514.181-.20801.2716-.4402.2716-.69658 0-.28055-.0715-.56837-.2145-.86345-.1429-.29507-.3692-.57564-.67878-.84169-.30967-.27089-.70034-.48615-1.172-.64578-.46684-.16447-1.02186-.2467-1.665-.2467-.80512 0-1.50543.12335-2.10093.37005-.5955.24187-1.05046.59015-1.36488 1.04485-.31443.45471-.47164.97472-.47164 1.56003 0 .2172.01846.42201.05538.61441z"
                fill-rule="evenodd" />
            <path
                d="m13.8439 7.99909h-13.052818c-.436678 0-.791082-.35987-.791082-.80326s.354404-.80325.791082-.80325h13.052818c.4367 0 .7911.35986.7911.80325s-.3544.80326-.7911.80326z" />
        </g>
    </g>
</svg>
