<svg
    xmlns="http://www.w3.org/2000/svg"
    width="18"
    height="13"
    viewBox="0 0 18 13"
    id="strikethrough"
>
    <path
        fill-rule="evenodd"
        clip-rule="evenodd"
        d="M13.0199 11.062C13.4143 10.456 13.6116 9.77287 13.6116 9.01253C13.6116 8.65659 13.5756 8.33213 13.5036 8.03914H10.4442C10.542 8.11118 10.6316 8.18982 10.7131 8.27507C10.9704 8.53232 11.099 8.86961 11.099 9.28694C11.099 9.81289 10.8618 10.2531 10.3873 10.6075C9.91851 10.9562 9.30682 11.1306 8.5522 11.1306C8.00339 11.1306 7.56033 11.0449 7.22304 10.8734C6.88575 10.6961 6.62278 10.4732 6.43412 10.2045C6.25119 9.9358 6.07968 9.60136 5.91961 9.20119C5.78813 8.8639 5.62806 8.6095 5.4394 8.43799C5.25646 8.26649 5.03065 8.18074 4.76196 8.18074C4.43039 8.18074 4.15598 8.29222 3.93874 8.51517C3.72722 8.73241 3.62146 8.99538 3.62146 9.30409C3.62146 9.83575 3.79868 10.3846 4.15312 10.9505C4.51328 11.5108 4.9792 11.9595 5.55088 12.2968C6.35695 12.7656 7.38025 13 8.6208 13C9.65554 13 10.5502 12.8285 11.3048 12.4855C12.0595 12.1425 12.6311 11.668 13.0199 11.062ZM3.92802 4.24195H6.73391C6.61199 4.14954 6.50921 4.04756 6.42555 3.93602C6.28835 3.75308 6.21974 3.53584 6.21974 3.2843C6.21974 2.87841 6.41983 2.53254 6.82001 2.2467C7.2259 1.95515 7.75756 1.80937 8.415 1.80937C9.12388 1.80937 9.63839 1.94371 9.95853 2.2124C10.2787 2.47537 10.5531 2.84411 10.7817 3.3186C10.959 3.65018 11.1219 3.89028 11.2705 4.03892C11.3894 4.14896 11.5489 4.21664 11.7491 4.24195H12.1047C12.3522 4.2069 12.5629 4.09063 12.7369 3.89314C12.9541 3.64732 13.0628 3.37291 13.0628 3.06992C13.0628 2.73835 12.977 2.3982 12.8055 2.04947C12.634 1.70075 12.3624 1.36917 11.9909 1.05475C11.6193 0.734609 11.1505 0.480211 10.5845 0.291557C10.0243 0.0971856 9.35827 0 8.5865 0C7.62036 0 6.77999 0.145778 6.06539 0.437335C5.35079 0.723175 4.80484 1.13478 4.42753 1.67216C4.05022 2.20954 3.86157 2.8241 3.86157 3.51583C3.86157 3.77252 3.88372 4.01456 3.92802 4.24195Z"
    />
    <path
        d="M16.6127 7.08976H0.949298C0.425285 7.08976 0 6.66447 0 6.14046C0 5.61645 0.425285 5.19116 0.949298 5.19116H16.6127C17.1367 5.19116 17.562 5.61645 17.562 6.14046C17.562 6.66447 17.1367 7.08976 16.6127 7.08976Z"
    />
</svg>
