<svg fill="none" height="13" viewBox="0 0 13 13" id="strikethrough" width="13" xmlns="http://www.w3.org/2000/svg"
    xmlns:xlink="http://www.w3.org/1999/xlink">
    <clipPath id="a">
        <path d="m0 2h13v9h-13z" />
    </clipPath>
    <g clip-path="url(#a)" fill="#000">
        <path clip-rule="evenodd"
            d="m9.40327 9.65831c.28485-.41954.42734-.89248.42734-1.41887 0-.24642-.026-.47104-.078-.67388h-2.20957c.07064.04987.13535.10432.19421.16333.18583.1781.2787.41161.2787.70053 0 .36412-.17131.66888-.514.91423-.33857.24141-.78035.36215-1.32535.36215-.39636 0-.71635-.05933-.95995-.17806-.2436-.12275-.43352-.27706-.56978-.46309-.13211-.18602-.25598-.41755-.37159-.6946-.09495-.2335-.21056-.40963-.34681-.52836-.13213-.11874-.29521-.1781-.48927-.1781-.23946 0-.43765.07718-.59454.23153-.15277.15039-.22915.33245-.22915.54617 0 .36808.12799.74805.38398 1.13983.26011.3879.59661.69858 1.00949.93208.58216.3245 1.32121.4868 2.21716.4868.74732 0 1.39346-.1187 1.93845-.3562.54506-.2375.95788-.566 1.23868-.98549zm-6.56636-4.72158h2.02648c-.08805-.06397-.16228-.13457-.2227-.21179-.09909-.12665-.14865-.27705-.14865-.45119 0-.281.14451-.52045.43353-.71834.29315-.20184.67712-.30277 1.15194-.30277.51197 0 .88356.09301 1.11477.27902.23124.18206.42941.43734.59451.76583.12805.22956.2457.39578.35303.49869.08587.07618.20106.12303.34565.14055h.25682c.17875-.02426.33093-.10476.45659-.24148.15687-.17018.23537-.36016.23537-.56992 0-.22955-.06196-.46504-.18582-.70647-.12386-.24142-.32002-.47097-.58833-.68865-.26837-.22163-.60695-.39776-1.01573-.52836-.40459-.13457-.88561-.20185-1.443-.20185-.69777 0-1.3047.10092-1.8208.30277-.5161.19789-.9104.48285-1.1829.85488s-.40875.7975-.40875 1.27639c0 .1777.016.34527.04799.50269z"
            fill-rule="evenodd" />
        <path
            d="m11.9981 6.90829h-11.312496c-.378454 0-.685604-.29443-.685604-.65721s.30715-.65721.685604-.65721h11.312496c.3784 0 .6856.29443.6856.65721s-.3072.65721-.6856.65721z" />
    </g>
</svg>
