<svg
    xmlns="http://www.w3.org/2000/svg"
    width="15"
    height="15"
    viewBox="0 0 40 50"
    fill="none"
    id="trash"
>
    <path
        d="M34.3996 15.0001C34.3996 13.6266 33.877 12.2831 32.8883 11.1148C32.0726 10.1509 30.9518 9.30855 29.5573 8.6113C26.9634 7.31435 23.5691 6.6001 19.9996 6.6001C16.4301 6.6001 13.0358 7.31435 10.4419 8.6113C9.04736 9.3086 7.92661 10.1509 7.11091 11.1148C6.12221 12.2831 5.59961 13.6266 5.59961 15.0001C5.59961 15.314 5.62726 15.6264 5.68121 15.9355L7.60116 35.1351C7.62951 36.3855 8.05111 37.6216 8.82471 38.7184C9.52241 39.7076 10.4882 40.5762 11.6951 41.3003C13.9521 42.6544 16.9013 43.4001 19.9996 43.4001C23.0979 43.4001 26.0472 42.6544 28.3042 41.3003C29.5111 40.5762 30.4768 39.7076 31.1745 38.7184C31.9482 37.6216 32.3697 36.3855 32.3981 35.1351L34.318 15.9355C34.372 15.6264 34.3996 15.314 34.3996 15.0001ZM12.5886 12.9045C14.5007 11.9484 17.202 11.4001 19.9996 11.4001C22.7973 11.4001 25.4985 11.9484 27.4107 12.9045C28.853 13.6257 29.5349 14.4242 29.5948 14.9287L29.5674 15.2028C29.4168 15.7079 28.7332 16.4343 27.4107 17.0956C25.4985 18.0517 22.7973 18.6001 19.9996 18.6001C17.202 18.6001 14.5007 18.0517 12.5886 17.0956C11.266 16.4343 10.5824 15.7079 10.4319 15.2028L10.4045 14.9287C10.4643 14.4241 11.1462 13.6257 12.5886 12.9045ZM12.3996 35.0001V34.8804L11.0804 21.6887C11.843 22.0261 12.6645 22.3168 13.5313 22.558L14.0175 37.0932C13.0013 36.4474 12.3996 35.6728 12.3996 35.0001ZM18.8691 38.5545L18.3605 23.3493C18.9011 23.3829 19.4483 23.4001 19.9996 23.4001C20.551 23.4001 21.0981 23.3829 21.6388 23.3493L21.1302 38.5545C20.7575 38.5844 20.3798 38.6001 19.9996 38.6001C19.6194 38.6001 19.2417 38.5844 18.8691 38.5545ZM27.5996 34.8804V35.0001C27.5996 35.6728 26.9979 36.4474 25.9817 37.0932L26.4679 22.558C27.3348 22.3168 28.1563 22.0261 28.9188 21.6886L27.5996 34.8804Z"
        fill="currentColor"
    />
</svg>
