<svg fill="none" height="13" viewBox="0 0 13 13" id="underline" width="13" xmlns="http://www.w3.org/2000/svg"
    xmlns:xlink="http://www.w3.org/1999/xlink">
    <clipPath id="a">
        <path d="m3 1h8v10h-8z" />
    </clipPath>
    <g clip-path="url(#a)" fill="#000">
        <path
            d="m3.6712 5.65642v-3.70935c0-.31569.06633-.55246.19898-.7103.13597-.15785.3134-.23677.53227-.23677.22883 0 .40957.07892.54223.23677.13597.15784.20395.39461.20395.7103v3.79354c0 .43144.04478.79273.13432 1.08387.09285.28763.25535.51211.4875.67347.23214.15784.55714.23677.975.23677.57704 0 .98495-.16136 1.22373-.48407.23877-.3262.35816-.81903.35816-1.47847v-3.82511c0-.3192.06633-.55597.19898-.7103.13266-.15785.31008-.23677.53227-.23677.2222 0 .40128.07892.53725.23677.13929.15433.20893.3911.20893.7103v3.70935c0 .60333-.05638 1.10667-.16913 1.51006-.10944.40337-.31837.75765-.62679 1.06281-.26531.25957-.57373.44899-.92526.56825-.35153.11923-.76276.17892-1.23368.17892-.56046 0-1.04298-.06315-1.44758-.18946-.40459-.12977-.73457-.32795-.98993-.59453-.25535-.27009-.44273-.61385-.56211-1.03125-.11939-.42093-.17909-.92252-.17909-1.5048z" />
        <path
            d="m10.1315 11h-6.45231c-.37492 0-.67919-.3218-.67919-.7184 0-.39652.30427-.71837.67919-.71837h6.45231c.3748 0 .6791.32185.6791.71837 0 .3966-.3043.7184-.6791.7184z" />
    </g>
</svg>
