<svg fill="none" height="15" id="underline" viewBox="0 0 15 15" width="15" xmlns="http://www.w3.org/2000/svg"
    xmlns:xlink="http://www.w3.org/1999/xlink">
    <clipPath id="a">
        <path d="m0 0h15v15h-15z" />
    </clipPath>
    <clipPath id="b">
        <path d="m2.5 2h10v12h-10z" />
    </clipPath>
    <g clip-path="url(#a)">
        <g clip-path="url(#b)" fill="currentColor">
            <path
                d="m3.339 7.58771v-4.45123c0-.37882.08291-.66295.24873-.85236.16996-.18941.39174-.28412.66534-.28412.28603 0 .51196.09471.67778.28412.16996.18941.25494.47354.25494.85236v4.55225c0 .51773.05597.95128.16789 1.30064.11607.34516.31919.61454.60938.80817.29018.18941.69642.28416 1.21875.28416.7213 0 1.23119-.19367 1.52966-.58092.29847-.39144.4477-.98284.4477-1.77417v-4.59013c0-.38303.08291-.66715.24873-.85236.16582-.18941.3876-.28412.6653-.28412.2778 0 .5016.09471.6716.28412.1741.18521.2612.46933.2612.85236v4.45123c0 .72399-.0705 1.328-.2115 1.81206-.1368.48406-.3979.90923-.7834 1.27543-.33167.3114-.7172.5387-1.15662.6818-.43941.1431-.95344.2148-1.54209.2148-.70058 0-1.30373-.0758-1.80948-.2274-.50574-.1557-.91821-.3935-1.23741-.7134-.31919-.3241-.55341-.73665-.70264-1.23754-.14924-.50511-.22386-1.10702-.22386-1.80575z" />
            <path
                d="m11.4143 14h-8.06532c-.46864 0-.84898-.3862-.84898-.8621 0-.4758.38034-.862.84898-.862h8.06532c.4686 0 .849.3862.849.862 0 .4759-.3804.8621-.849.8621z" />
        </g>
    </g>
</svg>
