<?xml version="1.0" encoding="UTF-8" standalone="no"?>
<svg
   id="underline"
   version="1.1"
   sodipodi:docname="underline.svg"
   width="13"
   height="13"
   inkscape:version="1.3.2 (091e20e, 2023-11-25)"
   xmlns:inkscape="http://www.inkscape.org/namespaces/inkscape"
   xmlns:sodipodi="http://sodipodi.sourceforge.net/DTD/sodipodi-0.dtd"
   xmlns="http://www.w3.org/2000/svg"
   xmlns:svg="http://www.w3.org/2000/svg">
  <defs
     id="defs2" />
  <sodipodi:namedview
     id="namedview2"
     pagecolor="#ffffff"
     bordercolor="#000000"
     borderopacity="0.25"
     inkscape:showpageshadow="2"
     inkscape:pageopacity="0.0"
     inkscape:pagecheckerboard="0"
     inkscape:deskcolor="#d1d1d1"
     inkscape:zoom="2.9156297"
     inkscape:cx="85.058813"
     inkscape:cy="50.074946"
     inkscape:window-width="1472"
     inkscape:window-height="847"
     inkscape:window-x="0"
     inkscape:window-y="37"
     inkscape:window-maximized="1"
     inkscape:current-layer="underline" />
  <path
     d="M 2.2831715,7.36865 V 2.54649 c 0,-0.410397 0.091197,-0.718194 0.273597,-0.923392 0.18696,-0.205199 0.43092,-0.307798 0.73187,-0.307798 0.31464,0 0.56316,0.102599 0.74556,0.307798 0.18696,0.205198 0.28044,0.512995 0.28044,0.923392 v 4.9316 c 0,0.56088 0.06156,1.03055 0.18468,1.40903 0.12767,0.37392 0.35111,0.66575 0.67031,0.87551 0.3192,0.2052 0.76607,0.3078 1.34063,0.3078 0.79343,0 1.35431,-0.20976 1.68263,-0.62928 0.32831,-0.42407 0.49247,-1.06475 0.49247,-1.92202 V 2.54649 c 0,-0.414957 0.0912,-0.722754 0.2736,-0.923392 0.1824,-0.205199 0.42636,-0.307798 0.73187,-0.307798 0.30552,0 0.5517605,0.102599 0.7387205,0.307798 0.19152,0.200638 0.28728,0.508435 0.28728,0.923392 v 4.82216 c 0,0.78432 -0.07752,1.43867 -0.23256,1.96307 -0.15048,0.52439 -0.43776,0.98495 -0.8618405,1.38166 -0.36479,0.33744 -0.78887,0.58368 -1.27223,0.73872 -0.48335,0.155 -1.04879,0.2326 -1.6963,0.2326 -0.77064,0 -1.43411,-0.0821 -1.99043,-0.2463 -0.55631,-0.1687 -1.01003,-0.42634 -1.36115,-0.77289 -0.35111,-0.35112 -0.60875,-0.798 -0.77291,-1.34063 -0.16416,-0.5472 -0.246237,-1.19927 -0.246237,-1.95623 z"
     id="path1" />
  <path
     d="M 10.93595,7.4339 H 2.064081 C 1.548578,7.4339 1.1302,7.0155 1.1302,6.5 c 0,-0.5155 0.418378,-0.9339 0.933881,-0.9339 h 8.871869 c 0.51545,0 0.93385,0.4184 0.93385,0.9339 0,0.5155 -0.4184,0.9339 -0.93385,0.9339 z"
     id="path2" />
</svg>
