<svg
  xmlns="http://www.w3.org/2000/svg"
  width="16"
  height="13"
  viewBox="0 0 16 13"
  id="unorderedlist"
>
    <path
      d="M15 5.5H5.5C4.948 5.5 4.5 5.948 4.5 6.5C4.5 7.052 4.948 7.5 5.5 7.5H15C15.552 7.5 16 7.052 16 6.5C16 5.948 15.552 5.5 15 5.5ZM5.5 3H15C15.552 3 16 2.552 16 2C16 1.448 15.552 1 15 1H5.5C4.948 1 4.5 1.448 4.5 2C4.5 2.552 4.948 3 5.5 3ZM15 10H5.5C4.948 10 4.5 10.448 4.5 11C4.5 11.552 4.948 12 5.5 12H15C15.552 12 16 11.552 16 11C16 10.448 15.552 10 15 10Z"
    />
    <path
      d="M0.74807 0.427457L2.74029 1.56587C3.07619 1.75781 3.07619 2.24216 2.74029 2.43411L0.74807 3.57252C0.414741 3.76299 0 3.52231 0 3.1384V0.861579C0 0.477667 0.414741 0.236984 0.74807 0.427457Z"
    />
    <path
      fill-rule="evenodd"
      clip-rule="evenodd"
      d="M1 1.72317V2.27681L1.48444 1.99999L1 1.72317ZM2.74029 1.56587L0.74807 0.427457C0.414741 0.236984 0 0.477667 0 0.861579V3.1384C0 3.52231 0.414741 3.76299 0.74807 3.57252L2.74029 2.43411C3.07619 2.24216 3.07619 1.75781 2.74029 1.56587Z"
    />
    <path
      d="M0.74807 4.92746L2.74029 6.06587C3.07619 6.25781 3.07619 6.74216 2.74029 6.93411L0.74807 8.07252C0.414741 8.26299 0 8.02231 0 7.6384V5.36158C0 4.97767 0.414741 4.73698 0.74807 4.92746Z"
    />
    <path
      fill-rule="evenodd"
      clip-rule="evenodd"
      d="M1 6.22317V6.77681L1.48444 6.49999L1 6.22317ZM2.74029 6.06587L0.74807 4.92746C0.414741 4.73698 0 4.97767 0 5.36158V7.6384C0 8.02231 0.414741 8.26299 0.74807 8.07252L2.74029 6.93411C3.07619 6.74216 3.07619 6.25781 2.74029 6.06587Z"
    />
    <path
      d="M0.74807 9.42746L2.74029 10.5659C3.07619 10.7578 3.07619 11.2422 2.74029 11.4341L0.74807 12.5725C0.414741 12.763 0 12.5223 0 12.1384V9.86158C0 9.47767 0.414741 9.23698 0.74807 9.42746Z"
    />
    <path
      fill-rule="evenodd"
      clip-rule="evenodd"
      d="M1 10.7232V11.2768L1.48444 11L1 10.7232ZM2.74029 10.5659L0.74807 9.42746C0.414741 9.23698 0 9.47767 0 9.86158V12.1384C0 12.5223 0.414741 12.763 0.74807 12.5725L2.74029 11.4341C3.07619 11.2422 3.07619 10.7578 2.74029 10.5659Z"
    />
</svg>
