<svg  height="15" viewBox="0 0 15 15" id="user" width="15" xmlns="http://www.w3.org/2000/svg"
    xmlns:xlink="http://www.w3.org/1999/xlink">
    <clipPath id="a">
        <path d="m0 0h15v15h-15z" />
    </clipPath>
    <g clip-path="url(#a)">
        <path
            d="m14.1056 14.75h-13.211156c-.354444 0-.644444-.29-.644444-.6444 0-2.4328 1.20833-4.68835 3.22223-6.0256.29-.19331.69277-.11275.8861.17725.19334.29.11278.69275-.17722.88607-1.48222.98278-2.43278 2.57778-2.62611 4.31778h11.8578c-.1934-1.74-1.1439-3.335-2.6261-4.31778-.29-.19332-.3706-.59607-.1773-.88607.1934-.29.5962-.37056.8862-.17725 2.0461 1.33725 3.2544 3.5928 3.2544 6.0256 0 .3544-.29.6444-.6444.6444zm-6.6056-6.76668c-2.12667 0-3.86667-1.74001-3.86667-3.86665 0-2.12667 1.74-3.86667 3.86667-3.86667 2.12669 0 3.8667 1.74 3.8667 3.86667 0 2.12664-1.74001 3.86665-3.8667 3.86665zm0-6.44443c-1.41775 0-2.57777 1.16-2.57777 2.57778 0 1.41777 1.16002 2.57777 2.57777 2.57777s2.5778-1.16 2.5778-2.57777c0-1.41778-1.16005-2.57778-2.5778-2.57778z"
            fill="currentColor" />
    </g>
</svg>
