<svg
    xmlns="http://www.w3.org/2000/svg"
    width="16"
    height="16"
    viewBox="0 0 25 26"
    fill="none"
>
    <path
        d="M23.8889 25.5H1.11111C0.5 25.5 0 25 0 24.3889C0 20.1944 2.08333 16.3056 5.55556 14C6.05556 13.6667 6.75 13.8056 7.08333 14.3056C7.41667 14.8056 7.27778 15.5 6.77778 15.8333C4.22222 17.5278 2.58333 20.2778 2.25 23.2778H22.6944C22.3611 20.2778 20.7222 17.5278 18.1667 15.8333C17.6667 15.5 17.5278 14.8056 17.8611 14.3056C18.1944 13.8056 18.8889 13.6667 19.3889 14C22.9167 16.3056 25 20.1944 25 24.3889C25 25 24.5 25.5 23.8889 25.5ZM12.5 13.8333C8.83333 13.8333 5.83333 10.8333 5.83333 7.16667C5.83333 3.5 8.83333 0.5 12.5 0.5C16.1667 0.5 19.1667 3.5 19.1667 7.16667C19.1667 10.8333 16.1667 13.8333 12.5 13.8333ZM12.5 2.72222C10.0556 2.72222 8.05556 4.72222 8.05556 7.16667C8.05556 9.61111 10.0556 11.6111 12.5 11.6111C14.9444 11.6111 16.9444 9.61111 16.9444 7.16667C16.9444 4.72222 14.9444 2.72222 12.5 2.72222Z"
        fill="#CBCBCB"
    />
</svg>
