<svg width="25" height="25" viewBox="0 0 25 25" fill="none" xmlns="http://www.w3.org/2000/svg">
<path fill-rule="evenodd" clip-rule="evenodd" d="M11.5205 10.1257V13.9493C11.5205 14.477 11.9593 14.9052 12.4999 14.9052C13.0405 14.9052 13.4792 14.477 13.4792 13.9493V10.1257C13.4792 9.59804 13.0405 9.1698 12.4999 9.1698C11.9593 9.1698 11.5205 9.59804 11.5205 10.1257Z" fill="black"/>
<path d="M12.4999 17.7724C13.0407 17.7724 13.4792 17.3444 13.4792 16.8165C13.4792 16.2886 13.0407 15.8606 12.4999 15.8606C11.959 15.8606 11.5205 16.2886 11.5205 16.8165C11.5205 17.3444 11.959 17.7724 12.4999 17.7724Z" fill="black"/>
<path fill-rule="evenodd" clip-rule="evenodd" d="M23.0207 21.2676C23.3723 21.2676 23.6975 21.0836 23.8713 20.7853C24.0456 20.4871 24.0427 20.1205 23.8635 19.8251L13.3427 2.46935C13.1665 2.17828 12.8462 2 12.5 2C12.1538 2 11.8335 2.17828 11.6573 2.46935L1.13653 19.8251C0.957306 20.1205 0.954368 20.4871 1.12869 20.7853C1.30253 21.0836 1.62768 21.2676 1.97926 21.2676H23.0207ZM21.3034 19.3558H3.69657L12.5 4.83328L21.3034 19.3558Z" fill="black"/>
</svg>
