<svg fill="none" height="15" id="warning" viewBox="0 0 15 15" width="15" xmlns="http://www.w3.org/2000/svg">
    <g fill="currentColor">
        <path clip-rule="evenodd"
            d="m6.91211 6.07525v2.29416c0 .31659.26325.57354.58761.57354.32437 0 .58762-.25695.58762-.57354v-2.29416c0-.3166-.26325-.57354-.58762-.57354-.32436 0-.58761.25694-.58761.57354z"
            fill-rule="evenodd" />
        <path
            d="m7.49972 10.6634c.32453 0 .58762-.2567.58762-.5735 0-.31676-.26309-.57354-.58762-.57354s-.58761.25678-.58761.57354c0 .3168.26308.5735.58761.5735z" />
        <path clip-rule="evenodd"
            d="m13.8121 12.7605c.2109 0 .406-.1104.5103-.2894.1046-.1789.1028-.3989-.0047-.5761l-6.31245-10.41344c-.10577-.17464-.29792-.28161-.50564-.28161s-.39987.10697-.50564.28161l-6.312443 10.41344c-.107534.1772-.109297.3972-.004701.5761.104301.179.299389.2894.510344.2894zm-1.0304-1.1471h-10.56415l5.28206-8.71348z"
            fill-rule="evenodd" />
    </g>
</svg>
