<svg width="222" height="113" xmlns="http://www.w3.org/2000/svg">

 <g>
  <title>anstiftung logo svg</title>
  <rect fill="none" id="canvas_background" height="402" width="582" y="-1" x="-1"/>
 </g>
 <g>
  <title>Layer 1</title>
  <g id="svgg">
   <path fill-rule="evenodd" fill="#c8d41e" d="m98.121033,7.199547c-0.387543,0.405902 -2.027885,1.85031 -2.293991,2.020335c-0.123604,0.079346 -0.277977,0.194855 -0.343826,0.257467c-0.065315,0.062613 -0.523026,0.380534 -1.017456,0.706011c-3.545708,2.338257 -6.589439,2.936315 -9.860939,1.938292c-0.48201,-0.146815 -2.082405,-0.98183 -2.368484,-1.235519c-0.290398,-0.256927 -0.334656,-0.078265 -0.164085,0.660131c0.424789,1.837356 0.530579,2.216269 0.937027,3.352472c1.045517,2.926059 2.558479,5.109942 4.629547,6.683894c0.772949,0.586723 2.394394,1.502163 2.661575,1.502163c0.262329,0 0.336273,0.319 0.453407,1.957722c0.12468,1.747757 0.193237,2.326382 0.428566,3.620195c0.34761,1.914541 0.621269,2.982735 1.313789,5.127756c0.13063,0.405361 0.465813,1.298672 0.59536,1.587986c0.069626,0.155449 0.126846,0.306583 0.126846,0.334652c0,0.1371 1.352112,2.938473 1.798492,3.72599c0.14843,0.261242 0.583481,0.964016 0.967247,1.560997c0.383781,0.596973 0.738403,1.149693 0.787521,1.2285c0.26178,0.416695 0.390793,0.499279 0.57431,0.36866c1.797417,-1.28302 1.686218,-1.0574 1.000183,-2.021957c-0.296875,-0.417778 -0.539764,-0.778881 -0.539764,-0.802628c0,-0.02375 -0.188377,-0.336815 -0.418861,-0.696297c-0.551636,-0.859844 -1.91993,-3.556503 -1.91993,-3.783203c0,-0.032387 -0.09771,-0.272041 -0.216446,-0.533287c-0.307129,-0.673626 -0.682266,-1.729942 -1.000191,-2.813787c-0.086899,-0.296869 -0.189987,-0.640699 -0.229393,-0.764845c-0.095001,-0.300648 -0.500359,-2.07971 -0.615875,-2.698818c-0.347603,-1.872442 -0.466896,-3.004326 -0.512238,-4.857874l-0.038857,-1.57395l0.262863,-0.360023c1.58799,-2.172009 3.382156,-5.826209 4.062798,-8.276196c0.041565,-0.148435 0.181908,-0.654733 0.312531,-1.124867c0.296326,-1.066033 0.658508,-2.724187 0.776718,-3.553265c0.280136,-1.970137 0.279053,-1.983631 -0.148445,-1.536707m5.738235,15.907915c-0.116051,0.520332 -0.322235,1.851929 -0.470131,3.036171c-0.599686,4.806055 1.202591,9.987246 4.650055,13.366709c0.618034,0.605614 0.76107,0.874958 0.572159,1.07629c-0.074486,0.079884 -0.849045,2.340416 -1.076836,3.144123c-0.60453,2.133148 -0.937569,3.850136 -1.256561,6.477161c-0.397812,3.279064 -0.494423,6.075581 -0.28392,8.2314c0.239655,2.460781 0.375679,3.67363 0.447998,4.003426c0.043724,0.19809 0.131172,0.678486 0.194862,1.06765c0.134392,0.826385 0.137642,0.828537 0.923531,0.646637c0.331413,-0.077187 0.693604,-0.139793 0.804787,-0.139793c0.466354,0 0.548409,-0.178665 0.419403,-0.909504c-0.735161,-4.151321 -0.841492,-9.434532 -0.265564,-13.169697c0.176498,-1.141598 0.363792,-2.243256 0.444221,-2.608677c0.043724,-0.19809 0.127922,-0.582405 0.187302,-0.854446c0.111191,-0.509537 0.360023,-1.502701 0.574844,-2.293995c0.637459,-2.350128 0.936493,-2.946571 1.685143,-3.355171c0.912743,-0.498741 1.08979,-0.598595 1.374237,-0.775639c0.41832,-0.259628 2.063515,-1.35157 2.114258,-1.402306c0.024826,-0.025368 0.206734,-0.164089 0.404823,-0.308205c1.191795,-0.870644 3.059921,-2.605984 3.916527,-3.639088c0.220764,-0.266106 0.44368,-0.52951 0.495499,-0.584564c0.140335,-0.150593 1.210144,-1.67057 1.210144,-1.719151c0,-0.023209 0.14521,-0.269341 0.322784,-0.546238c0.398888,-0.623968 0.391869,-0.629906 -0.521408,-0.478231c-0.983994,0.163549 -4.617142,0.167868 -5.603836,0.006477c-3.50576,-0.573769 -6.787521,-2.419762 -8.665352,-4.875147c-0.132248,-0.173264 -0.314148,-0.395647 -0.404289,-0.494963c-0.262863,-0.289312 -1.255493,-1.91832 -1.631172,-2.676147c-0.409676,-0.82692 -0.427483,-0.834476 -0.563507,-0.225082" id="path1"/>
   <path fill-rule="evenodd" fill="#005f54" d="m118.677406,61.955334c-1.120552,0.086903 -2.882881,0.715187 -3.660141,1.304611c-0.157616,0.119827 -0.326019,0.217522 -0.374596,0.217522c-0.048576,0 -0.102013,0.030228 -0.118752,0.067471c-0.01619,0.036705 -0.23156,0.229401 -0.478767,0.426956c-0.246674,0.19809 -0.671463,0.582947 -0.944588,0.856064c-0.272583,0.272583 -0.657433,0.697372 -0.85553,0.944588c-0.19809,0.246674 -0.37999,0.468513 -0.404823,0.49334c-0.170555,0.171112 -0.87603,1.614433 -0.945129,1.934517c-0.032379,0.148438 -0.091209,0.350845 -0.131157,0.449623c-0.188377,0.464737 -0.350311,1.811989 -0.401588,3.32872c-0.021584,0.643394 -0.078804,1.274925 -0.12738,1.402847l-0.088516,0.232643l-1.419586,0.058289c-1.711052,0.070709 -1.56369,-0.068008 -1.628464,1.531853l-0.053436,1.317017l1.570168,0c1.101128,0 1.60202,0.032394 1.677589,0.107964c0.160851,0.160843 0.155991,13.144859 -0.004318,13.277641c-0.062073,0.051819 -0.63044,0.105247 -1.262505,0.119827c-1.361824,0.030228 -1.252251,-0.105789 -1.215004,1.518356c0.019424,0.831772 0.055588,1.122169 0.138718,1.11515c0.061531,-0.00486 2.657799,-0.015114 5.76899,-0.022133l5.656731,-0.013489l0.064224,-1.116768c0.095001,-1.643593 0.314682,-1.484352 -2.094826,-1.512962l-2.04084,-0.024292l-0.021591,-6.567307c-0.013489,-4.041748 0.01133,-6.618576 0.064232,-6.701698c0.072868,-0.114975 0.525185,-0.137642 3.035095,-0.153297l2.949257,-0.01889l0.05722,-0.745956c0.031303,-0.410759 0.08744,-1.060097 0.124687,-1.443321l0.068016,-0.69738l-3.068024,0c-3.056145,0 -3.068016,-0.000542 -3.172188,-0.195396c-0.180283,-0.336273 0.080421,-5.281052 0.29039,-5.512604c0.042641,-0.046959 0.077728,-0.159775 0.077728,-0.250992c0,-1.451424 2.007378,-2.726883 3.661217,-2.326378c0.979668,0.237488 1.505402,0.404282 2.128288,0.674164c0.451775,0.196472 0.585106,0.142494 0.924614,-0.372437c0.897087,-1.360741 1.455742,-3.181908 1.008278,-3.286621c-0.116051,-0.026989 -0.550018,-0.134403 -0.964561,-0.238037c-0.802086,-0.201332 -2.479668,-0.280678 -3.789131,-0.179203m-20.645966,1.512421c-2.887733,0.490643 -3.154381,4.625233 -0.360023,5.582775c0.650414,0.222923 2.473732,0.078804 2.473732,-0.195396c0,-0.038322 0.05722,-0.070168 0.126846,-0.070168c0.193237,0 0.886833,-0.7276 1.075211,-1.128105c0.0923,-0.195938 0.203491,-0.426414 0.247215,-0.512238c0.044258,-0.086365 0.080429,-0.497658 0.080429,-0.914902c0,-1.973373 -1.517281,-3.123611 -3.64341,-2.761967m-15.563553,4.154018c-0.29686,0.098778 -0.620728,0.214287 -0.719498,0.255852c-0.098778,0.042099 -0.36219,0.146812 -0.584564,0.232635c-0.222923,0.085823 -0.485794,0.187836 -0.585114,0.2267c-0.331413,0.129005 -0.89492,0.378914 -1.4552,0.645554l-0.555954,0.26503l-0.048035,0.555954c-0.026985,0.305511 -0.070168,1.066032 -0.096619,1.690002c-0.096085,2.265388 0.069084,2.065132 -1.847069,2.239479l-1.484352,0.134941l-0.024826,1.326736l-0.025368,1.326736l1.483803,0c1.82225,0 1.719688,-0.094994 1.637108,1.5243c-0.196472,3.858223 -0.055595,12.261269 0.209961,12.50956c0.026459,0.024826 0.108498,0.166252 0.182983,0.31414c0.408058,0.813423 1.864883,1.837906 2.991913,2.104004c1.541023,0.363258 5.686409,-0.107948 8.387932,-0.953758l0.539764,-0.168953l-0.030235,-0.534904c-0.016731,-0.294708 -0.066383,-0.69738 -0.110115,-0.89547c-0.044258,-0.197556 -0.081505,-0.508995 -0.082581,-0.691437c-0.002701,-0.426949 -0.064232,-0.457176 -0.69413,-0.34005c-0.287155,0.053436 -0.724907,0.131157 -0.972115,0.172729c-0.247757,0.041557 -0.713036,0.123062 -1.034729,0.181358c-2.284821,0.413994 -3.715195,-0.024834 -4.3424,-1.333221l-0.200798,-0.41832l0.030235,-5.665894c0.016731,-3.1166 0.050194,-5.697746 0.073944,-5.737152c0.024292,-0.038864 1.564232,-0.068008 3.422096,-0.064766c1.857338,0.003769 3.398895,-0.015114 3.425346,-0.041565c0.026451,-0.025902 0.062614,-0.46312 0.080963,-0.971039c0.018349,-0.507912 0.045883,-1.135658 0.060997,-1.394745l0.028061,-0.471214l-3.47068,-0.023743l-3.470673,-0.023216l-0.02375,-3.081512c-0.012962,-1.694321 -0.053436,-3.079353 -0.090149,-3.077736c-0.036156,0.001625 -0.30928,0.083672 -0.606155,0.182983m49.208641,0.029686c-0.296875,0.112274 -0.620728,0.234802 -0.719498,0.272041c-0.189468,0.070709 -0.775101,0.294708 -1.079529,0.412918c-0.099319,0.038864 -0.402664,0.168953 -0.674713,0.290398c-0.272583,0.120903 -0.668228,0.29525 -0.880356,0.38755c-0.231552,0.100937 -0.402122,0.24073 -0.426949,0.351379c-0.070709,0.310371 -0.22184,2.464027 -0.223999,3.188393c-0.003242,0.947823 -0.09716,1.049835 -1.03257,1.123245c-0.396187,0.030769 -1.048759,0.082047 -1.450882,0.11335l-0.731384,0.05722l-0.055054,0.459869c-0.030228,0.252609 -0.055595,0.853371 -0.056137,1.334297l-0.000534,0.874954l1.551819,0.024834l1.551819,0.024834l0,6.79184l0,6.791847l0.263947,0.494965c1.193954,2.236244 3.531128,2.848877 8.191986,2.146645c1.316483,-0.198097 3.444778,-0.736778 3.801025,-0.961861c0.119827,-0.075577 0.050735,-0.911667 -0.168961,-2.048943l-0.106323,-0.550018l-0.278519,0.071243c-0.15329,0.039406 -0.521408,0.11821 -0.818283,0.174881c-0.296875,0.056679 -0.707092,0.139801 -0.911667,0.184601c-0.593201,0.129547 -2.458084,0.272049 -2.812698,0.214828c-0.360016,-0.058296 -1.108673,-0.308746 -1.178314,-0.394569c-0.024826,-0.030769 -0.155991,-0.125763 -0.291458,-0.212128c-0.135483,-0.086357 -0.368134,-0.36866 -0.516556,-0.627739l-0.270432,-0.470673l0.022141,-5.80246l0.021576,-5.80246l3.418869,-0.01944l3.41832,-0.019424l0.105804,-1.015297c0.057739,-0.558121 0.10849,-1.207451 0.112274,-1.442245l0.007019,-0.427498l-3.440994,-0.001625c-1.89296,-0.000534 -3.49498,-0.035072 -3.560287,-0.076645c-0.097153,-0.061531 -0.105804,-0.515472 -0.045883,-2.449982c0.12793,-4.131889 0.194855,-3.815048 -0.734619,-3.463127m-115.869452,5.50235c-1.183162,0.15168 -2.314507,0.419403 -2.514219,0.594284c-0.04696,0.041016 -0.148436,0.075569 -0.225081,0.076645c-0.184599,0.002693 -2.21465,1.021774 -2.343114,1.176682c-0.024829,0.029694 -0.224542,0.166252 -0.443686,0.303345c-0.219145,0.13765 -0.501981,0.345993 -0.628825,0.463669c-0.126844,0.117119 -0.262325,0.213196 -0.301188,0.213196c-0.038862,0 -0.201332,0.118752 -0.360561,0.263412c-0.159771,0.144653 -0.391329,0.345985 -0.514935,0.448006c-0.57215,0.470665 -0.585644,0.357857 0.157611,1.287872c1.088163,1.3629 1.207451,1.478416 1.296513,1.253868c0.053436,-0.133316 1.683522,-1.329437 2.05434,-1.507019c0.196474,-0.094452 0.358402,-0.19593 0.358943,-0.225624c0.00054,-0.029686 0.172724,-0.126297 0.383232,-0.214821c0.210507,-0.087982 0.554338,-0.23642 0.764305,-0.328712c2.966541,-1.303535 5.187128,0.37513 5.193605,3.926239l0.002159,1.169121l-2.069454,0.059372c-1.137821,0.032394 -2.372261,0.106339 -2.743618,0.164635c-0.370818,0.058296 -0.816663,0.125763 -0.989387,0.148979c-0.173265,0.023743 -0.396187,0.075562 -0.494964,0.115509c-0.098777,0.039398 -0.402664,0.144119 -0.674705,0.232094c-0.475532,0.153831 -1.796333,0.74865 -1.889173,0.851204c-0.024829,0.026993 -0.20727,0.154381 -0.405903,0.283379c-0.877115,0.567833 -1.89457,1.713211 -2.317205,2.609756c-1.681364,3.565681 2.016017,7.269005 6.411313,6.422112c1.230122,-0.237495 1.85193,-0.417244 2.654017,-0.767548c0.098778,-0.043716 0.382154,-0.166779 0.629906,-0.273651c0.247211,-0.107422 0.737316,-0.331963 1.088703,-0.499832c0.854984,-0.407516 0.858763,-0.406975 1.448725,0.39241c0.954842,1.293274 0.93919,1.281944 1.746675,1.281944c1.640343,0 5.198465,-0.487953 5.350138,-0.733536c0.026447,-0.043182 0.048038,-0.593742 0.046961,-1.22419l-0.00108,-1.14592l-1.427135,0.027527l-1.427675,0.028069l-0.108494,-0.238579c-0.083122,-0.181892 -0.093918,-1.421196 -0.046959,-5.266464c0.046421,-3.796165 0.034006,-5.188751 -0.049118,-5.682098c-0.146276,-0.869553 -0.533827,-2.102379 -0.790754,-2.51799c-0.114429,-0.184608 -0.207809,-0.377304 -0.207809,-0.427498c0,-0.050735 -0.040482,-0.091759 -0.0896,-0.091759c-0.049658,0 -0.090141,-0.039948 -0.090141,-0.089058c0,-0.506302 -2.434874,-2.339882 -3.10742,-2.339882c-0.073406,0 -0.204029,-0.037788 -0.289852,-0.083664c-0.173264,-0.0923 -1.557219,-0.283371 -1.910225,-0.263939c-0.123606,0.007011 -0.629904,0.064766 -1.124866,0.128456m27.781637,-0.01619c-0.404282,0.055054 -0.765385,0.130623 -0.80209,0.16787c-0.036163,0.037239 -0.139259,0.067467 -0.227783,0.067467c-0.390247,0 -2.674522,1.141602 -4.291656,2.144485c-1.047684,0.649872 -1.073051,0.640701 -1.272766,-0.4804c-0.061531,-0.345978 -0.147892,-0.747025 -0.191616,-0.890602c-0.043716,-0.143036 -0.079884,-0.368118 -0.079884,-0.499817c0,-0.456108 -0.157608,-0.548943 -0.764305,-0.44693c-0.296867,0.04966 -0.762684,0.12738 -1.034725,0.172188c-0.272041,0.044792 -0.838795,0.147896 -1.25927,0.228317c-0.421017,0.080429 -1.00774,0.181358 -1.304607,0.223999c-0.296871,0.042641 -1.017996,0.161392 -1.60256,0.262863c-0.585104,0.102013 -1.16157,0.185684 -1.28194,0.185684l-0.219143,0l0,1.169121c0,0.643402 0,1.199898 -0.00054,1.237144c0,0.037247 0.655813,0.079346 1.457363,0.093384c0.873877,0.015648 1.504322,0.065308 1.57449,0.123596c0.168945,0.140343 0.173264,12.871742 0.00486,13.009392c-0.062077,0.050735 -0.602379,0.106331 -1.200436,0.123604c-1.44117,0.042107 -1.386114,-0.015114 -1.386114,1.430374c0,1.005035 0.019432,1.155632 0.150595,1.181c0.082584,0.016197 2.379818,0.008644 5.105083,-0.015648l4.955032,-0.045349l0.024826,-1.281937l0.024834,-1.281937l-1.30677,0c-1.179924,0 -1.307846,-0.015114 -1.31918,-0.157066c-0.100937,-1.278168 0.055595,-10.796356 0.180279,-10.961525c0.13818,-0.183517 0.558117,-0.497116 0.956463,-0.715187c0.099316,-0.05397 0.342209,-0.199173 0.539761,-0.322243c0.420479,-0.261238 1.359665,-0.708168 1.488129,-0.708168c0.049118,0 0.159233,-0.03508 0.245052,-0.077721c1.696476,-0.846352 3.635849,-0.289856 4.35104,1.247398c0.375134,0.80748 0.37405,0.788589 0.414536,6.072342c0.046959,6.195938 0.177586,5.593567 -1.222565,5.635124c-0.592659,0.017815 -1.103813,0.058296 -1.135662,0.090141c-0.045341,0.045341 -0.073952,1.42498 -0.050198,2.415985c0.004314,0.183517 9.803726,0.159225 9.816681,-0.023758c0.008636,-0.120361 0.006477,-2.316658 -0.002697,-2.427856c-0.002701,-0.036697 -0.55056,-0.067467 -1.216629,-0.067467c-1.31702,0 -1.497841,-0.075569 -1.360203,-0.571068c0.147354,-0.530586 0.164627,-10.626862 0.019432,-11.317764c-0.417778,-1.987411 -2.220592,-4.298676 -3.671474,-4.7062c-0.114971,-0.032387 -0.289314,-0.093384 -0.38863,-0.134941c-0.613712,-0.260712 -1.523212,-0.310364 -2.715012,-0.147896m20.752296,0.017815c-2.979496,0.331955 -4.959354,1.257645 -6.174362,2.886658c-0.141415,0.189453 -0.277435,0.364876 -0.303345,0.389709c-0.09446,0.091217 -0.519249,1.047676 -0.639618,1.439003c-0.181362,0.589424 -0.154373,2.261612 0.045879,2.83268c0.680645,1.945313 2.274563,3.022133 6.126858,4.138908c2.11425,0.612633 2.939552,1.040123 3.305511,1.712135c1.291115,2.373337 -1.397987,4.515121 -4.727253,3.764847c-1.657612,-0.372971 -2.401405,-1.050377 -2.401405,-2.185501c0,-0.104172 -0.035625,-0.260162 -0.079346,-0.345993c-0.04372,-0.085815 -0.148434,-0.439362 -0.232639,-0.785889c-0.084743,-0.346527 -0.167866,-0.643936 -0.185135,-0.661751c-0.036167,-0.036163 -1.542107,0.224541 -2.032211,0.352463c-0.179203,0.046417 -0.43721,0.084198 -0.57431,0.084198c-0.241814,0 -0.247211,0.010803 -0.191074,0.382706c0.090679,0.606148 0.327633,2.469414 0.419392,3.306053c0.229942,2.092117 0.126305,1.838966 0.836636,2.042999c3.215374,0.923531 8.695591,0.671463 10.854649,-0.499283c0.857147,-0.464737 2.426239,-1.826561 2.428398,-2.10778c0.000542,-0.038322 0.099854,-0.227234 0.221848,-0.419937c0.896004,-1.419571 0.881966,-3.965645 -0.029694,-5.373337c-0.846886,-1.30732 -2.023575,-1.9356 -5.544449,-2.959526c-0.445305,-0.129547 -0.890617,-0.267723 -0.989388,-0.306595c-0.098778,-0.039398 -0.412918,-0.145195 -0.697376,-0.235336c-0.284454,-0.090683 -0.517094,-0.196472 -0.517094,-0.235878c0,-0.038857 -0.062073,-0.071251 -0.13818,-0.071251c-0.327095,0 -0.97913,-0.538673 -1.219864,-1.00827c-0.273663,-0.533287 -0.118752,-2.140167 0.206184,-2.140167c0.039948,0 0.07233,-0.057747 0.07233,-0.127922c0,-0.346527 1.100578,-1.023933 1.979317,-1.217705c0.89061,-0.196472 2.233002,-0.056137 2.915802,0.30497c0.578087,0.306046 0.747574,0.642853 1.041206,2.075394c0.180817,0.880882 0.388092,1.353722 0.548935,1.253868c0.043182,-0.026459 0.372437,-0.086365 0.73246,-0.133324c0.359482,-0.047501 0.795616,-0.107956 0.96888,-0.134941c0.172722,-0.026993 0.446381,-0.069092 0.607231,-0.093918l0.292015,-0.045341l0,-0.54084c0,-0.297409 -0.039948,-0.811806 -0.089066,-1.143219c-0.048576,-0.330879 -0.133324,-1.067657 -0.188377,-1.636574c-0.208885,-2.170387 -0.135475,-1.995499 -0.918137,-2.188194c-1.929657,-0.47554 -3.729225,-0.591042 -5.731209,-0.368118m36.838867,-0.052361c-0.09877,0.042641 -0.357323,0.080429 -0.574303,0.083664c-0.216988,0.003235 -0.54084,0.043716 -0.719513,0.0896c-0.179199,0.045883 -0.649338,0.130081 -1.044975,0.18676c-0.396187,0.057213 -0.982918,0.143044 -1.304611,0.190536c-0.321693,0.048035 -0.867943,0.123604 -1.21447,0.167862c-0.942429,0.120369 -2.491547,0.351387 -2.721489,0.406448c-0.197556,0.046959 -0.202415,0.077721 -0.202415,1.25927c0,1.42659 -0.192146,1.271675 1.664642,1.337532c0.692513,0.024826 1.329971,0.072334 1.416878,0.105255c0.204567,0.078796 0.248833,12.808052 0.0448,12.976456c-0.062614,0.051819 -0.67363,0.103096 -1.372086,0.116043c-0.692513,0.012421 -1.309998,0.060997 -1.371529,0.108498c-0.136566,0.105255 -0.160858,2.363091 -0.026459,2.446205c0.140877,0.086914 10.470345,0.052361 10.524857,-0.035622c0.026993,-0.043716 0.04911,-0.620186 0.04911,-1.280312l0,-1.200432l-1.394203,-0.045349l-1.394203,-0.0448l-0.023216,-7.526466c-0.012413,-4.139984 0.011871,-7.904839 0.053978,-8.366333c0.0923,-1.006119 0.032379,-1.156715 -0.390793,-0.974815m81.308388,0.034546c-0.404831,0.055054 -0.76593,0.130623 -0.802094,0.16787c-0.036697,0.037239 -0.130615,0.067467 -0.208878,0.067467c-0.417252,-0.001076 -2.949814,1.265205 -4.439026,2.219505c-0.83609,0.535454 -0.98291,0.508995 -1.083313,-0.195389c-0.028061,-0.198097 -0.116592,-0.643402 -0.195923,-0.989388c-0.07988,-0.346535 -0.168945,-0.782661 -0.19809,-0.96888l-0.052917,-0.338966l-0.459869,0.05397c-0.253143,0.029144 -0.561356,0.08744 -0.685486,0.129005c-0.123611,0.041565 -0.406982,0.098236 -0.629379,0.126839c-0.222916,0.028618 -0.749191,0.116058 -1.169662,0.194321c-0.420471,0.078262 -1.007736,0.177582 -1.304611,0.220222c-0.296875,0.042641 -1.01799,0.161392 -1.602554,0.262863c-0.584564,0.102013 -1.156189,0.185684 -1.270599,0.185684c-0.204575,0 -0.4561,2.135841 -0.284454,2.413826c0.02861,0.046417 0.707626,0.090134 1.509705,0.097694c0.89386,0.008636 1.503799,0.051819 1.575577,0.111725c0.168945,0.140343 0.173798,12.872292 0.004868,13.008308c-0.061539,0.050201 -0.626678,0.107414 -1.255508,0.127922c-0.629349,0.019974 -1.162094,0.055061 -1.184235,0.077194c-0.066391,0.067467 -0.106339,2.372253 -0.042633,2.469948c0.118744,0.181374 10.042831,0.069641 10.094116,-0.113884c0.024292,-0.085823 0.057205,-0.661751 0.07341,-1.280319l0.029144,-1.124321l-1.253326,-0.025375c-0.819916,-0.016197 -1.299225,-0.063148 -1.386124,-0.134941c-0.273651,-0.226158 -0.03508,-11.018196 0.245605,-11.11158c0.056671,-0.01889 0.154373,-0.085815 0.217514,-0.148972c0.34761,-0.34761 2.417603,-1.48867 2.700439,-1.48867c0.063156,0 0.15329,-0.036163 0.200256,-0.07988c0.155457,-0.145203 1.257095,-0.369736 1.812531,-0.369736c1.3181,0 2.119659,0.586182 2.705292,1.978767c0.301727,0.717888 0.457718,10.793114 0.172729,11.167175c-0.089066,0.117126 -0.32225,0.154366 -1.144318,0.181358c-1.345078,0.0448 -1.257095,-0.052353 -1.257095,1.38665l0,1.209076l4.850861,0c2.667496,0 4.914536,-0.024834 4.992813,-0.05452c0.120361,-0.046425 0.141953,-0.247757 0.141953,-1.302452l0,-1.247391l-1.281937,-0.024826l-1.281937,-0.024834l0,-5.847252c0,-6.094475 0.00647,-5.967094 -0.361115,-7.01693c-0.582932,-1.665176 -1.989563,-3.089615 -3.776718,-3.823692c-0.630997,-0.259087 -1.527527,-0.307121 -2.715012,-0.145195m20.616821,0.01619c-1.183182,0.15168 -2.314514,0.419403 -2.514236,0.594284c-0.046951,0.041016 -0.147339,0.074486 -0.223465,0.074486c-0.126831,0 -1.071426,0.434509 -1.175598,0.540848c-0.024826,0.025368 -0.196472,0.125221 -0.382156,0.222916c-0.185669,0.09716 -0.337341,0.208351 -0.337341,0.246674c0,0.037781 -0.051819,0.069084 -0.115509,0.069084c-0.169495,0 -1.417969,1.225815 -1.833038,1.799583c-1.731018,2.393303 -1.807678,5.571976 -0.188919,7.844925c0.488495,0.687111 1.491364,1.690529 1.688385,1.690529c0.049118,0 0.089066,0.034554 0.089066,0.076111c0,0.041565 0.141953,0.152214 0.315201,0.245049c0.173279,0.093384 0.314697,0.200798 0.314697,0.23912c0,0.038322 0.057205,0.069633 0.12738,0.069633c0.187851,0 0.671478,0.294708 0.729218,0.443687c0.077194,0.199707 -0.286072,0.461494 -2.81163,2.030045c-1.04715,0.650414 -1.202057,1.033653 -0.87442,2.160141c0.296341,1.020691 1.078995,1.706192 2.627029,2.30101c0.424789,0.163002 0.23642,0.389709 -1.099487,1.327278c-0.716278,0.502525 -1.343475,0.913818 -1.394211,0.913818c-0.051285,0 -0.092834,0.031853 -0.092834,0.070709c0,0.038864 -0.13118,0.14682 -0.292023,0.240196c-1.758011,1.020691 -2.274567,2.171471 -1.679199,3.738403c0.103104,0.2715 0.208878,0.564598 0.235336,0.650948c0.026443,0.086914 0.083664,0.157616 0.12738,0.157616c0.043716,0 0.079346,0.050735 0.079346,0.113358c0,0.230469 1.218781,1.288414 1.874603,1.627388c1.317566,0.681175 2.404099,0.952133 4.917252,1.226334c1.97876,0.215912 5.283203,-0.058289 7.062256,-0.586182c0.272034,-0.080429 0.595901,-0.166779 0.719513,-0.191071c0.123611,-0.0243 0.30603,-0.076653 0.404816,-0.116592c0.098785,-0.03994 0.362183,-0.14196 0.584579,-0.2267c0.612091,-0.233177 2.222733,-1.044449 2.404083,-1.210693c0.087997,-0.080421 0.320633,-0.26664 0.517105,-0.413452c0.62883,-0.471214 1.487045,-1.422287 1.487045,-1.648445c0,-0.048576 0.030228,-0.102013 0.067474,-0.118202c0.076096,-0.034004 0.476608,-0.857155 0.649338,-1.334297c0.307663,-0.851212 0.212662,-2.879639 -0.174881,-3.728691c-0.297958,-0.651489 -2.002518,-2.119118 -2.461868,-2.119118c-0.065842,0 -0.148972,-0.029678 -0.185135,-0.065842c-0.364868,-0.364883 -2.91095,-0.698456 -6.396194,-0.837715c-3.853378,-0.154373 -4.569641,-0.286079 -4.926437,-0.907349c-0.295776,-0.516006 -0.155975,-0.946198 0.543015,-1.671104c0.868484,-0.899788 0.928925,-0.92569 2.153641,-0.92569c1.527008,0 3.195419,-0.300652 4.344025,-0.782661c1.19342,-0.5009 2.168777,-1.204216 2.937408,-2.116951c0.204559,-0.243973 0.840942,-1.213928 0.840942,-1.28302c0,-0.022667 0.094986,-0.254227 0.21106,-0.515472c0.957535,-2.15258 0.761597,-5.013329 -0.438843,-6.407539c-0.452316,-0.524651 -0.395645,-0.541924 1.879456,-0.568909c1.81955,-0.021057 2.048416,-0.03994 2.000381,-0.164627c-0.029709,-0.077187 -0.054535,-0.673622 -0.055069,-1.325119c-0.001617,-1.497841 0.036163,-1.442245 -0.906799,-1.329437c-0.416153,0.049652 -1.768265,0.119286 -3.005402,0.154366c-2.89151,0.081505 -2.680466,0.084213 -3.463135,-0.042099c-2.091034,-0.336807 -3.547867,-0.405899 -4.903198,-0.23156m-55.955154,0.358948c-1.286804,0.060989 -2.786255,0.115509 -3.333038,0.120361c-1.268448,0.012421 -1.210144,-0.058296 -1.210144,1.467079l0,1.241463l1.163177,0c1.116226,0 1.166443,0.008095 1.225815,0.195938c0.034012,0.107948 0.033463,2.526627 -0.001617,5.374962c-0.072327,5.827286 -0.058838,6.004868 0.557022,7.293282c0.90033,1.884857 2.494797,3.279602 4.307861,3.768631c0.784286,0.211594 2.513153,0.095001 3.587814,-0.241806c0.64502,-0.201881 3.049118,-1.392593 3.783737,-1.874062c0.316833,-0.207817 0.397278,-0.143585 1.050919,0.835014c0.325485,0.487404 0.715179,1.00341 0.866318,1.146996l0.274734,0.260704l1.015305,-0.056671c1.583664,-0.088524 3.202408,-0.285538 4.344025,-0.52951l0.539764,-0.115509l0.02536,-1.295975l0.024826,-1.295975l-1.349945,0.060997c-1.303528,0.05883 -1.35643,0.05452 -1.543716,-0.132782l-0.193787,-0.193779l0.034012,-8.017113l0.034546,-8.017105l-3.688202,0.031303c-2.028427,0.017273 -3.702774,0.045341 -3.720062,0.061531c-0.017273,0.016739 -0.053436,0.615875 -0.080414,1.331062l-0.048584,1.300293l1.159958,0.059914c0.638,0.032921 1.220398,0.068008 1.294876,0.078262c0.117691,0.016731 0.13765,0.741096 0.158157,5.798683l0.02269,5.780334l-0.697388,0.4561c-2.900696,1.894562 -5.387924,1.716446 -6.420486,-0.458801c-0.531128,-1.118935 -0.575394,-2.000908 -0.440994,-8.804626c0.116592,-5.926613 0.123077,-5.790581 -0.268799,-5.753342c-0.074493,0.007019 -1.187485,0.062614 -2.47374,0.124146m58.204346,2.04084c1.693222,0.490112 2.602203,2.690186 2.300461,5.568741c-0.057755,0.552719 -0.14357,1.076836 -0.190536,1.164818c-0.047485,0.087975 -0.085815,0.228317 -0.085815,0.312515c0,0.330338 -0.656906,1.484894 -1.087082,1.910225c-1.663559,1.646286 -4.422836,1.225266 -5.487778,-0.836632c-0.71843,-1.390427 -0.839325,-3.792915 -0.28067,-5.577377c0.659042,-2.103462 2.678833,-3.166252 4.831421,-2.54229m-186.69239,9.100418c0.170565,0.254768 0.075565,3.619659 -0.107952,3.853378c-0.516556,0.656349 -2.85589,1.508095 -4.141607,1.508095c-3.880362,0 -3.652581,-4.490288 0.270421,-5.328545c1.047142,-0.223999 3.83664,-0.247208 3.979138,-0.032928m185.882744,10.225281c3.711411,0.24614 4.101654,0.308205 5.082947,0.806953c1.159424,0.589966 1.168045,2.722565 0.015121,3.925156c-0.41832,0.437218 -0.800476,0.749733 -0.915451,0.749733c-0.049118,0 -0.089584,0.032928 -0.089584,0.072868c0,0.039948 -0.171646,0.143578 -0.382156,0.229942c-0.210526,0.086899 -0.443161,0.188911 -0.517105,0.227234c-0.147888,0.076653 -1.030945,0.300659 -1.78392,0.452866c-1.872971,0.37838 -6.042648,-0.242889 -6.042648,-0.900322c0,-0.045341 -0.045334,-0.082588 -0.100922,-0.082588c-0.146286,0 -0.598068,-0.528427 -0.802643,-0.939186c-0.2742,-0.550552 -0.165161,-1.898354 0.179214,-2.209251c0.027527,-0.024826 0.110641,-0.163551 0.184586,-0.308212c0.073944,-0.144646 0.564606,-0.707619 1.089249,-1.251167l0.954849,-0.988304l0.934311,0.065308c0.514404,0.036163 1.501633,0.103096 2.194153,0.148972" id="path3"/>
  </g>
 </g>
</svg>