<svg width="230" height="98" viewBox="0 0 230 98" fill="none" xmlns="http://www.w3.org/2000/svg">
<path d="M0 3.5C0 1.567 1.567 0 3.5 0H52.5C62.165 0 70 7.83502 70 17.5V94.5C70 96.433 68.433 98 66.5 98H3.5C1.567 98 0 96.433 0 94.5V3.5Z" fill="#FF7F5F"/>
<path d="M11.65 33C11.54 33 11.455 32.97 11.395 32.91C11.335 32.84 11.305 32.755 11.305 32.655V22.86C11.305 22.75 11.335 22.665 11.395 22.605C11.455 22.535 11.54 22.5 11.65 22.5H15.76C16.51 22.5 17.12 22.625 17.59 22.875C18.07 23.115 18.42 23.445 18.64 23.865C18.87 24.285 18.985 24.755 18.985 25.275C18.985 25.685 18.915 26.04 18.775 26.34C18.645 26.63 18.48 26.87 18.28 27.06C18.08 27.24 17.885 27.38 17.695 27.48C18.085 27.67 18.43 27.98 18.73 28.41C19.04 28.84 19.195 29.36 19.195 29.97C19.195 30.52 19.07 31.025 18.82 31.485C18.57 31.945 18.195 32.315 17.695 32.595C17.205 32.865 16.595 33 15.865 33H11.65ZM12.775 31.785H15.67C16.32 31.785 16.82 31.61 17.17 31.26C17.52 30.91 17.695 30.48 17.695 29.97C17.695 29.44 17.52 29.005 17.17 28.665C16.82 28.315 16.32 28.14 15.67 28.14H12.775V31.785ZM12.775 26.94H15.535C16.175 26.94 16.66 26.795 16.99 26.505C17.32 26.205 17.485 25.8 17.485 25.29C17.485 24.78 17.32 24.39 16.99 24.12C16.66 23.85 16.175 23.715 15.535 23.715H12.775V26.94ZM24.2345 33.15C23.2045 33.15 22.3845 32.835 21.7745 32.205C21.1645 31.565 20.8295 30.695 20.7695 29.595C20.7595 29.465 20.7545 29.3 20.7545 29.1C20.7545 28.89 20.7595 28.72 20.7695 28.59C20.8095 27.88 20.9745 27.26 21.2645 26.73C21.5545 26.19 21.9495 25.775 22.4495 25.485C22.9595 25.195 23.5545 25.05 24.2345 25.05C24.9945 25.05 25.6295 25.21 26.1395 25.53C26.6595 25.85 27.0545 26.305 27.3245 26.895C27.5945 27.485 27.7295 28.175 27.7295 28.965V29.22C27.7295 29.33 27.6945 29.415 27.6245 29.475C27.5645 29.535 27.4845 29.565 27.3845 29.565H22.1945C22.1945 29.575 22.1945 29.595 22.1945 29.625C22.1945 29.655 22.1945 29.68 22.1945 29.7C22.2145 30.11 22.3045 30.495 22.4645 30.855C22.6245 31.205 22.8545 31.49 23.1545 31.71C23.4545 31.93 23.8145 32.04 24.2345 32.04C24.5945 32.04 24.8945 31.985 25.1345 31.875C25.3745 31.765 25.5695 31.645 25.7195 31.515C25.8695 31.375 25.9695 31.27 26.0195 31.2C26.1095 31.07 26.1795 30.995 26.2295 30.975C26.2795 30.945 26.3595 30.93 26.4695 30.93H27.1895C27.2895 30.93 27.3695 30.96 27.4295 31.02C27.4995 31.07 27.5295 31.145 27.5195 31.245C27.5095 31.395 27.4295 31.58 27.2795 31.8C27.1295 32.01 26.9145 32.22 26.6345 32.43C26.3545 32.64 26.0145 32.815 25.6145 32.955C25.2145 33.085 24.7545 33.15 24.2345 33.15ZM22.1945 28.53H26.3045V28.485C26.3045 28.035 26.2195 27.635 26.0495 27.285C25.8895 26.935 25.6545 26.66 25.3445 26.46C25.0345 26.25 24.6645 26.145 24.2345 26.145C23.8045 26.145 23.4345 26.25 23.1245 26.46C22.8245 26.66 22.5945 26.935 22.4345 27.285C22.2745 27.635 22.1945 28.035 22.1945 28.485V28.53ZM29.8681 33C29.7681 33 29.6831 32.97 29.6131 32.91C29.5531 32.84 29.5231 32.755 29.5231 32.655V25.545C29.5231 25.445 29.5531 25.365 29.6131 25.305C29.6831 25.235 29.7681 25.2 29.8681 25.2H30.5881C30.6881 25.2 30.7681 25.235 30.8281 25.305C30.8881 25.365 30.9181 25.445 30.9181 25.545V32.655C30.9181 32.755 30.8881 32.84 30.8281 32.91C30.7681 32.97 30.6881 33 30.5881 33H29.8681ZM29.7481 23.745C29.6481 23.745 29.5631 23.715 29.4931 23.655C29.4331 23.585 29.4031 23.5 29.4031 23.4V22.59C29.4031 22.49 29.4331 22.41 29.4931 22.35C29.5631 22.28 29.6481 22.245 29.7481 22.245H30.6931C30.7931 22.245 30.8731 22.28 30.9331 22.35C31.0031 22.41 31.0381 22.49 31.0381 22.59V23.4C31.0381 23.5 31.0031 23.585 30.9331 23.655C30.8731 23.715 30.7931 23.745 30.6931 23.745H29.7481ZM36.2009 33C35.6409 33 35.1859 32.895 34.8359 32.685C34.4859 32.465 34.2309 32.16 34.0709 31.77C33.9109 31.37 33.8309 30.9 33.8309 30.36V26.4H32.6609C32.5609 26.4 32.4759 26.37 32.4059 26.31C32.3459 26.24 32.3159 26.155 32.3159 26.055V25.545C32.3159 25.445 32.3459 25.365 32.4059 25.305C32.4759 25.235 32.5609 25.2 32.6609 25.2H33.8309V22.695C33.8309 22.595 33.8609 22.515 33.9209 22.455C33.9909 22.385 34.0759 22.35 34.1759 22.35H34.8809C34.9809 22.35 35.0609 22.385 35.1209 22.455C35.1909 22.515 35.2259 22.595 35.2259 22.695V25.2H37.0859C37.1859 25.2 37.2659 25.235 37.3259 25.305C37.3959 25.365 37.4309 25.445 37.4309 25.545V26.055C37.4309 26.155 37.3959 26.24 37.3259 26.31C37.2659 26.37 37.1859 26.4 37.0859 26.4H35.2259V30.255C35.2259 30.725 35.3059 31.095 35.4659 31.365C35.6259 31.635 35.9109 31.77 36.3209 31.77H37.2359C37.3359 31.77 37.4159 31.805 37.4759 31.875C37.5459 31.935 37.5809 32.015 37.5809 32.115V32.655C37.5809 32.755 37.5459 32.84 37.4759 32.91C37.4159 32.97 37.3359 33 37.2359 33H36.2009ZM39.3603 33C39.2603 33 39.1753 32.97 39.1053 32.91C39.0453 32.84 39.0153 32.755 39.0153 32.655V25.56C39.0153 25.46 39.0453 25.375 39.1053 25.305C39.1753 25.235 39.2603 25.2 39.3603 25.2H40.0503C40.1503 25.2 40.2353 25.235 40.3053 25.305C40.3753 25.375 40.4103 25.46 40.4103 25.56V26.22C40.6103 25.88 40.8853 25.625 41.2353 25.455C41.5853 25.285 42.0053 25.2 42.4953 25.2H43.0953C43.1953 25.2 43.2753 25.235 43.3353 25.305C43.3953 25.365 43.4253 25.445 43.4253 25.545V26.16C43.4253 26.26 43.3953 26.34 43.3353 26.4C43.2753 26.46 43.1953 26.49 43.0953 26.49H42.1953C41.6553 26.49 41.2303 26.65 40.9203 26.97C40.6103 27.28 40.4553 27.705 40.4553 28.245V32.655C40.4553 32.755 40.4203 32.84 40.3503 32.91C40.2803 32.97 40.1953 33 40.0953 33H39.3603ZM46.7713 33.15C46.2713 33.15 45.8163 33.05 45.4063 32.85C44.9963 32.65 44.6663 32.38 44.4163 32.04C44.1663 31.7 44.0413 31.315 44.0413 30.885C44.0413 30.195 44.3213 29.645 44.8813 29.235C45.4413 28.825 46.1713 28.555 47.0713 28.425L49.3063 28.11V27.675C49.3063 27.195 49.1663 26.82 48.8863 26.55C48.6163 26.28 48.1713 26.145 47.5513 26.145C47.1013 26.145 46.7363 26.235 46.4563 26.415C46.1863 26.595 45.9963 26.825 45.8863 27.105C45.8263 27.255 45.7213 27.33 45.5713 27.33H44.8963C44.7863 27.33 44.7013 27.3 44.6413 27.24C44.5913 27.17 44.5663 27.09 44.5663 27C44.5663 26.85 44.6213 26.665 44.7313 26.445C44.8513 26.225 45.0313 26.01 45.2713 25.8C45.5113 25.59 45.8163 25.415 46.1863 25.275C46.5663 25.125 47.0263 25.05 47.5663 25.05C48.1663 25.05 48.6713 25.13 49.0813 25.29C49.4913 25.44 49.8113 25.645 50.0413 25.905C50.2813 26.165 50.4513 26.46 50.5513 26.79C50.6613 27.12 50.7163 27.455 50.7163 27.795V32.655C50.7163 32.755 50.6813 32.84 50.6113 32.91C50.5513 32.97 50.4713 33 50.3713 33H49.6813C49.5713 33 49.4863 32.97 49.4263 32.91C49.3663 32.84 49.3363 32.755 49.3363 32.655V32.01C49.2063 32.19 49.0313 32.37 48.8113 32.55C48.5913 32.72 48.3163 32.865 47.9863 32.985C47.6563 33.095 47.2513 33.15 46.7713 33.15ZM47.0863 32.025C47.4963 32.025 47.8713 31.94 48.2113 31.77C48.5513 31.59 48.8163 31.315 49.0063 30.945C49.2063 30.575 49.3063 30.11 49.3063 29.55V29.13L47.5663 29.385C46.8563 29.485 46.3213 29.655 45.9613 29.895C45.6013 30.125 45.4213 30.42 45.4213 30.78C45.4213 31.06 45.5013 31.295 45.6613 31.485C45.8313 31.665 46.0413 31.8 46.2913 31.89C46.5513 31.98 46.8163 32.025 47.0863 32.025ZM56.0677 36.3C55.3877 36.3 54.8277 36.21 54.3877 36.03C53.9577 35.85 53.6177 35.63 53.3677 35.37C53.1277 35.12 52.9527 34.865 52.8427 34.605C52.7427 34.355 52.6877 34.155 52.6777 34.005C52.6677 33.905 52.6977 33.82 52.7677 33.75C52.8477 33.68 52.9327 33.645 53.0227 33.645H53.7427C53.8327 33.645 53.9077 33.665 53.9677 33.705C54.0277 33.745 54.0777 33.83 54.1177 33.96C54.1777 34.11 54.2677 34.275 54.3877 34.455C54.5077 34.645 54.6927 34.805 54.9427 34.935C55.1927 35.075 55.5427 35.145 55.9927 35.145C56.4627 35.145 56.8577 35.08 57.1777 34.95C57.4977 34.83 57.7377 34.61 57.8977 34.29C58.0677 33.98 58.1527 33.55 58.1527 33V31.98C57.9127 32.29 57.5977 32.55 57.2077 32.76C56.8177 32.96 56.3277 33.06 55.7377 33.06C55.1777 33.06 54.6977 32.965 54.2977 32.775C53.8977 32.575 53.5677 32.31 53.3077 31.98C53.0577 31.64 52.8677 31.255 52.7377 30.825C52.6177 30.395 52.5477 29.945 52.5277 29.475C52.5177 29.195 52.5177 28.92 52.5277 28.65C52.5477 28.18 52.6177 27.73 52.7377 27.3C52.8677 26.87 53.0577 26.485 53.3077 26.145C53.5677 25.805 53.8977 25.54 54.2977 25.35C54.6977 25.15 55.1777 25.05 55.7377 25.05C56.3377 25.05 56.8327 25.165 57.2227 25.395C57.6227 25.615 57.9477 25.885 58.1977 26.205V25.56C58.1977 25.46 58.2277 25.375 58.2877 25.305C58.3577 25.235 58.4427 25.2 58.5427 25.2H59.2327C59.3327 25.2 59.4177 25.235 59.4877 25.305C59.5577 25.375 59.5927 25.46 59.5927 25.56V32.835C59.5927 33.505 59.4777 34.1 59.2477 34.62C59.0277 35.14 58.6577 35.55 58.1377 35.85C57.6277 36.15 56.9377 36.3 56.0677 36.3ZM56.0377 31.86C56.5377 31.86 56.9377 31.745 57.2377 31.515C57.5477 31.285 57.7727 30.995 57.9127 30.645C58.0627 30.295 58.1427 29.94 58.1527 29.58C58.1627 29.44 58.1677 29.27 58.1677 29.07C58.1677 28.86 58.1627 28.685 58.1527 28.545C58.1427 28.185 58.0627 27.83 57.9127 27.48C57.7727 27.13 57.5477 26.84 57.2377 26.61C56.9377 26.38 56.5377 26.265 56.0377 26.265C55.5377 26.265 55.1377 26.38 54.8377 26.61C54.5377 26.83 54.3227 27.125 54.1927 27.495C54.0627 27.855 53.9877 28.245 53.9677 28.665C53.9577 28.925 53.9577 29.19 53.9677 29.46C53.9877 29.88 54.0627 30.275 54.1927 30.645C54.3227 31.005 54.5377 31.3 54.8377 31.53C55.1377 31.75 55.5377 31.86 56.0377 31.86Z" fill="white"/>
<path d="M80 3.5C80 1.567 81.567 0 83.5 0H132.5C142.165 0 150 7.83502 150 17.5V94.5C150 96.433 148.433 98 146.5 98H83.5C81.567 98 80 96.433 80 94.5V3.5Z" fill="#FF7F5F"/>
<path d="M91.65 33C91.54 33 91.455 32.97 91.395 32.91C91.335 32.84 91.305 32.755 91.305 32.655V22.86C91.305 22.75 91.335 22.665 91.395 22.605C91.455 22.535 91.54 22.5 91.65 22.5H95.76C96.51 22.5 97.12 22.625 97.59 22.875C98.07 23.115 98.42 23.445 98.64 23.865C98.87 24.285 98.985 24.755 98.985 25.275C98.985 25.685 98.915 26.04 98.775 26.34C98.645 26.63 98.48 26.87 98.28 27.06C98.08 27.24 97.885 27.38 97.695 27.48C98.085 27.67 98.43 27.98 98.73 28.41C99.04 28.84 99.195 29.36 99.195 29.97C99.195 30.52 99.07 31.025 98.82 31.485C98.57 31.945 98.195 32.315 97.695 32.595C97.205 32.865 96.595 33 95.865 33H91.65ZM92.775 31.785H95.67C96.32 31.785 96.82 31.61 97.17 31.26C97.52 30.91 97.695 30.48 97.695 29.97C97.695 29.44 97.52 29.005 97.17 28.665C96.82 28.315 96.32 28.14 95.67 28.14H92.775V31.785ZM92.775 26.94H95.535C96.175 26.94 96.66 26.795 96.99 26.505C97.32 26.205 97.485 25.8 97.485 25.29C97.485 24.78 97.32 24.39 96.99 24.12C96.66 23.85 96.175 23.715 95.535 23.715H92.775V26.94ZM104.235 33.15C103.205 33.15 102.385 32.835 101.775 32.205C101.165 31.565 100.83 30.695 100.77 29.595C100.76 29.465 100.755 29.3 100.755 29.1C100.755 28.89 100.76 28.72 100.77 28.59C100.81 27.88 100.975 27.26 101.265 26.73C101.555 26.19 101.95 25.775 102.45 25.485C102.96 25.195 103.555 25.05 104.235 25.05C104.995 25.05 105.63 25.21 106.14 25.53C106.66 25.85 107.055 26.305 107.325 26.895C107.595 27.485 107.73 28.175 107.73 28.965V29.22C107.73 29.33 107.695 29.415 107.625 29.475C107.565 29.535 107.485 29.565 107.385 29.565H102.195C102.195 29.575 102.195 29.595 102.195 29.625C102.195 29.655 102.195 29.68 102.195 29.7C102.215 30.11 102.305 30.495 102.465 30.855C102.625 31.205 102.855 31.49 103.155 31.71C103.455 31.93 103.815 32.04 104.235 32.04C104.595 32.04 104.895 31.985 105.135 31.875C105.375 31.765 105.57 31.645 105.72 31.515C105.87 31.375 105.97 31.27 106.02 31.2C106.11 31.07 106.18 30.995 106.23 30.975C106.28 30.945 106.36 30.93 106.47 30.93H107.19C107.29 30.93 107.37 30.96 107.43 31.02C107.5 31.07 107.53 31.145 107.52 31.245C107.51 31.395 107.43 31.58 107.28 31.8C107.13 32.01 106.915 32.22 106.635 32.43C106.355 32.64 106.015 32.815 105.615 32.955C105.215 33.085 104.755 33.15 104.235 33.15ZM102.195 28.53H106.305V28.485C106.305 28.035 106.22 27.635 106.05 27.285C105.89 26.935 105.655 26.66 105.345 26.46C105.035 26.25 104.665 26.145 104.235 26.145C103.805 26.145 103.435 26.25 103.125 26.46C102.825 26.66 102.595 26.935 102.435 27.285C102.275 27.635 102.195 28.035 102.195 28.485V28.53ZM109.868 33C109.768 33 109.683 32.97 109.613 32.91C109.553 32.84 109.523 32.755 109.523 32.655V25.545C109.523 25.445 109.553 25.365 109.613 25.305C109.683 25.235 109.768 25.2 109.868 25.2H110.588C110.688 25.2 110.768 25.235 110.828 25.305C110.888 25.365 110.918 25.445 110.918 25.545V32.655C110.918 32.755 110.888 32.84 110.828 32.91C110.768 32.97 110.688 33 110.588 33H109.868ZM109.748 23.745C109.648 23.745 109.563 23.715 109.493 23.655C109.433 23.585 109.403 23.5 109.403 23.4V22.59C109.403 22.49 109.433 22.41 109.493 22.35C109.563 22.28 109.648 22.245 109.748 22.245H110.693C110.793 22.245 110.873 22.28 110.933 22.35C111.003 22.41 111.038 22.49 111.038 22.59V23.4C111.038 23.5 111.003 23.585 110.933 23.655C110.873 23.715 110.793 23.745 110.693 23.745H109.748ZM116.201 33C115.641 33 115.186 32.895 114.836 32.685C114.486 32.465 114.231 32.16 114.071 31.77C113.911 31.37 113.831 30.9 113.831 30.36V26.4H112.661C112.561 26.4 112.476 26.37 112.406 26.31C112.346 26.24 112.316 26.155 112.316 26.055V25.545C112.316 25.445 112.346 25.365 112.406 25.305C112.476 25.235 112.561 25.2 112.661 25.2H113.831V22.695C113.831 22.595 113.861 22.515 113.921 22.455C113.991 22.385 114.076 22.35 114.176 22.35H114.881C114.981 22.35 115.061 22.385 115.121 22.455C115.191 22.515 115.226 22.595 115.226 22.695V25.2H117.086C117.186 25.2 117.266 25.235 117.326 25.305C117.396 25.365 117.431 25.445 117.431 25.545V26.055C117.431 26.155 117.396 26.24 117.326 26.31C117.266 26.37 117.186 26.4 117.086 26.4H115.226V30.255C115.226 30.725 115.306 31.095 115.466 31.365C115.626 31.635 115.911 31.77 116.321 31.77H117.236C117.336 31.77 117.416 31.805 117.476 31.875C117.546 31.935 117.581 32.015 117.581 32.115V32.655C117.581 32.755 117.546 32.84 117.476 32.91C117.416 32.97 117.336 33 117.236 33H116.201ZM119.36 33C119.26 33 119.175 32.97 119.105 32.91C119.045 32.84 119.015 32.755 119.015 32.655V25.56C119.015 25.46 119.045 25.375 119.105 25.305C119.175 25.235 119.26 25.2 119.36 25.2H120.05C120.15 25.2 120.235 25.235 120.305 25.305C120.375 25.375 120.41 25.46 120.41 25.56V26.22C120.61 25.88 120.885 25.625 121.235 25.455C121.585 25.285 122.005 25.2 122.495 25.2H123.095C123.195 25.2 123.275 25.235 123.335 25.305C123.395 25.365 123.425 25.445 123.425 25.545V26.16C123.425 26.26 123.395 26.34 123.335 26.4C123.275 26.46 123.195 26.49 123.095 26.49H122.195C121.655 26.49 121.23 26.65 120.92 26.97C120.61 27.28 120.455 27.705 120.455 28.245V32.655C120.455 32.755 120.42 32.84 120.35 32.91C120.28 32.97 120.195 33 120.095 33H119.36ZM126.771 33.15C126.271 33.15 125.816 33.05 125.406 32.85C124.996 32.65 124.666 32.38 124.416 32.04C124.166 31.7 124.041 31.315 124.041 30.885C124.041 30.195 124.321 29.645 124.881 29.235C125.441 28.825 126.171 28.555 127.071 28.425L129.306 28.11V27.675C129.306 27.195 129.166 26.82 128.886 26.55C128.616 26.28 128.171 26.145 127.551 26.145C127.101 26.145 126.736 26.235 126.456 26.415C126.186 26.595 125.996 26.825 125.886 27.105C125.826 27.255 125.721 27.33 125.571 27.33H124.896C124.786 27.33 124.701 27.3 124.641 27.24C124.591 27.17 124.566 27.09 124.566 27C124.566 26.85 124.621 26.665 124.731 26.445C124.851 26.225 125.031 26.01 125.271 25.8C125.511 25.59 125.816 25.415 126.186 25.275C126.566 25.125 127.026 25.05 127.566 25.05C128.166 25.05 128.671 25.13 129.081 25.29C129.491 25.44 129.811 25.645 130.041 25.905C130.281 26.165 130.451 26.46 130.551 26.79C130.661 27.12 130.716 27.455 130.716 27.795V32.655C130.716 32.755 130.681 32.84 130.611 32.91C130.551 32.97 130.471 33 130.371 33H129.681C129.571 33 129.486 32.97 129.426 32.91C129.366 32.84 129.336 32.755 129.336 32.655V32.01C129.206 32.19 129.031 32.37 128.811 32.55C128.591 32.72 128.316 32.865 127.986 32.985C127.656 33.095 127.251 33.15 126.771 33.15ZM127.086 32.025C127.496 32.025 127.871 31.94 128.211 31.77C128.551 31.59 128.816 31.315 129.006 30.945C129.206 30.575 129.306 30.11 129.306 29.55V29.13L127.566 29.385C126.856 29.485 126.321 29.655 125.961 29.895C125.601 30.125 125.421 30.42 125.421 30.78C125.421 31.06 125.501 31.295 125.661 31.485C125.831 31.665 126.041 31.8 126.291 31.89C126.551 31.98 126.816 32.025 127.086 32.025ZM136.068 36.3C135.388 36.3 134.828 36.21 134.388 36.03C133.958 35.85 133.618 35.63 133.368 35.37C133.128 35.12 132.953 34.865 132.843 34.605C132.743 34.355 132.688 34.155 132.678 34.005C132.668 33.905 132.698 33.82 132.768 33.75C132.848 33.68 132.933 33.645 133.023 33.645H133.743C133.833 33.645 133.908 33.665 133.968 33.705C134.028 33.745 134.078 33.83 134.118 33.96C134.178 34.11 134.268 34.275 134.388 34.455C134.508 34.645 134.693 34.805 134.943 34.935C135.193 35.075 135.543 35.145 135.993 35.145C136.463 35.145 136.858 35.08 137.178 34.95C137.498 34.83 137.738 34.61 137.898 34.29C138.068 33.98 138.153 33.55 138.153 33V31.98C137.913 32.29 137.598 32.55 137.208 32.76C136.818 32.96 136.328 33.06 135.738 33.06C135.178 33.06 134.698 32.965 134.298 32.775C133.898 32.575 133.568 32.31 133.308 31.98C133.058 31.64 132.868 31.255 132.738 30.825C132.618 30.395 132.548 29.945 132.528 29.475C132.518 29.195 132.518 28.92 132.528 28.65C132.548 28.18 132.618 27.73 132.738 27.3C132.868 26.87 133.058 26.485 133.308 26.145C133.568 25.805 133.898 25.54 134.298 25.35C134.698 25.15 135.178 25.05 135.738 25.05C136.338 25.05 136.833 25.165 137.223 25.395C137.623 25.615 137.948 25.885 138.198 26.205V25.56C138.198 25.46 138.228 25.375 138.288 25.305C138.358 25.235 138.443 25.2 138.543 25.2H139.233C139.333 25.2 139.418 25.235 139.488 25.305C139.558 25.375 139.593 25.46 139.593 25.56V32.835C139.593 33.505 139.478 34.1 139.248 34.62C139.028 35.14 138.658 35.55 138.138 35.85C137.628 36.15 136.938 36.3 136.068 36.3ZM136.038 31.86C136.538 31.86 136.938 31.745 137.238 31.515C137.548 31.285 137.773 30.995 137.913 30.645C138.063 30.295 138.143 29.94 138.153 29.58C138.163 29.44 138.168 29.27 138.168 29.07C138.168 28.86 138.163 28.685 138.153 28.545C138.143 28.185 138.063 27.83 137.913 27.48C137.773 27.13 137.548 26.84 137.238 26.61C136.938 26.38 136.538 26.265 136.038 26.265C135.538 26.265 135.138 26.38 134.838 26.61C134.538 26.83 134.323 27.125 134.193 27.495C134.063 27.855 133.988 28.245 133.968 28.665C133.958 28.925 133.958 29.19 133.968 29.46C133.988 29.88 134.063 30.275 134.193 30.645C134.323 31.005 134.538 31.3 134.838 31.53C135.138 31.75 135.538 31.86 136.038 31.86Z" fill="white"/>
<path d="M160 3.5C160 1.567 161.567 0 163.5 0H212.5C222.165 0 230 7.83502 230 17.5V94.5C230 96.433 228.433 98 226.5 98H163.5C161.567 98 160 96.433 160 94.5V3.5Z" fill="#FF7F5F"/>
<path d="M171.65 33C171.54 33 171.455 32.97 171.395 32.91C171.335 32.84 171.305 32.755 171.305 32.655V22.86C171.305 22.75 171.335 22.665 171.395 22.605C171.455 22.535 171.54 22.5 171.65 22.5H175.76C176.51 22.5 177.12 22.625 177.59 22.875C178.07 23.115 178.42 23.445 178.64 23.865C178.87 24.285 178.985 24.755 178.985 25.275C178.985 25.685 178.915 26.04 178.775 26.34C178.645 26.63 178.48 26.87 178.28 27.06C178.08 27.24 177.885 27.38 177.695 27.48C178.085 27.67 178.43 27.98 178.73 28.41C179.04 28.84 179.195 29.36 179.195 29.97C179.195 30.52 179.07 31.025 178.82 31.485C178.57 31.945 178.195 32.315 177.695 32.595C177.205 32.865 176.595 33 175.865 33H171.65ZM172.775 31.785H175.67C176.32 31.785 176.82 31.61 177.17 31.26C177.52 30.91 177.695 30.48 177.695 29.97C177.695 29.44 177.52 29.005 177.17 28.665C176.82 28.315 176.32 28.14 175.67 28.14H172.775V31.785ZM172.775 26.94H175.535C176.175 26.94 176.66 26.795 176.99 26.505C177.32 26.205 177.485 25.8 177.485 25.29C177.485 24.78 177.32 24.39 176.99 24.12C176.66 23.85 176.175 23.715 175.535 23.715H172.775V26.94ZM184.235 33.15C183.205 33.15 182.385 32.835 181.775 32.205C181.165 31.565 180.83 30.695 180.77 29.595C180.76 29.465 180.755 29.3 180.755 29.1C180.755 28.89 180.76 28.72 180.77 28.59C180.81 27.88 180.975 27.26 181.265 26.73C181.555 26.19 181.95 25.775 182.45 25.485C182.96 25.195 183.555 25.05 184.235 25.05C184.995 25.05 185.63 25.21 186.14 25.53C186.66 25.85 187.055 26.305 187.325 26.895C187.595 27.485 187.73 28.175 187.73 28.965V29.22C187.73 29.33 187.695 29.415 187.625 29.475C187.565 29.535 187.485 29.565 187.385 29.565H182.195C182.195 29.575 182.195 29.595 182.195 29.625C182.195 29.655 182.195 29.68 182.195 29.7C182.215 30.11 182.305 30.495 182.465 30.855C182.625 31.205 182.855 31.49 183.155 31.71C183.455 31.93 183.815 32.04 184.235 32.04C184.595 32.04 184.895 31.985 185.135 31.875C185.375 31.765 185.57 31.645 185.72 31.515C185.87 31.375 185.97 31.27 186.02 31.2C186.11 31.07 186.18 30.995 186.23 30.975C186.28 30.945 186.36 30.93 186.47 30.93H187.19C187.29 30.93 187.37 30.96 187.43 31.02C187.5 31.07 187.53 31.145 187.52 31.245C187.51 31.395 187.43 31.58 187.28 31.8C187.13 32.01 186.915 32.22 186.635 32.43C186.355 32.64 186.015 32.815 185.615 32.955C185.215 33.085 184.755 33.15 184.235 33.15ZM182.195 28.53H186.305V28.485C186.305 28.035 186.22 27.635 186.05 27.285C185.89 26.935 185.655 26.66 185.345 26.46C185.035 26.25 184.665 26.145 184.235 26.145C183.805 26.145 183.435 26.25 183.125 26.46C182.825 26.66 182.595 26.935 182.435 27.285C182.275 27.635 182.195 28.035 182.195 28.485V28.53ZM189.868 33C189.768 33 189.683 32.97 189.613 32.91C189.553 32.84 189.523 32.755 189.523 32.655V25.545C189.523 25.445 189.553 25.365 189.613 25.305C189.683 25.235 189.768 25.2 189.868 25.2H190.588C190.688 25.2 190.768 25.235 190.828 25.305C190.888 25.365 190.918 25.445 190.918 25.545V32.655C190.918 32.755 190.888 32.84 190.828 32.91C190.768 32.97 190.688 33 190.588 33H189.868ZM189.748 23.745C189.648 23.745 189.563 23.715 189.493 23.655C189.433 23.585 189.403 23.5 189.403 23.4V22.59C189.403 22.49 189.433 22.41 189.493 22.35C189.563 22.28 189.648 22.245 189.748 22.245H190.693C190.793 22.245 190.873 22.28 190.933 22.35C191.003 22.41 191.038 22.49 191.038 22.59V23.4C191.038 23.5 191.003 23.585 190.933 23.655C190.873 23.715 190.793 23.745 190.693 23.745H189.748ZM196.201 33C195.641 33 195.186 32.895 194.836 32.685C194.486 32.465 194.231 32.16 194.071 31.77C193.911 31.37 193.831 30.9 193.831 30.36V26.4H192.661C192.561 26.4 192.476 26.37 192.406 26.31C192.346 26.24 192.316 26.155 192.316 26.055V25.545C192.316 25.445 192.346 25.365 192.406 25.305C192.476 25.235 192.561 25.2 192.661 25.2H193.831V22.695C193.831 22.595 193.861 22.515 193.921 22.455C193.991 22.385 194.076 22.35 194.176 22.35H194.881C194.981 22.35 195.061 22.385 195.121 22.455C195.191 22.515 195.226 22.595 195.226 22.695V25.2H197.086C197.186 25.2 197.266 25.235 197.326 25.305C197.396 25.365 197.431 25.445 197.431 25.545V26.055C197.431 26.155 197.396 26.24 197.326 26.31C197.266 26.37 197.186 26.4 197.086 26.4H195.226V30.255C195.226 30.725 195.306 31.095 195.466 31.365C195.626 31.635 195.911 31.77 196.321 31.77H197.236C197.336 31.77 197.416 31.805 197.476 31.875C197.546 31.935 197.581 32.015 197.581 32.115V32.655C197.581 32.755 197.546 32.84 197.476 32.91C197.416 32.97 197.336 33 197.236 33H196.201ZM199.36 33C199.26 33 199.175 32.97 199.105 32.91C199.045 32.84 199.015 32.755 199.015 32.655V25.56C199.015 25.46 199.045 25.375 199.105 25.305C199.175 25.235 199.26 25.2 199.36 25.2H200.05C200.15 25.2 200.235 25.235 200.305 25.305C200.375 25.375 200.41 25.46 200.41 25.56V26.22C200.61 25.88 200.885 25.625 201.235 25.455C201.585 25.285 202.005 25.2 202.495 25.2H203.095C203.195 25.2 203.275 25.235 203.335 25.305C203.395 25.365 203.425 25.445 203.425 25.545V26.16C203.425 26.26 203.395 26.34 203.335 26.4C203.275 26.46 203.195 26.49 203.095 26.49H202.195C201.655 26.49 201.23 26.65 200.92 26.97C200.61 27.28 200.455 27.705 200.455 28.245V32.655C200.455 32.755 200.42 32.84 200.35 32.91C200.28 32.97 200.195 33 200.095 33H199.36ZM206.771 33.15C206.271 33.15 205.816 33.05 205.406 32.85C204.996 32.65 204.666 32.38 204.416 32.04C204.166 31.7 204.041 31.315 204.041 30.885C204.041 30.195 204.321 29.645 204.881 29.235C205.441 28.825 206.171 28.555 207.071 28.425L209.306 28.11V27.675C209.306 27.195 209.166 26.82 208.886 26.55C208.616 26.28 208.171 26.145 207.551 26.145C207.101 26.145 206.736 26.235 206.456 26.415C206.186 26.595 205.996 26.825 205.886 27.105C205.826 27.255 205.721 27.33 205.571 27.33H204.896C204.786 27.33 204.701 27.3 204.641 27.24C204.591 27.17 204.566 27.09 204.566 27C204.566 26.85 204.621 26.665 204.731 26.445C204.851 26.225 205.031 26.01 205.271 25.8C205.511 25.59 205.816 25.415 206.186 25.275C206.566 25.125 207.026 25.05 207.566 25.05C208.166 25.05 208.671 25.13 209.081 25.29C209.491 25.44 209.811 25.645 210.041 25.905C210.281 26.165 210.451 26.46 210.551 26.79C210.661 27.12 210.716 27.455 210.716 27.795V32.655C210.716 32.755 210.681 32.84 210.611 32.91C210.551 32.97 210.471 33 210.371 33H209.681C209.571 33 209.486 32.97 209.426 32.91C209.366 32.84 209.336 32.755 209.336 32.655V32.01C209.206 32.19 209.031 32.37 208.811 32.55C208.591 32.72 208.316 32.865 207.986 32.985C207.656 33.095 207.251 33.15 206.771 33.15ZM207.086 32.025C207.496 32.025 207.871 31.94 208.211 31.77C208.551 31.59 208.816 31.315 209.006 30.945C209.206 30.575 209.306 30.11 209.306 29.55V29.13L207.566 29.385C206.856 29.485 206.321 29.655 205.961 29.895C205.601 30.125 205.421 30.42 205.421 30.78C205.421 31.06 205.501 31.295 205.661 31.485C205.831 31.665 206.041 31.8 206.291 31.89C206.551 31.98 206.816 32.025 207.086 32.025ZM216.068 36.3C215.388 36.3 214.828 36.21 214.388 36.03C213.958 35.85 213.618 35.63 213.368 35.37C213.128 35.12 212.953 34.865 212.843 34.605C212.743 34.355 212.688 34.155 212.678 34.005C212.668 33.905 212.698 33.82 212.768 33.75C212.848 33.68 212.933 33.645 213.023 33.645H213.743C213.833 33.645 213.908 33.665 213.968 33.705C214.028 33.745 214.078 33.83 214.118 33.96C214.178 34.11 214.268 34.275 214.388 34.455C214.508 34.645 214.693 34.805 214.943 34.935C215.193 35.075 215.543 35.145 215.993 35.145C216.463 35.145 216.858 35.08 217.178 34.95C217.498 34.83 217.738 34.61 217.898 34.29C218.068 33.98 218.153 33.55 218.153 33V31.98C217.913 32.29 217.598 32.55 217.208 32.76C216.818 32.96 216.328 33.06 215.738 33.06C215.178 33.06 214.698 32.965 214.298 32.775C213.898 32.575 213.568 32.31 213.308 31.98C213.058 31.64 212.868 31.255 212.738 30.825C212.618 30.395 212.548 29.945 212.528 29.475C212.518 29.195 212.518 28.92 212.528 28.65C212.548 28.18 212.618 27.73 212.738 27.3C212.868 26.87 213.058 26.485 213.308 26.145C213.568 25.805 213.898 25.54 214.298 25.35C214.698 25.15 215.178 25.05 215.738 25.05C216.338 25.05 216.833 25.165 217.223 25.395C217.623 25.615 217.948 25.885 218.198 26.205V25.56C218.198 25.46 218.228 25.375 218.288 25.305C218.358 25.235 218.443 25.2 218.543 25.2H219.233C219.333 25.2 219.418 25.235 219.488 25.305C219.558 25.375 219.593 25.46 219.593 25.56V32.835C219.593 33.505 219.478 34.1 219.248 34.62C219.028 35.14 218.658 35.55 218.138 35.85C217.628 36.15 216.938 36.3 216.068 36.3ZM216.038 31.86C216.538 31.86 216.938 31.745 217.238 31.515C217.548 31.285 217.773 30.995 217.913 30.645C218.063 30.295 218.143 29.94 218.153 29.58C218.163 29.44 218.168 29.27 218.168 29.07C218.168 28.86 218.163 28.685 218.153 28.545C218.143 28.185 218.063 27.83 217.913 27.48C217.773 27.13 217.548 26.84 217.238 26.61C216.938 26.38 216.538 26.265 216.038 26.265C215.538 26.265 215.138 26.38 214.838 26.61C214.538 26.83 214.323 27.125 214.193 27.495C214.063 27.855 213.988 28.245 213.968 28.665C213.958 28.925 213.958 29.19 213.968 29.46C213.988 29.88 214.063 30.275 214.193 30.645C214.323 31.005 214.538 31.3 214.838 31.53C215.138 31.75 215.538 31.86 216.038 31.86Z" fill="white"/>
</svg>
