<svg width="246" height="116" viewBox="0 0 246 116" fill="none" xmlns="http://www.w3.org/2000/svg">
<rect x="1.5" y="1.5" width="107" height="113" rx="3.5" fill="#CCE5FF" stroke="#007FFF" stroke-width="3"/>
<rect x="137.5" y="1.5" width="107" height="113" rx="3.5" fill="#CCE5FF" stroke="#007FFF" stroke-width="3"/>
<path d="M155.938 11.0133C155.938 10.1038 156.679 9.36646 157.595 9.36646H180.795C185.371 9.36646 189.08 13.0531 189.08 17.6007V53.8314C189.08 54.7409 188.338 55.4783 187.423 55.4783H157.595C156.679 55.4783 155.938 54.7409 155.938 53.8314V11.0133Z" fill="#FF7F5F"/>
<path d="M155.938 62.1686C155.938 61.259 156.679 60.5217 157.595 60.5217H180.795C185.371 60.5217 189.08 64.2083 189.08 68.756V104.987C189.08 105.896 188.338 106.634 187.423 106.634H157.595C156.679 106.634 155.938 105.896 155.938 104.987V62.1686Z" fill="#FF7F5F"/>
<path d="M193.403 11.0133C193.403 10.1038 194.145 9.36646 195.06 9.36646H218.26C222.837 9.36646 226.546 13.0531 226.546 17.6007V53.8314C226.546 54.7409 225.804 55.4783 224.889 55.4783H195.06C194.145 55.4783 193.403 54.7409 193.403 53.8314V11.0133Z" fill="#FF7F5F"/>
<path d="M193.403 62.1686C193.403 61.259 194.145 60.5217 195.06 60.5217H218.26C222.837 60.5217 226.546 64.2083 226.546 68.756V104.987C226.546 105.896 225.804 106.634 224.889 106.634H195.06C194.145 106.634 193.403 105.896 193.403 104.987V62.1686Z" fill="#FF7F5F"/>
<path d="M19.7637 36.951C19.7637 36.0415 20.5056 35.3042 21.4208 35.3042H44.6208C49.1969 35.3042 52.9065 38.9908 52.9065 43.5385V79.7692C52.9065 80.6787 52.1646 81.416 51.2494 81.416H21.4208C20.5056 81.416 19.7637 80.6787 19.7637 79.7692V36.951Z" fill="#FF7F5F"/>
<path d="M57.2295 36.951C57.2295 36.0415 57.9714 35.3042 58.8866 35.3042H82.0866C86.6627 35.3042 90.3723 38.9908 90.3723 43.5385V79.7692C90.3723 80.6787 89.6304 81.416 88.7152 81.416H58.8866C57.9714 81.416 57.2295 80.6787 57.2295 79.7692V36.951Z" fill="#FF7F5F"/>
</svg>
