<svg width="230" height="98" viewBox="0 0 230 98" fill="none" xmlns="http://www.w3.org/2000/svg">
<path d="M1.5 3.5C1.5 2.39543 2.39543 1.5 3.5 1.5H52.5C61.3366 1.5 68.5 8.66344 68.5 17.5V94.5C68.5 95.6046 67.6046 96.5 66.5 96.5H3.5C2.39543 96.5 1.5 95.6046 1.5 94.5V3.5Z" fill="#FF7F5F" fill-opacity="0.2" stroke="#FF7F5F" stroke-width="3"/>
<rect x="12" y="11" width="47" height="22" rx="5" fill="#00BB7F"/>
<path d="M22.8662 26C22.7462 26 22.6502 25.972 22.5782 25.916C22.5142 25.86 22.4622 25.784 22.4222 25.688L19.7462 17.972C19.7302 17.924 19.7222 17.88 19.7222 17.84C19.7222 17.776 19.7462 17.72 19.7942 17.672C19.8422 17.624 19.8982 17.6 19.9622 17.6H20.5862C20.6822 17.6 20.7542 17.628 20.8022 17.684C20.8582 17.732 20.8902 17.776 20.8982 17.816L23.2502 24.62L25.6022 17.816C25.6182 17.776 25.6502 17.732 25.6982 17.684C25.7462 17.628 25.8182 17.6 25.9142 17.6H26.5382C26.6022 17.6 26.6582 17.624 26.7062 17.672C26.7622 17.72 26.7902 17.776 26.7902 17.84C26.7902 17.88 26.7822 17.924 26.7662 17.972L24.0782 25.688C24.0462 25.784 23.9942 25.86 23.9222 25.916C23.8582 25.972 23.7662 26 23.6462 26H22.8662ZM28.1894 26C28.1094 26 28.0414 25.976 27.9854 25.928C27.9374 25.872 27.9134 25.804 27.9134 25.724V20.036C27.9134 19.956 27.9374 19.892 27.9854 19.844C28.0414 19.788 28.1094 19.76 28.1894 19.76H28.7654C28.8454 19.76 28.9094 19.788 28.9574 19.844C29.0054 19.892 29.0294 19.956 29.0294 20.036V25.724C29.0294 25.804 29.0054 25.872 28.9574 25.928C28.9094 25.976 28.8454 26 28.7654 26H28.1894ZM28.0934 18.596C28.0134 18.596 27.9454 18.572 27.8894 18.524C27.8414 18.468 27.8174 18.4 27.8174 18.32V17.672C27.8174 17.592 27.8414 17.528 27.8894 17.48C27.9454 17.424 28.0134 17.396 28.0934 17.396H28.8494C28.9294 17.396 28.9934 17.424 29.0414 17.48C29.0974 17.528 29.1254 17.592 29.1254 17.672V18.32C29.1254 18.4 29.0974 18.468 29.0414 18.524C28.9934 18.572 28.9294 18.596 28.8494 18.596H28.0934ZM33.0996 26.12C32.6596 26.12 32.2796 26.044 31.9596 25.892C31.6396 25.732 31.3756 25.52 31.1676 25.256C30.9676 24.984 30.8156 24.676 30.7116 24.332C30.6156 23.988 30.5596 23.624 30.5436 23.24C30.5356 23.112 30.5316 22.992 30.5316 22.88C30.5316 22.768 30.5356 22.648 30.5436 22.52C30.5596 22.144 30.6156 21.784 30.7116 21.44C30.8156 21.096 30.9676 20.788 31.1676 20.516C31.3756 20.244 31.6396 20.032 31.9596 19.88C32.2796 19.72 32.6596 19.64 33.0996 19.64C33.5716 19.64 33.9636 19.724 34.2756 19.892C34.5876 20.06 34.8436 20.268 35.0436 20.516V17.756C35.0436 17.676 35.0676 17.612 35.1156 17.564C35.1716 17.508 35.2396 17.48 35.3196 17.48H35.8956C35.9756 17.48 36.0396 17.508 36.0876 17.564C36.1436 17.612 36.1716 17.676 36.1716 17.756V25.724C36.1716 25.804 36.1436 25.872 36.0876 25.928C36.0396 25.976 35.9756 26 35.8956 26H35.3556C35.2676 26 35.1996 25.976 35.1516 25.928C35.1036 25.872 35.0796 25.804 35.0796 25.724V25.22C34.8796 25.476 34.6196 25.692 34.2996 25.868C33.9796 26.036 33.5796 26.12 33.0996 26.12ZM33.3516 25.148C33.7516 25.148 34.0716 25.056 34.3116 24.872C34.5516 24.688 34.7316 24.456 34.8516 24.176C34.9716 23.888 35.0356 23.596 35.0436 23.3C35.0516 23.172 35.0556 23.02 35.0556 22.844C35.0556 22.66 35.0516 22.504 35.0436 22.376C35.0356 22.096 34.9676 21.82 34.8396 21.548C34.7196 21.276 34.5356 21.052 34.2876 20.876C34.0476 20.7 33.7356 20.612 33.3516 20.612C32.9436 20.612 32.6196 20.704 32.3796 20.888C32.1396 21.064 31.9676 21.3 31.8636 21.596C31.7596 21.884 31.6996 22.196 31.6836 22.532C31.6756 22.764 31.6756 22.996 31.6836 23.228C31.6996 23.564 31.7596 23.88 31.8636 24.176C31.9676 24.464 32.1396 24.7 32.3796 24.884C32.6196 25.06 32.9436 25.148 33.3516 25.148ZM40.4404 26.12C39.6164 26.12 38.9604 25.868 38.4724 25.364C37.9844 24.852 37.7164 24.156 37.6684 23.276C37.6604 23.172 37.6564 23.04 37.6564 22.88C37.6564 22.712 37.6604 22.576 37.6684 22.472C37.7004 21.904 37.8324 21.408 38.0644 20.984C38.2964 20.552 38.6124 20.22 39.0124 19.988C39.4204 19.756 39.8964 19.64 40.4404 19.64C41.0484 19.64 41.5564 19.768 41.9644 20.024C42.3804 20.28 42.6964 20.644 42.9124 21.116C43.1284 21.588 43.2364 22.14 43.2364 22.772V22.976C43.2364 23.064 43.2084 23.132 43.1524 23.18C43.1044 23.228 43.0404 23.252 42.9604 23.252H38.8084C38.8084 23.26 38.8084 23.276 38.8084 23.3C38.8084 23.324 38.8084 23.344 38.8084 23.36C38.8244 23.688 38.8964 23.996 39.0244 24.284C39.1524 24.564 39.3364 24.792 39.5764 24.968C39.8164 25.144 40.1044 25.232 40.4404 25.232C40.7284 25.232 40.9684 25.188 41.1604 25.1C41.3524 25.012 41.5084 24.916 41.6284 24.812C41.7484 24.7 41.8284 24.616 41.8684 24.56C41.9404 24.456 41.9964 24.396 42.0364 24.38C42.0764 24.356 42.1404 24.344 42.2284 24.344H42.8044C42.8844 24.344 42.9484 24.368 42.9964 24.416C43.0524 24.456 43.0764 24.516 43.0684 24.596C43.0604 24.716 42.9964 24.864 42.8764 25.04C42.7564 25.208 42.5844 25.376 42.3604 25.544C42.1364 25.712 41.8644 25.852 41.5444 25.964C41.2244 26.068 40.8564 26.12 40.4404 26.12ZM38.8084 22.424H42.0964V22.388C42.0964 22.028 42.0284 21.708 41.8924 21.428C41.7644 21.148 41.5764 20.928 41.3284 20.768C41.0804 20.6 40.7844 20.516 40.4404 20.516C40.0964 20.516 39.8004 20.6 39.5524 20.768C39.3124 20.928 39.1284 21.148 39.0004 21.428C38.8724 21.708 38.8084 22.028 38.8084 22.388V22.424ZM47.2272 26.12C46.6192 26.12 46.1112 26.004 45.7032 25.772C45.2952 25.54 44.9832 25.22 44.7672 24.812C44.5512 24.396 44.4312 23.924 44.4072 23.396C44.3992 23.26 44.3952 23.088 44.3952 22.88C44.3952 22.664 44.3992 22.492 44.4072 22.364C44.4312 21.828 44.5512 21.356 44.7672 20.948C44.9912 20.54 45.3072 20.22 45.7152 19.988C46.1232 19.756 46.6272 19.64 47.2272 19.64C47.8272 19.64 48.3312 19.756 48.7392 19.988C49.1472 20.22 49.4592 20.54 49.6752 20.948C49.8992 21.356 50.0232 21.828 50.0472 22.364C50.0552 22.492 50.0592 22.664 50.0592 22.88C50.0592 23.088 50.0552 23.26 50.0472 23.396C50.0232 23.924 49.9032 24.396 49.6872 24.812C49.4712 25.22 49.1592 25.54 48.7512 25.772C48.3432 26.004 47.8352 26.12 47.2272 26.12ZM47.2272 25.196C47.7232 25.196 48.1192 25.04 48.4152 24.728C48.7112 24.408 48.8712 23.944 48.8952 23.336C48.9032 23.216 48.9072 23.064 48.9072 22.88C48.9072 22.696 48.9032 22.544 48.8952 22.424C48.8712 21.816 48.7112 21.356 48.4152 21.044C48.1192 20.724 47.7232 20.564 47.2272 20.564C46.7312 20.564 46.3312 20.724 46.0272 21.044C45.7312 21.356 45.5752 21.816 45.5592 22.424C45.5512 22.544 45.5472 22.696 45.5472 22.88C45.5472 23.064 45.5512 23.216 45.5592 23.336C45.5752 23.944 45.7312 24.408 46.0272 24.728C46.3312 25.04 46.7312 25.196 47.2272 25.196Z" fill="white"/>
<rect x="12" y="38" width="47" height="22" rx="5" fill="#00BB7F"/>
<path d="M24.695 53C24.607 53 24.539 52.976 24.491 52.928C24.443 52.872 24.419 52.804 24.419 52.724V44.876C24.419 44.796 24.443 44.732 24.491 44.684C24.539 44.628 24.607 44.6 24.695 44.6H25.331C25.411 44.6 25.475 44.628 25.523 44.684C25.571 44.732 25.595 44.796 25.595 44.876V51.956H29.591C29.679 51.956 29.747 51.984 29.795 52.04C29.843 52.088 29.867 52.156 29.867 52.244V52.724C29.867 52.804 29.843 52.872 29.795 52.928C29.747 52.976 29.679 53 29.591 53H24.695ZM31.3007 53C31.2207 53 31.1527 52.976 31.0967 52.928C31.0487 52.872 31.0247 52.804 31.0247 52.724V47.036C31.0247 46.956 31.0487 46.892 31.0967 46.844C31.1527 46.788 31.2207 46.76 31.3007 46.76H31.8767C31.9567 46.76 32.0207 46.788 32.0687 46.844C32.1167 46.892 32.1407 46.956 32.1407 47.036V52.724C32.1407 52.804 32.1167 52.872 32.0687 52.928C32.0207 52.976 31.9567 53 31.8767 53H31.3007ZM31.2047 45.596C31.1247 45.596 31.0567 45.572 31.0007 45.524C30.9527 45.468 30.9287 45.4 30.9287 45.32V44.672C30.9287 44.592 30.9527 44.528 31.0007 44.48C31.0567 44.424 31.1247 44.396 31.2047 44.396H31.9607C32.0407 44.396 32.1047 44.424 32.1527 44.48C32.2087 44.528 32.2367 44.592 32.2367 44.672V45.32C32.2367 45.4 32.2087 45.468 32.1527 45.524C32.1047 45.572 32.0407 45.596 31.9607 45.596H31.2047ZM34.3242 53C34.2442 53 34.1762 52.976 34.1202 52.928C34.0722 52.872 34.0482 52.804 34.0482 52.724V47.036C34.0482 46.956 34.0722 46.892 34.1202 46.844C34.1762 46.788 34.2442 46.76 34.3242 46.76H34.8882C34.9682 46.76 35.0322 46.788 35.0802 46.844C35.1362 46.892 35.1642 46.956 35.1642 47.036V47.564C35.3722 47.292 35.6322 47.072 35.9442 46.904C36.2642 46.728 36.6722 46.64 37.1682 46.64C37.6882 46.64 38.1282 46.756 38.4882 46.988C38.8562 47.212 39.1322 47.528 39.3162 47.936C39.5002 48.336 39.5922 48.804 39.5922 49.34V52.724C39.5922 52.804 39.5682 52.872 39.5202 52.928C39.4722 52.976 39.4082 53 39.3282 53H38.7282C38.6482 53 38.5802 52.976 38.5242 52.928C38.4762 52.872 38.4522 52.804 38.4522 52.724V49.4C38.4522 48.84 38.3162 48.404 38.0442 48.092C37.7722 47.772 37.3722 47.612 36.8442 47.612C36.3482 47.612 35.9482 47.772 35.6442 48.092C35.3482 48.404 35.2002 48.84 35.2002 49.4V52.724C35.2002 52.804 35.1722 52.872 35.1162 52.928C35.0682 52.976 35.0042 53 34.9242 53H34.3242ZM41.6135 53C41.5335 53 41.4655 52.976 41.4095 52.928C41.3615 52.872 41.3375 52.804 41.3375 52.724V44.756C41.3375 44.676 41.3615 44.612 41.4095 44.564C41.4655 44.508 41.5335 44.48 41.6135 44.48H42.1775C42.2575 44.48 42.3215 44.508 42.3695 44.564C42.4255 44.612 42.4535 44.676 42.4535 44.756V48.932L44.8175 46.964C44.9135 46.884 44.9855 46.832 45.0335 46.808C45.0895 46.776 45.1775 46.76 45.2975 46.76H45.9335C46.0055 46.76 46.0655 46.784 46.1135 46.832C46.1615 46.88 46.1855 46.94 46.1855 47.012C46.1855 47.044 46.1735 47.08 46.1495 47.12C46.1335 47.16 46.0975 47.2 46.0415 47.24L43.2695 49.544L46.3415 52.532C46.4375 52.612 46.4855 52.684 46.4855 52.748C46.4855 52.82 46.4615 52.88 46.4135 52.928C46.3655 52.976 46.3055 53 46.2335 53H45.6095C45.4895 53 45.4015 52.988 45.3455 52.964C45.2895 52.932 45.2175 52.876 45.1295 52.796L42.4535 50.24V52.724C42.4535 52.804 42.4255 52.872 42.3695 52.928C42.3215 52.976 42.2575 53 42.1775 53H41.6135Z" fill="white"/>
<path d="M81.5 3.5C81.5 2.39543 82.3954 1.5 83.5 1.5H132.5C141.337 1.5 148.5 8.66344 148.5 17.5V94.5C148.5 95.6046 147.605 96.5 146.5 96.5H83.5C82.3954 96.5 81.5 95.6046 81.5 94.5V3.5Z" fill="#FF7F5F" fill-opacity="0.2" stroke="#FF7F5F" stroke-width="3"/>
<rect x="92" y="11" width="47" height="22" rx="5" fill="#00BB7F"/>
<path d="M105.33 26C105.242 26 105.174 25.976 105.126 25.928C105.078 25.872 105.054 25.804 105.054 25.724V17.888C105.054 17.8 105.078 17.732 105.126 17.684C105.174 17.628 105.242 17.6 105.33 17.6H108.378C108.97 17.6 109.482 17.696 109.914 17.888C110.354 18.08 110.694 18.368 110.934 18.752C111.174 19.128 111.294 19.6 111.294 20.168C111.294 20.736 111.174 21.208 110.934 21.584C110.694 21.96 110.354 22.244 109.914 22.436C109.482 22.628 108.97 22.724 108.378 22.724H106.254V25.724C106.254 25.804 106.226 25.872 106.17 25.928C106.122 25.976 106.054 26 105.966 26H105.33ZM106.242 21.716H108.318C108.91 21.716 109.354 21.584 109.65 21.32C109.946 21.056 110.094 20.672 110.094 20.168C110.094 19.672 109.95 19.288 109.662 19.016C109.374 18.744 108.926 18.608 108.318 18.608H106.242V21.716ZM113.029 26C112.941 26 112.873 25.976 112.825 25.928C112.777 25.872 112.753 25.804 112.753 25.724V17.888C112.753 17.8 112.777 17.732 112.825 17.684C112.873 17.628 112.941 17.6 113.029 17.6H115.753C116.577 17.6 117.241 17.724 117.745 17.972C118.249 18.22 118.617 18.588 118.849 19.076C119.081 19.556 119.201 20.148 119.209 20.852C119.217 21.212 119.221 21.528 119.221 21.8C119.221 22.072 119.217 22.384 119.209 22.736C119.193 23.472 119.069 24.084 118.837 24.572C118.613 25.052 118.253 25.412 117.757 25.652C117.269 25.884 116.621 26 115.813 26H113.029ZM113.929 24.98H115.753C116.305 24.98 116.745 24.904 117.073 24.752C117.401 24.6 117.637 24.356 117.781 24.02C117.933 23.684 118.013 23.24 118.021 22.688C118.037 22.448 118.045 22.24 118.045 22.064C118.045 21.88 118.045 21.7 118.045 21.524C118.045 21.34 118.037 21.132 118.021 20.9C118.005 20.124 117.821 19.552 117.469 19.184C117.117 18.808 116.525 18.62 115.693 18.62H113.929V24.98ZM121.302 26C121.214 26 121.146 25.976 121.098 25.928C121.05 25.872 121.026 25.804 121.026 25.724V17.888C121.026 17.8 121.05 17.732 121.098 17.684C121.146 17.628 121.214 17.6 121.302 17.6H126.198C126.286 17.6 126.354 17.628 126.402 17.684C126.45 17.732 126.474 17.8 126.474 17.888V18.368C126.474 18.456 126.45 18.524 126.402 18.572C126.354 18.62 126.286 18.644 126.198 18.644H122.19V21.44H125.958C126.046 21.44 126.114 21.468 126.162 21.524C126.21 21.572 126.234 21.64 126.234 21.728V22.208C126.234 22.288 126.21 22.356 126.162 22.412C126.114 22.46 126.046 22.484 125.958 22.484H122.19V25.724C122.19 25.804 122.162 25.872 122.106 25.928C122.058 25.976 121.99 26 121.902 26H121.302Z" fill="white"/>
<rect x="92" y="38" width="47" height="22" rx="5" fill="#00BB7F"/>
<path d="M106.32 53C106.232 53 106.164 52.976 106.116 52.928C106.068 52.872 106.044 52.804 106.044 52.724V44.888C106.044 44.8 106.068 44.732 106.116 44.684C106.164 44.628 106.232 44.6 106.32 44.6H109.608C110.208 44.6 110.696 44.7 111.072 44.9C111.456 45.092 111.736 45.356 111.912 45.692C112.096 46.028 112.188 46.404 112.188 46.82C112.188 47.148 112.132 47.432 112.02 47.672C111.916 47.904 111.784 48.096 111.624 48.248C111.464 48.392 111.308 48.504 111.156 48.584C111.468 48.736 111.744 48.984 111.984 49.328C112.232 49.672 112.356 50.088 112.356 50.576C112.356 51.016 112.256 51.42 112.056 51.788C111.856 52.156 111.556 52.452 111.156 52.676C110.764 52.892 110.276 53 109.692 53H106.32ZM107.22 52.028H109.536C110.056 52.028 110.456 51.888 110.736 51.608C111.016 51.328 111.156 50.984 111.156 50.576C111.156 50.152 111.016 49.804 110.736 49.532C110.456 49.252 110.056 49.112 109.536 49.112H107.22V52.028ZM107.22 48.152H109.428C109.94 48.152 110.328 48.036 110.592 47.804C110.856 47.564 110.988 47.24 110.988 46.832C110.988 46.424 110.856 46.112 110.592 45.896C110.328 45.68 109.94 45.572 109.428 45.572H107.22V48.152ZM114.203 53C114.123 53 114.055 52.976 113.999 52.928C113.951 52.872 113.927 52.804 113.927 52.724V47.036C113.927 46.956 113.951 46.892 113.999 46.844C114.055 46.788 114.123 46.76 114.203 46.76H114.779C114.859 46.76 114.923 46.788 114.971 46.844C115.019 46.892 115.043 46.956 115.043 47.036V52.724C115.043 52.804 115.019 52.872 114.971 52.928C114.923 52.976 114.859 53 114.779 53H114.203ZM114.107 45.596C114.027 45.596 113.959 45.572 113.903 45.524C113.855 45.468 113.831 45.4 113.831 45.32V44.672C113.831 44.592 113.855 44.528 113.903 44.48C113.959 44.424 114.027 44.396 114.107 44.396H114.863C114.943 44.396 115.007 44.424 115.055 44.48C115.111 44.528 115.139 44.592 115.139 44.672V45.32C115.139 45.4 115.111 45.468 115.055 45.524C115.007 45.572 114.943 45.596 114.863 45.596H114.107ZM117.121 53C117.041 53 116.973 52.976 116.917 52.928C116.869 52.872 116.845 52.804 116.845 52.724V44.756C116.845 44.676 116.869 44.612 116.917 44.564C116.973 44.508 117.041 44.48 117.121 44.48H117.685C117.773 44.48 117.841 44.508 117.889 44.564C117.937 44.612 117.961 44.676 117.961 44.756V52.724C117.961 52.804 117.937 52.872 117.889 52.928C117.841 52.976 117.773 53 117.685 53H117.121ZM122.031 53.12C121.591 53.12 121.211 53.044 120.891 52.892C120.571 52.732 120.307 52.52 120.099 52.256C119.899 51.984 119.747 51.676 119.643 51.332C119.547 50.988 119.491 50.624 119.475 50.24C119.467 50.112 119.463 49.992 119.463 49.88C119.463 49.768 119.467 49.648 119.475 49.52C119.491 49.144 119.547 48.784 119.643 48.44C119.747 48.096 119.899 47.788 120.099 47.516C120.307 47.244 120.571 47.032 120.891 46.88C121.211 46.72 121.591 46.64 122.031 46.64C122.503 46.64 122.895 46.724 123.207 46.892C123.519 47.06 123.775 47.268 123.975 47.516V44.756C123.975 44.676 123.999 44.612 124.047 44.564C124.103 44.508 124.171 44.48 124.251 44.48H124.827C124.907 44.48 124.971 44.508 125.019 44.564C125.075 44.612 125.103 44.676 125.103 44.756V52.724C125.103 52.804 125.075 52.872 125.019 52.928C124.971 52.976 124.907 53 124.827 53H124.287C124.199 53 124.131 52.976 124.083 52.928C124.035 52.872 124.011 52.804 124.011 52.724V52.22C123.811 52.476 123.551 52.692 123.231 52.868C122.911 53.036 122.511 53.12 122.031 53.12ZM122.283 52.148C122.683 52.148 123.003 52.056 123.243 51.872C123.483 51.688 123.663 51.456 123.783 51.176C123.903 50.888 123.967 50.596 123.975 50.3C123.983 50.172 123.987 50.02 123.987 49.844C123.987 49.66 123.983 49.504 123.975 49.376C123.967 49.096 123.899 48.82 123.771 48.548C123.651 48.276 123.467 48.052 123.219 47.876C122.979 47.7 122.667 47.612 122.283 47.612C121.875 47.612 121.551 47.704 121.311 47.888C121.071 48.064 120.899 48.3 120.795 48.596C120.691 48.884 120.631 49.196 120.615 49.532C120.607 49.764 120.607 49.996 120.615 50.228C120.631 50.564 120.691 50.88 120.795 51.176C120.899 51.464 121.071 51.7 121.311 51.884C121.551 52.06 121.875 52.148 122.283 52.148Z" fill="white"/>
<rect x="92" y="65" width="47" height="22" rx="5" fill="#00BB7F"/>
<path d="M101.186 80C101.098 80 101.03 79.972 100.982 79.916C100.934 79.86 100.91 79.792 100.91 79.712V79.196C100.91 79.076 100.934 78.98 100.982 78.908C101.03 78.836 101.066 78.784 101.09 78.752L105.554 72.644H101.294C101.214 72.644 101.146 72.62 101.09 72.572C101.042 72.516 101.018 72.448 101.018 72.368V71.888C101.018 71.8 101.042 71.732 101.09 71.684C101.146 71.628 101.214 71.6 101.294 71.6H106.73C106.818 71.6 106.886 71.628 106.934 71.684C106.982 71.732 107.006 71.8 107.006 71.888V72.404C107.006 72.5 106.99 72.58 106.958 72.644C106.934 72.708 106.898 72.768 106.85 72.824L102.434 78.956H106.85C106.938 78.956 107.006 78.984 107.054 79.04C107.11 79.088 107.138 79.156 107.138 79.244V79.724C107.138 79.804 107.11 79.872 107.054 79.928C107.006 79.976 106.938 80 106.85 80H101.186ZM110.642 80.12C110.13 80.12 109.694 80.008 109.334 79.784C108.982 79.552 108.714 79.232 108.53 78.824C108.346 78.416 108.254 77.948 108.254 77.42V74.036C108.254 73.956 108.278 73.892 108.326 73.844C108.382 73.788 108.45 73.76 108.53 73.76H109.13C109.21 73.76 109.274 73.788 109.322 73.844C109.378 73.892 109.406 73.956 109.406 74.036V77.36C109.406 78.552 109.926 79.148 110.966 79.148C111.462 79.148 111.858 78.992 112.154 78.68C112.458 78.36 112.61 77.92 112.61 77.36V74.036C112.61 73.956 112.634 73.892 112.682 73.844C112.738 73.788 112.806 73.76 112.886 73.76H113.474C113.562 73.76 113.63 73.788 113.678 73.844C113.726 73.892 113.75 73.956 113.75 74.036V79.724C113.75 79.804 113.726 79.872 113.678 79.928C113.63 79.976 113.562 80 113.474 80H112.922C112.842 80 112.774 79.976 112.718 79.928C112.67 79.872 112.646 79.804 112.646 79.724V79.196C112.43 79.476 112.166 79.7 111.854 79.868C111.55 80.036 111.146 80.12 110.642 80.12ZM117.969 80C117.521 80 117.157 79.916 116.877 79.748C116.597 79.572 116.393 79.328 116.265 79.016C116.137 78.696 116.073 78.32 116.073 77.888V74.72H115.137C115.057 74.72 114.989 74.696 114.933 74.648C114.885 74.592 114.861 74.524 114.861 74.444V74.036C114.861 73.956 114.885 73.892 114.933 73.844C114.989 73.788 115.057 73.76 115.137 73.76H116.073V71.756C116.073 71.676 116.097 71.612 116.145 71.564C116.201 71.508 116.269 71.48 116.349 71.48H116.913C116.993 71.48 117.057 71.508 117.105 71.564C117.161 71.612 117.189 71.676 117.189 71.756V73.76H118.677C118.757 73.76 118.821 73.788 118.869 73.844C118.925 73.892 118.953 73.956 118.953 74.036V74.444C118.953 74.524 118.925 74.592 118.869 74.648C118.821 74.696 118.757 74.72 118.677 74.72H117.189V77.804C117.189 78.18 117.253 78.476 117.381 78.692C117.509 78.908 117.737 79.016 118.065 79.016H118.797C118.877 79.016 118.941 79.044 118.989 79.1C119.045 79.148 119.073 79.212 119.073 79.292V79.724C119.073 79.804 119.045 79.872 118.989 79.928C118.941 79.976 118.877 80 118.797 80H117.969ZM121.96 80.12C121.56 80.12 121.196 80.04 120.868 79.88C120.54 79.72 120.276 79.504 120.076 79.232C119.876 78.96 119.776 78.652 119.776 78.308C119.776 77.756 120 77.316 120.448 76.988C120.896 76.66 121.48 76.444 122.2 76.34L123.988 76.088V75.74C123.988 75.356 123.876 75.056 123.652 74.84C123.436 74.624 123.08 74.516 122.584 74.516C122.224 74.516 121.932 74.588 121.708 74.732C121.492 74.876 121.34 75.06 121.252 75.284C121.204 75.404 121.12 75.464 121 75.464H120.46C120.372 75.464 120.304 75.44 120.256 75.392C120.216 75.336 120.196 75.272 120.196 75.2C120.196 75.08 120.24 74.932 120.328 74.756C120.424 74.58 120.568 74.408 120.76 74.24C120.952 74.072 121.196 73.932 121.492 73.82C121.796 73.7 122.164 73.64 122.596 73.64C123.076 73.64 123.48 73.704 123.808 73.832C124.136 73.952 124.392 74.116 124.576 74.324C124.768 74.532 124.904 74.768 124.984 75.032C125.072 75.296 125.116 75.564 125.116 75.836V79.724C125.116 79.804 125.088 79.872 125.032 79.928C124.984 79.976 124.92 80 124.84 80H124.288C124.2 80 124.132 79.976 124.084 79.928C124.036 79.872 124.012 79.804 124.012 79.724V79.208C123.908 79.352 123.768 79.496 123.592 79.64C123.416 79.776 123.196 79.892 122.932 79.988C122.668 80.076 122.344 80.12 121.96 80.12ZM122.212 79.22C122.54 79.22 122.84 79.152 123.112 79.016C123.384 78.872 123.596 78.652 123.748 78.356C123.908 78.06 123.988 77.688 123.988 77.24V76.904L122.596 77.108C122.028 77.188 121.6 77.324 121.312 77.516C121.024 77.7 120.88 77.936 120.88 78.224C120.88 78.448 120.944 78.636 121.072 78.788C121.208 78.932 121.376 79.04 121.576 79.112C121.784 79.184 121.996 79.22 122.212 79.22ZM129.219 80C128.771 80 128.407 79.916 128.127 79.748C127.847 79.572 127.643 79.328 127.515 79.016C127.387 78.696 127.323 78.32 127.323 77.888V74.72H126.387C126.307 74.72 126.239 74.696 126.183 74.648C126.135 74.592 126.111 74.524 126.111 74.444V74.036C126.111 73.956 126.135 73.892 126.183 73.844C126.239 73.788 126.307 73.76 126.387 73.76H127.323V71.756C127.323 71.676 127.347 71.612 127.395 71.564C127.451 71.508 127.519 71.48 127.599 71.48H128.163C128.243 71.48 128.307 71.508 128.355 71.564C128.411 71.612 128.439 71.676 128.439 71.756V73.76H129.927C130.007 73.76 130.071 73.788 130.119 73.844C130.175 73.892 130.203 73.956 130.203 74.036V74.444C130.203 74.524 130.175 74.592 130.119 74.648C130.071 74.696 130.007 74.72 129.927 74.72H128.439V77.804C128.439 78.18 128.503 78.476 128.631 78.692C128.759 78.908 128.987 79.016 129.315 79.016H130.047C130.127 79.016 130.191 79.044 130.239 79.1C130.295 79.148 130.323 79.212 130.323 79.292V79.724C130.323 79.804 130.295 79.872 130.239 79.928C130.191 79.976 130.127 80 130.047 80H129.219Z" fill="white"/>
<path d="M161.5 3.5C161.5 2.39543 162.395 1.5 163.5 1.5H212.5C221.337 1.5 228.5 8.66344 228.5 17.5V94.5C228.5 95.6046 227.605 96.5 226.5 96.5H163.5C162.395 96.5 161.5 95.6046 161.5 94.5V3.5Z" fill="#FF7F5F" fill-opacity="0.2" stroke="#FF7F5F" stroke-width="3"/>
<rect x="172" y="11" width="47" height="22" rx="5" fill="#00BB7F"/>
<path d="M182.416 26C182.328 26 182.26 25.976 182.212 25.928C182.164 25.872 182.14 25.804 182.14 25.724V17.888C182.14 17.8 182.164 17.732 182.212 17.684C182.26 17.628 182.328 17.6 182.416 17.6H185.464C186.056 17.6 186.568 17.696 187 17.888C187.44 18.08 187.78 18.368 188.02 18.752C188.26 19.128 188.38 19.6 188.38 20.168C188.38 20.736 188.26 21.208 188.02 21.584C187.78 21.96 187.44 22.244 187 22.436C186.568 22.628 186.056 22.724 185.464 22.724H183.34V25.724C183.34 25.804 183.312 25.872 183.256 25.928C183.208 25.976 183.14 26 183.052 26H182.416ZM183.328 21.716H185.404C185.996 21.716 186.44 21.584 186.736 21.32C187.032 21.056 187.18 20.672 187.18 20.168C187.18 19.672 187.036 19.288 186.748 19.016C186.46 18.744 186.012 18.608 185.404 18.608H183.328V21.716ZM189.959 26C189.879 26 189.811 25.976 189.755 25.928C189.707 25.872 189.683 25.804 189.683 25.724V20.048C189.683 19.968 189.707 19.9 189.755 19.844C189.811 19.788 189.879 19.76 189.959 19.76H190.511C190.591 19.76 190.659 19.788 190.715 19.844C190.771 19.9 190.799 19.968 190.799 20.048V20.576C190.959 20.304 191.179 20.1 191.459 19.964C191.739 19.828 192.075 19.76 192.467 19.76H192.947C193.027 19.76 193.091 19.788 193.139 19.844C193.187 19.892 193.211 19.956 193.211 20.036V20.528C193.211 20.608 193.187 20.672 193.139 20.72C193.091 20.768 193.027 20.792 192.947 20.792H192.227C191.795 20.792 191.455 20.92 191.207 21.176C190.959 21.424 190.835 21.764 190.835 22.196V25.724C190.835 25.804 190.807 25.872 190.751 25.928C190.695 25.976 190.627 26 190.547 26H189.959ZM195.888 26.12C195.488 26.12 195.124 26.04 194.796 25.88C194.468 25.72 194.204 25.504 194.004 25.232C193.804 24.96 193.704 24.652 193.704 24.308C193.704 23.756 193.928 23.316 194.376 22.988C194.824 22.66 195.408 22.444 196.128 22.34L197.916 22.088V21.74C197.916 21.356 197.804 21.056 197.58 20.84C197.364 20.624 197.008 20.516 196.512 20.516C196.152 20.516 195.86 20.588 195.636 20.732C195.42 20.876 195.268 21.06 195.18 21.284C195.132 21.404 195.048 21.464 194.928 21.464H194.388C194.3 21.464 194.232 21.44 194.184 21.392C194.144 21.336 194.124 21.272 194.124 21.2C194.124 21.08 194.168 20.932 194.256 20.756C194.352 20.58 194.496 20.408 194.688 20.24C194.88 20.072 195.124 19.932 195.42 19.82C195.724 19.7 196.092 19.64 196.524 19.64C197.004 19.64 197.408 19.704 197.736 19.832C198.064 19.952 198.32 20.116 198.504 20.324C198.696 20.532 198.832 20.768 198.912 21.032C199 21.296 199.044 21.564 199.044 21.836V25.724C199.044 25.804 199.016 25.872 198.96 25.928C198.912 25.976 198.848 26 198.768 26H198.216C198.128 26 198.06 25.976 198.012 25.928C197.964 25.872 197.94 25.804 197.94 25.724V25.208C197.836 25.352 197.696 25.496 197.52 25.64C197.344 25.776 197.124 25.892 196.86 25.988C196.596 26.076 196.272 26.12 195.888 26.12ZM196.14 25.22C196.468 25.22 196.768 25.152 197.04 25.016C197.312 24.872 197.524 24.652 197.676 24.356C197.836 24.06 197.916 23.688 197.916 23.24V22.904L196.524 23.108C195.956 23.188 195.528 23.324 195.24 23.516C194.952 23.7 194.808 23.936 194.808 24.224C194.808 24.448 194.872 24.636 195 24.788C195.136 24.932 195.304 25.04 195.504 25.112C195.712 25.184 195.924 25.22 196.14 25.22ZM197.232 18.548C197.144 18.548 197.076 18.524 197.028 18.476C196.98 18.428 196.956 18.364 196.956 18.284V17.636C196.956 17.556 196.98 17.492 197.028 17.444C197.076 17.388 197.144 17.36 197.232 17.36H197.88C197.96 17.36 198.024 17.388 198.072 17.444C198.128 17.492 198.156 17.556 198.156 17.636V18.284C198.156 18.364 198.128 18.428 198.072 18.476C198.024 18.524 197.96 18.548 197.88 18.548H197.232ZM195.192 18.548C195.112 18.548 195.048 18.524 195 18.476C194.952 18.428 194.928 18.364 194.928 18.284V17.636C194.928 17.556 194.952 17.492 195 17.444C195.048 17.388 195.112 17.36 195.192 17.36H195.852C195.932 17.36 195.996 17.388 196.044 17.444C196.1 17.492 196.128 17.556 196.128 17.636V18.284C196.128 18.364 196.1 18.428 196.044 18.476C195.996 18.524 195.932 18.548 195.852 18.548H195.192ZM202.929 26.12C202.481 26.12 202.097 26.064 201.777 25.952C201.457 25.84 201.197 25.704 200.997 25.544C200.797 25.384 200.645 25.224 200.541 25.064C200.445 24.904 200.393 24.776 200.385 24.68C200.377 24.592 200.405 24.524 200.469 24.476C200.533 24.428 200.597 24.404 200.661 24.404H201.189C201.237 24.404 201.273 24.412 201.297 24.428C201.329 24.436 201.369 24.468 201.417 24.524C201.521 24.636 201.637 24.748 201.765 24.86C201.893 24.972 202.049 25.064 202.233 25.136C202.425 25.208 202.661 25.244 202.941 25.244C203.349 25.244 203.685 25.168 203.949 25.016C204.213 24.856 204.345 24.624 204.345 24.32C204.345 24.12 204.289 23.96 204.177 23.84C204.073 23.72 203.881 23.612 203.601 23.516C203.329 23.42 202.953 23.32 202.473 23.216C201.993 23.104 201.613 22.968 201.333 22.808C201.053 22.64 200.853 22.444 200.733 22.22C200.613 21.988 200.553 21.728 200.553 21.44C200.553 21.144 200.641 20.86 200.817 20.588C200.993 20.308 201.249 20.08 201.585 19.904C201.929 19.728 202.357 19.64 202.869 19.64C203.285 19.64 203.641 19.692 203.937 19.796C204.233 19.9 204.477 20.032 204.669 20.192C204.861 20.344 205.005 20.496 205.101 20.648C205.197 20.8 205.249 20.928 205.257 21.032C205.265 21.112 205.241 21.18 205.185 21.236C205.129 21.284 205.065 21.308 204.993 21.308H204.489C204.433 21.308 204.385 21.296 204.345 21.272C204.313 21.248 204.281 21.22 204.249 21.188C204.169 21.084 204.073 20.98 203.961 20.876C203.857 20.772 203.717 20.688 203.541 20.624C203.373 20.552 203.149 20.516 202.869 20.516C202.469 20.516 202.169 20.6 201.969 20.768C201.769 20.936 201.669 21.148 201.669 21.404C201.669 21.556 201.713 21.692 201.801 21.812C201.889 21.932 202.057 22.04 202.305 22.136C202.553 22.232 202.921 22.336 203.409 22.448C203.937 22.552 204.353 22.692 204.657 22.868C204.961 23.044 205.177 23.248 205.305 23.48C205.433 23.712 205.497 23.98 205.497 24.284C205.497 24.62 205.397 24.928 205.197 25.208C205.005 25.488 204.717 25.712 204.333 25.88C203.957 26.04 203.489 26.12 202.929 26.12ZM207.162 26C207.082 26 207.014 25.976 206.958 25.928C206.91 25.872 206.886 25.804 206.886 25.724V20.036C206.886 19.956 206.91 19.892 206.958 19.844C207.014 19.788 207.082 19.76 207.162 19.76H207.738C207.818 19.76 207.882 19.788 207.93 19.844C207.978 19.892 208.002 19.956 208.002 20.036V25.724C208.002 25.804 207.978 25.872 207.93 25.928C207.882 25.976 207.818 26 207.738 26H207.162ZM207.066 18.596C206.986 18.596 206.918 18.572 206.862 18.524C206.814 18.468 206.79 18.4 206.79 18.32V17.672C206.79 17.592 206.814 17.528 206.862 17.48C206.918 17.424 206.986 17.396 207.066 17.396H207.822C207.902 17.396 207.966 17.424 208.014 17.48C208.07 17.528 208.098 17.592 208.098 17.672V18.32C208.098 18.4 208.07 18.468 208.014 18.524C207.966 18.572 207.902 18.596 207.822 18.596H207.066Z" fill="white"/>
</svg>
