<svg width="230" height="98" viewBox="0 0 230 98" fill="none" xmlns="http://www.w3.org/2000/svg">
<path d="M1.5 3.5C1.5 2.39543 2.39543 1.5 3.5 1.5H52.5C61.3366 1.5 68.5 8.66344 68.5 17.5V94.5C68.5 95.6046 67.6046 96.5 66.5 96.5H3.5C2.39543 96.5 1.5 95.6046 1.5 94.5V3.5Z" fill="#FF7F5F" fill-opacity="0.2" stroke="#FF7F5F" stroke-width="3"/>
<path d="M81.5 3.5C81.5 2.39543 82.3954 1.5 83.5 1.5H132.5C141.337 1.5 148.5 8.66344 148.5 17.5V94.5C148.5 95.6046 147.605 96.5 146.5 96.5H83.5C82.3954 96.5 81.5 95.6046 81.5 94.5V3.5Z" fill="#FF7F5F" fill-opacity="0.2" stroke="#FF7F5F" stroke-width="3"/>
<path d="M161.5 3.5C161.5 2.39543 162.395 1.5 163.5 1.5H212.5C221.337 1.5 228.5 8.66344 228.5 17.5V94.5C228.5 95.6046 227.605 96.5 226.5 96.5H163.5C162.395 96.5 161.5 95.6046 161.5 94.5V3.5Z" fill="#FF7F5F" fill-opacity="0.2" stroke="#FF7F5F" stroke-width="3"/>
<path fill-rule="evenodd" clip-rule="evenodd" d="M118.777 33.3961C118.645 32.9134 118.16 32.6541 117.688 32.7828C117.225 32.9092 116.91 33.3815 117.044 33.8718L118.015 37.5063L118.017 37.5135C118.143 37.8896 118.483 38.1536 118.88 38.1536C118.904 38.1536 118.923 38.1508 118.937 38.1484C118.951 38.146 118.963 38.143 118.972 38.1406C118.983 38.1377 118.999 38.1331 119.008 38.1303L119.015 38.1284C119.029 38.1243 119.036 38.1229 119.038 38.1225C119.039 38.1224 119.039 38.1224 119.039 38.1223H119.07L119.102 38.1135C119.566 37.9871 119.88 37.5147 119.747 37.0246L118.777 33.3974L118.777 33.3961ZM123.183 33.3321C122.728 33.1046 122.212 33.34 122.003 33.7567L120.402 37.1786L120.4 37.1852C120.232 37.604 120.39 38.1561 120.833 38.3775L120.849 38.3854L120.865 38.391L120.877 38.395C120.963 38.4237 121.091 38.4664 121.226 38.4664C121.57 38.4664 121.876 38.2886 122.044 37.953L123.61 34.5076C123.834 34.0537 123.599 33.5398 123.183 33.3321ZM125.966 36.8026C126.401 36.5875 126.955 36.7922 127.143 37.229C127.405 37.6875 127.16 38.2036 126.749 38.4088L126.743 38.4116L123.321 40.013L123.307 40.0176L123.295 40.0216C123.209 40.0503 123.082 40.093 122.946 40.093C122.602 40.093 122.296 39.915 122.128 39.5794C121.909 39.1402 122.119 38.5773 122.565 38.3939L125.966 36.8026ZM116.888 40.5927C116.444 40.1236 115.827 39.8139 115.164 39.8119C114.464 39.7788 113.836 40.0605 113.386 40.5108L110.543 43.3249C110.042 42.1148 108.799 41.318 107.438 41.4709C107.087 41.501 106.766 41.6455 106.506 41.8454C105.895 41.2708 105.024 40.9398 104.122 41.0332L104.12 41.0334C103.149 41.1412 102.396 41.9675 102.396 42.9709L102.396 42.9727L102.427 47.5074C102.427 48.6753 102.273 49.8733 101.998 50.9146L101.989 50.946V50.9752C101.355 53.2433 102.007 55.667 103.658 57.3174C105.363 59.0225 107.647 59.9556 110.028 59.9556H110.037H110.038C110.201 59.9556 110.41 59.9556 110.602 59.9301C111.484 60.2078 112.428 60.3622 113.344 60.3622C115.658 60.3622 117.976 59.4938 119.715 57.7225L125.751 51.6554C126.207 51.1995 126.449 50.572 126.449 49.9463C126.449 49.2873 126.205 48.6915 125.751 48.2368L125.744 48.2301L125.737 48.2238C125.571 48.082 125.376 47.9576 125.171 47.8599C125.706 46.9394 125.608 45.7171 124.812 44.9212C124.592 44.7014 124.313 44.5273 124.022 44.4116C124.097 44.1687 124.135 43.9133 124.135 43.6591C124.135 43.0001 123.891 42.4043 123.436 41.9496C122.643 41.157 121.473 41.0273 120.558 41.5371C120.473 41.3615 120.366 41.1868 120.227 41.0252L120.221 41.0179C119.775 40.5386 119.152 40.2208 118.48 40.2186C117.946 40.1906 117.414 40.3621 116.988 40.6892C116.96 40.6562 116.927 40.6226 116.888 40.5927ZM114.646 41.7714C114.773 41.645 114.95 41.5944 115.126 41.5944C115.286 41.5944 115.44 41.6723 115.562 41.7899C115.603 41.8484 115.632 41.9119 115.647 41.9735L110.952 46.7829L110.85 45.5376L114.646 41.7721L114.646 41.7714ZM117.931 42.2093C118.017 42.1235 118.075 42.0799 118.133 42.0556C118.187 42.0329 118.26 42.0184 118.386 42.0311L118.398 42.0323H118.411C118.574 42.0323 118.731 42.1136 118.855 42.2356C118.936 42.3295 118.987 42.489 118.975 42.677C118.962 42.8655 118.887 43.0479 118.765 43.1701L114.167 47.7993C113.82 48.1472 113.82 48.7118 114.168 49.0596C114.343 49.2347 114.564 49.3205 114.814 49.3205C115.026 49.3205 115.281 49.2387 115.46 49.0596L121.309 43.2103C121.555 42.9638 121.96 42.9638 122.207 43.2103C122.315 43.3183 122.384 43.4731 122.384 43.6591C122.384 43.8451 122.315 43.9999 122.207 44.1079L116.326 49.9572C115.978 50.3051 115.978 50.87 116.326 51.2179C116.501 51.393 116.722 51.4788 116.972 51.4788C117.221 51.4788 117.443 51.393 117.618 51.2179L122.654 46.1819C122.9 45.9354 123.305 45.9354 123.552 46.1819C123.798 46.4283 123.798 46.8331 123.552 47.0795L122.365 48.2665L121.49 49.1095L118.484 52.1155C118.136 52.4634 118.136 53.0283 118.484 53.3762C118.659 53.5513 118.881 53.6371 119.13 53.6371C119.38 53.6371 119.601 53.5513 119.776 53.3762L123.624 49.5288C123.87 49.2823 124.275 49.2823 124.521 49.5288C124.629 49.6368 124.698 49.7916 124.698 49.9776C124.698 50.1611 124.632 50.3068 124.507 50.4112L124.498 50.4186L118.453 56.4947C115.642 59.3061 111.045 59.3061 108.234 56.4947C107.046 55.3064 106.571 53.5533 107.016 51.9202L107.025 51.8879V51.8559C107.369 50.5616 107.525 49.2676 107.525 47.9444V43.4089C107.525 43.3822 107.538 43.3462 107.564 43.3169C107.589 43.288 107.611 43.2835 107.619 43.2835H107.634L107.648 43.2819C108.319 43.2044 108.916 43.6944 108.997 44.3398L109.216 47.5004L109.217 47.5083C109.291 48.0639 109.662 48.553 110.194 48.743L110.199 48.7446C110.761 48.932 111.324 48.7795 111.729 48.4111L117.931 42.2093ZM104.301 42.8752C104.973 42.7977 105.57 43.2886 105.65 43.9348L105.712 44.6716L105.743 47.9444V47.9456C105.743 49.099 105.593 50.2541 105.351 51.2909L105.345 51.3006C105.334 51.3203 105.323 51.3434 105.315 51.37C105.313 51.3793 105.311 51.3886 105.309 51.3978C104.724 53.4704 105.214 55.6746 106.56 57.3013C105.957 56.9768 105.403 56.5722 104.918 56.0881C103.7 54.8701 103.254 53.1176 103.7 51.4825C104.051 50.2071 104.21 48.8709 104.21 47.5378L104.178 43.0017C104.178 42.9751 104.191 42.9394 104.217 42.9103C104.243 42.8814 104.264 42.8769 104.272 42.8769H104.287L104.301 42.8752Z" fill="#666666"/>
<path d="M41.3389 42.6548C41.681 42.997 41.9977 43.3591 42.2946 43.7409C42.2211 43.6447 42.1476 43.5514 42.074 43.4552C42.6509 44.2104 43.1316 45.0334 43.502 45.9073C43.4539 45.7942 43.4058 45.681 43.3606 45.5707C43.7395 46.4758 43.9968 47.4261 44.1269 48.3961C44.1099 48.2717 44.0929 48.1444 44.076 48.02C44.2032 48.9985 44.2032 49.9884 44.076 50.967C44.0929 50.8426 44.1099 50.7153 44.1269 50.5908C43.9968 51.5609 43.7395 52.5112 43.3606 53.4162C43.4087 53.3031 43.4567 53.19 43.502 53.0797C43.1316 53.9536 42.6537 54.7794 42.074 55.5318C42.1476 55.4356 42.2211 55.3423 42.2946 55.2461C41.7036 56.0097 41.0165 56.697 40.2531 57.2881C40.3492 57.2146 40.4425 57.141 40.5387 57.0675C39.7837 57.6444 38.9609 58.1252 38.0871 58.4957C38.2002 58.4477 38.3133 58.3996 38.4236 58.3543C37.5188 58.7333 36.5687 58.9907 35.5989 59.1208C35.7233 59.1038 35.8505 59.0868 35.9749 59.0699C34.9966 59.1971 34.0069 59.1971 33.0286 59.0699C33.153 59.0868 33.2802 59.1038 33.4047 59.1208C32.4348 58.9907 31.4847 58.7333 30.5799 58.3543C30.693 58.4024 30.8061 58.4505 30.9164 58.4957C30.0426 58.1252 29.217 57.6473 28.4649 57.0675C28.561 57.141 28.6543 57.2146 28.7504 57.2881C27.987 56.697 27.2999 56.0097 26.7089 55.2461C26.7824 55.3423 26.856 55.4356 26.9295 55.5318C26.3526 54.7766 25.872 53.9536 25.5015 53.0797C25.5496 53.1928 25.5977 53.3059 25.6429 53.4162C25.264 52.5112 25.0067 51.5609 24.8766 50.5908C24.8936 50.7153 24.9106 50.8426 24.9275 50.967C24.8003 49.9884 24.8003 48.9985 24.9275 48.02C24.9106 48.1444 24.8936 48.2717 24.8766 48.3961C25.0067 47.4261 25.264 46.4758 25.6429 45.5707C25.5949 45.6839 25.5468 45.797 25.5015 45.9073C25.872 45.0334 26.3498 44.2075 26.9295 43.4552C26.856 43.5514 26.7824 43.6447 26.7089 43.7409C27.2999 42.9772 27.987 42.29 28.7504 41.6989C28.6543 41.7724 28.561 41.846 28.4649 41.9195C29.2198 41.3425 30.0426 40.8617 30.9164 40.4912C30.8033 40.5393 30.6902 40.5874 30.5799 40.6326C31.4847 40.2537 32.4348 39.9963 33.4047 39.8662C33.2802 39.8832 33.153 39.9001 33.0286 39.9171C34.0069 39.7898 34.9966 39.7898 35.9749 39.9171C35.8505 39.9001 35.7233 39.8832 35.5989 39.8662C36.5687 39.9963 37.5188 40.2537 38.4236 40.6326C38.3105 40.5846 38.1974 40.5365 38.0871 40.4912C38.9609 40.8617 39.7865 41.3397 40.5387 41.9195C40.4425 41.846 40.3492 41.7724 40.2531 41.6989C40.6348 41.993 40.9967 42.3126 41.3389 42.6548C41.5962 42.9122 41.9751 43.0677 42.3398 43.0677C42.6876 43.0677 43.1005 42.915 43.3408 42.6548C43.5868 42.3861 43.7706 42.0326 43.7536 41.6536C43.7367 41.2803 43.6094 40.9239 43.3408 40.6524C41.5481 38.8707 39.1956 37.6064 36.696 37.1935C35.4773 36.9927 34.2558 36.9305 33.0286 37.0917C32.3471 37.1794 31.6742 37.2953 31.0125 37.4876C30.365 37.6771 29.7373 37.9289 29.1265 38.2117C27.9672 38.749 26.8984 39.4985 25.9624 40.3668C25.0293 41.2322 24.2178 42.2645 23.5986 43.376C22.3884 45.5424 21.8115 48.1048 22.0547 50.5824C22.182 51.8862 22.4788 53.1306 22.9878 54.3411C23.5081 55.5714 24.2008 56.68 25.0689 57.6954C26.7202 59.6185 29.0219 61.0242 31.4847 61.6266C33.8853 62.212 36.4924 62.1046 38.811 61.225C39.4444 60.9846 40.0665 60.7102 40.6546 60.3765C41.2597 60.0343 41.8196 59.6299 42.3653 59.2C43.3804 58.3968 44.2485 57.4097 44.9638 56.3321C46.3409 54.2619 47.0534 51.7221 46.9969 49.2389C46.9403 46.7473 46.1429 44.2358 44.6613 42.2193C44.2541 41.6678 43.8215 41.1361 43.338 40.6496C43.0835 40.3922 42.6989 40.2367 42.337 40.2367C41.9892 40.2367 41.5764 40.3894 41.336 40.6496C41.09 40.9183 40.9062 41.2718 40.9232 41.6508C40.943 42.0298 41.0702 42.3833 41.3389 42.6548Z" fill="#00BB7F"/>
<path d="M38.1693 45.78C37.4652 46.4842 36.764 47.1856 36.0599 47.8898C34.943 49.007 33.8289 50.1213 32.712 51.2385C32.4547 51.4958 32.2002 51.7504 31.9429 52.0077C32.6102 52.0077 33.2747 52.0077 33.942 52.0077C32.9976 51.0603 32.0532 50.1157 31.1116 49.1682C30.9815 49.0381 30.8487 48.9052 30.7186 48.7751C30.4641 48.5177 30.0795 48.3621 29.7176 48.3621C29.3698 48.3621 28.957 48.5149 28.7166 48.7751C28.4706 49.0438 28.2869 49.3973 28.3038 49.7763C28.3208 50.1524 28.448 50.5059 28.7166 50.7775C29.6611 51.7249 30.6055 52.6695 31.5471 53.617C31.6771 53.7471 31.81 53.88 31.9401 54.0101C32.4802 54.5503 33.3991 54.5503 33.9392 54.0101C34.6433 53.3059 35.3445 52.6045 36.0486 51.9003C37.1655 50.7831 38.2796 49.6688 39.3965 48.5516C39.6538 48.2943 39.9082 48.0397 40.1656 47.7824C40.4229 47.525 40.5784 47.146 40.5784 46.7812C40.5784 46.4333 40.4257 46.0204 40.1656 45.78C39.8969 45.5339 39.5435 45.3501 39.1646 45.3671C38.7914 45.3812 38.4379 45.5085 38.1693 45.78Z" fill="#00BB7F"/>
<path d="M190.722 56.2222H190.419L190.168 56.3902L186.757 58.6641C186.428 58.8831 186.042 59 185.647 59H184C182.895 59 182 58.1046 182 57V38C182 36.8954 182.895 36 184 36H205.778C206.882 36 207.778 36.8954 207.778 38V54.2222C207.778 55.3268 206.882 56.2222 205.778 56.2222H190.722Z" stroke="#666666" stroke-width="2"/>
<path d="M187.944 43.3333H201.833" stroke="#666666" stroke-width="2" stroke-linecap="round"/>
<path d="M187.944 48.8889H201.833" stroke="#666666" stroke-width="2" stroke-linecap="round"/>
</svg>
