<svg width="246" height="116" viewBox="0 0 246 116" fill="none" xmlns="http://www.w3.org/2000/svg">
<path opacity="0.7" d="M19.7639 36.951C19.7639 36.0415 20.5058 35.3042 21.4211 35.3042H44.6211C49.1971 35.3042 52.9068 38.9908 52.9068 43.5385V79.7692C52.9068 80.6787 52.1648 81.416 51.2496 81.416H21.4211C20.5058 81.416 19.7639 80.6787 19.7639 79.7692V36.951Z" fill="#FF7F5F"/>
<path opacity="0.7" d="M57.2297 36.951C57.2297 36.0415 57.9717 35.3042 58.8869 35.3042H82.0869C86.663 35.3042 90.3726 38.9908 90.3726 43.5385V79.7692C90.3726 80.6787 89.6307 81.416 88.7154 81.416H58.8869C57.9717 81.416 57.2297 80.6787 57.2297 79.7692V36.951Z" fill="#FF7F5F"/>
<path opacity="0.7" d="M155.938 11.0133C155.938 10.1038 156.68 9.36646 157.595 9.36646H180.795C185.371 9.36646 189.081 13.0531 189.081 17.6007V53.8314C189.081 54.7409 188.339 55.4783 187.424 55.4783H157.595C156.68 55.4783 155.938 54.7409 155.938 53.8314V11.0133Z" fill="#FF7F5F"/>
<path opacity="0.7" d="M155.938 62.1686C155.938 61.259 156.68 60.5217 157.595 60.5217H180.795C185.371 60.5217 189.081 64.2083 189.081 68.756V104.987C189.081 105.896 188.339 106.634 187.424 106.634H157.595C156.68 106.634 155.938 105.896 155.938 104.987V62.1686Z" fill="#FF7F5F"/>
<path opacity="0.7" d="M193.404 11.0133C193.404 10.1038 194.146 9.36646 195.061 9.36646H218.261C222.837 9.36646 226.547 13.0531 226.547 17.6007V53.8314C226.547 54.7409 225.805 55.4783 224.889 55.4783H195.061C194.146 55.4783 193.404 54.7409 193.404 53.8314V11.0133Z" fill="#FF7F5F"/>
<path opacity="0.7" d="M193.404 62.1686C193.404 61.259 194.146 60.5217 195.061 60.5217H218.261C222.837 60.5217 226.547 64.2083 226.547 68.756V104.987C226.547 105.896 225.805 106.634 224.889 106.634H195.061C194.146 106.634 193.404 105.896 193.404 104.987V62.1686Z" fill="#FF7F5F"/>
<rect x="1.5" y="1.5" width="107" height="113" stroke="#007FFF" stroke-width="3"/>
<rect x="137.5" y="1.5" width="107" height="113" stroke="#007FFF" stroke-width="3"/>
</svg>
