<?xml version="1.0" encoding="UTF-8"?>
<svg id="Layer_1" data-name="Layer 1" xmlns="http://www.w3.org/2000/svg" viewBox="0 0 591.42 198.13">
  <defs>
    <style>
      .cls-1 {
        fill: #bd1d1d;
      }

      .cls-1, .cls-2 {
        stroke-width: 0px;
      }

      .cls-2 {
        fill: #f39200;
      }
    </style>
  </defs>
  <g id="Verbund_Offener_Werkstätten" data-name="Verbund Offener Werkstätten">
    <path class="cls-1" d="M38.83,167.24l-9.23-28.81h7.14l3.51,12.18c.98,3.46,1.88,6.71,2.56,10.3h.13c.73-3.46,1.62-6.88,2.61-10.17l3.68-12.31h6.93l-9.7,28.81h-7.61Z"/>
    <path class="cls-1" d="M62.07,158.82c.21,2.74,2.86,4.02,5.9,4.02,2.22,0,4.02-.3,5.77-.9l.85,4.4c-2.14.9-4.75,1.33-7.57,1.33-7.1,0-11.16-4.1-11.16-10.69,0-5.3,3.33-11.16,10.56-11.16,6.75,0,9.32,5.26,9.32,10.43,0,1.11-.13,2.09-.21,2.61l-13.47-.04ZM69.72,154.37c0-1.54-.68-4.23-3.63-4.23-2.78,0-3.89,2.52-4.06,4.23h7.69Z"/>
    <path class="cls-1" d="M79.77,153.22c0-3.08-.04-5.09-.17-6.88h5.56l.26,3.89h.17c1.07-3.08,3.59-4.36,5.64-4.36.6,0,.9.04,1.37.13v6.11c-.56-.08-1.07-.17-1.8-.17-2.39,0-4.02,1.24-4.45,3.29-.09.43-.13.9-.13,1.45v10.56h-6.5l.04-14.02Z"/>
    <path class="cls-1" d="M95.65,136.89h6.5v11.93h.09c1.24-1.8,3.42-2.95,6.33-2.95,5,0,8.64,4.15,8.59,10.56,0,7.52-4.75,11.29-9.53,11.29-2.44,0-4.83-.9-6.28-3.38h-.09l-.26,2.91h-5.51c.09-1.37.17-3.89.17-6.24v-24.11ZM102.15,158.35c0,.43.04.81.13,1.15.43,1.71,1.92,3.08,3.81,3.08,2.78,0,4.49-2.14,4.49-5.9,0-3.25-1.45-5.81-4.49-5.81-1.75,0-3.38,1.33-3.81,3.21-.09.38-.13.77-.13,1.2v3.08Z"/>
    <path class="cls-1" d="M140.85,160.53c0,2.74.09,4.96.17,6.71h-5.64l-.3-2.95h-.13c-.81,1.28-2.78,3.42-6.54,3.42-4.28,0-7.35-2.65-7.35-9.11v-12.27h6.5v11.24c0,3.04.98,4.87,3.29,4.87,1.8,0,2.86-1.24,3.25-2.27.17-.38.26-.85.26-1.41v-12.44h6.5v14.19Z"/>
    <path class="cls-1" d="M146,153c0-2.61-.09-4.79-.17-6.67h5.64l.3,2.91h.13c.85-1.37,2.95-3.38,6.46-3.38,4.28,0,7.48,2.86,7.48,9.02v12.35h-6.5v-11.58c0-2.69-.94-4.53-3.29-4.53-1.8,0-2.86,1.24-3.33,2.44-.17.43-.21,1.03-.21,1.62v12.06h-6.5v-14.24Z"/>
    <path class="cls-1" d="M191.15,136.89v24.11c0,2.39.09,4.83.17,6.24h-5.77l-.26-3.04h-.13c-1.28,2.31-3.85,3.51-6.54,3.51-4.96,0-8.93-4.23-8.93-10.73-.04-7.01,4.36-11.12,9.36-11.12,2.61,0,4.57.94,5.52,2.35h.09v-11.33h6.5ZM184.65,155.23c0-.38,0-.81-.09-1.2-.38-1.75-1.8-3.16-3.81-3.16-2.99,0-4.49,2.65-4.49,5.94,0,3.5,1.75,5.73,4.45,5.73,1.88,0,3.42-1.28,3.8-3.12.09-.43.13-.94.13-1.45v-2.74Z"/>
    <path class="cls-1" d="M218.12,167.71c-8.51,0-13.55-6.45-13.55-14.66,0-8.63,5.56-15.09,14.02-15.09s13.68,6.63,13.68,14.58c0,9.49-5.69,15.18-14.11,15.18h-.04ZM218.42,162.54c4.4,0,6.93-4.15,6.93-9.79,0-5.17-2.44-9.62-6.93-9.62s-7.01,4.36-7.01,9.75,2.61,9.66,6.97,9.66h.04Z"/>
    <path class="cls-1" d="M237.52,167.24v-16.12h-2.78v-4.79h2.78v-.81c0-2.52.77-5.3,2.61-7.01,1.67-1.54,3.89-2.1,5.81-2.1,1.41,0,2.52.21,3.42.43l-.26,5c-.56-.17-1.24-.3-2.09-.3-2.14,0-3.04,1.67-3.04,3.72v1.07h4.19v4.79h-4.15v16.12h-6.5Z"/>
    <path class="cls-1" d="M252.95,167.24v-16.12h-2.78v-4.79h2.78v-.81c0-2.52.77-5.3,2.61-7.01,1.67-1.54,3.89-2.1,5.81-2.1,1.41,0,2.52.21,3.42.43l-.26,5c-.56-.17-1.24-.3-2.09-.3-2.14,0-3.04,1.67-3.04,3.72v1.07h4.19v4.79h-4.15v16.12h-6.5Z"/>
    <path class="cls-1" d="M271.59,158.82c.21,2.74,2.86,4.02,5.9,4.02,2.22,0,4.02-.3,5.77-.9l.86,4.4c-2.14.9-4.75,1.33-7.57,1.33-7.1,0-11.16-4.1-11.16-10.69,0-5.3,3.33-11.16,10.56-11.16,6.75,0,9.32,5.26,9.32,10.43,0,1.11-.13,2.09-.21,2.61l-13.47-.04ZM279.25,154.37c0-1.54-.68-4.23-3.63-4.23-2.78,0-3.89,2.52-4.06,4.23h7.69Z"/>
    <path class="cls-1" d="M289.28,153c0-2.61-.09-4.79-.17-6.67h5.64l.3,2.91h.13c.85-1.37,2.95-3.38,6.46-3.38,4.28,0,7.48,2.86,7.48,9.02v12.35h-6.5v-11.58c0-2.69-.94-4.53-3.29-4.53-1.8,0-2.86,1.24-3.33,2.44-.17.43-.21,1.03-.21,1.62v12.06h-6.5v-14.24Z"/>
    <path class="cls-1" d="M319.13,158.82c.21,2.74,2.86,4.02,5.9,4.02,2.22,0,4.02-.3,5.77-.9l.85,4.4c-2.14.9-4.75,1.33-7.57,1.33-7.1,0-11.16-4.1-11.16-10.69,0-5.3,3.34-11.16,10.56-11.16,6.75,0,9.32,5.26,9.32,10.43,0,1.11-.13,2.09-.21,2.61l-13.47-.04ZM326.78,154.37c0-1.54-.68-4.23-3.63-4.23-2.78,0-3.89,2.52-4.06,4.23h7.7Z"/>
    <path class="cls-1" d="M336.83,153.22c0-3.08-.04-5.09-.17-6.88h5.56l.26,3.89h.17c1.07-3.08,3.59-4.36,5.64-4.36.6,0,.9.04,1.37.13v6.11c-.56-.08-1.07-.17-1.79-.17-2.39,0-4.02,1.24-4.45,3.29-.09.43-.13.9-.13,1.45v10.56h-6.5l.04-14.02Z"/>
    <path class="cls-1" d="M366.42,167.24l-6.84-28.81h6.97l2.18,11.84c.64,3.46,1.24,7.18,1.71,10.13h.08c.47-3.16,1.15-6.63,1.88-10.22l2.44-11.76h6.92l2.31,12.14c.64,3.38,1.11,6.46,1.54,9.66h.09c.43-3.21,1.07-6.58,1.67-10.05l2.35-11.76h6.63l-7.44,28.81h-7.05l-2.44-12.4c-.56-2.91-1.03-5.6-1.37-8.89h-.09c-.51,3.25-.98,5.98-1.67,8.89l-2.74,12.4h-7.14Z"/>
    <path class="cls-1" d="M403.12,158.82c.21,2.74,2.86,4.02,5.9,4.02,2.22,0,4.02-.3,5.77-.9l.86,4.4c-2.14.9-4.75,1.33-7.57,1.33-7.1,0-11.16-4.1-11.16-10.69,0-5.3,3.33-11.16,10.56-11.16,6.75,0,9.32,5.26,9.32,10.43,0,1.11-.13,2.09-.21,2.61l-13.47-.04ZM410.78,154.37c0-1.54-.68-4.23-3.63-4.23-2.78,0-3.89,2.52-4.06,4.23h7.69Z"/>
    <path class="cls-1" d="M420.83,153.22c0-3.08-.04-5.09-.17-6.88h5.56l.26,3.89h.17c1.07-3.08,3.59-4.36,5.64-4.36.6,0,.9.04,1.37.13v6.11c-.56-.08-1.07-.17-1.8-.17-2.39,0-4.02,1.24-4.45,3.29-.08.43-.13.9-.13,1.45v10.56h-6.5l.04-14.02Z"/>
    <path class="cls-1" d="M443.21,155.18h.08c.47-.9.98-1.75,1.5-2.52l4.23-6.33h7.82l-7.48,8.46,8.55,12.44h-8l-5.09-8.59-1.62,2.09v6.5h-6.5v-30.35h6.5v18.3Z"/>
    <path class="cls-1" d="M460.75,161.6c1.2.73,3.68,1.54,5.6,1.54s2.78-.64,2.78-1.71-.64-1.62-3.04-2.44c-4.36-1.41-6.03-3.8-5.99-6.24,0-3.93,3.33-6.88,8.51-6.88,2.44,0,4.57.6,5.86,1.24l-1.11,4.45c-.94-.47-2.78-1.15-4.53-1.15-1.58,0-2.48.64-2.48,1.67s.81,1.54,3.38,2.44c3.98,1.33,5.6,3.38,5.64,6.41,0,3.93-3.04,6.8-9.02,6.8-2.74,0-5.17-.64-6.75-1.5l1.15-4.62Z"/>
    <path class="cls-1" d="M486.5,140.65v5.69h4.66v4.79h-4.66v7.61c0,2.52.64,3.68,2.56,3.68.9,0,1.33-.04,1.92-.17l.04,4.92c-.81.3-2.39.56-4.19.56-2.09,0-3.85-.73-4.92-1.8-1.2-1.24-1.8-3.25-1.8-6.2v-8.59h-2.78v-4.79h2.78v-3.93l6.37-1.75Z"/>
    <path class="cls-1" d="M512.43,162.19c0,1.97.08,3.89.34,5.04h-5.86l-.38-2.09h-.13c-1.37,1.67-3.51,2.57-5.99,2.57-4.23,0-6.75-3.08-6.75-6.41,0-5.43,4.87-7.99,12.27-7.99v-.26c0-1.11-.6-2.69-3.81-2.69-2.14,0-4.4.73-5.77,1.54l-1.2-4.15c1.45-.81,4.32-1.88,8.12-1.88,6.97,0,9.15,4.1,9.15,9.02v7.31ZM499.35,143.85c-1.62,0-2.91-1.33-2.91-2.91,0-1.67,1.28-2.91,2.95-2.91s2.82,1.24,2.82,2.91c0,1.58-1.2,2.91-2.82,2.91h-.04ZM506.14,157.36c-3.42,0-6.07.81-6.07,3.29,0,1.67,1.11,2.48,2.57,2.48,1.58,0,2.95-1.07,3.38-2.39.09-.34.13-.73.13-1.11v-2.27ZM508.02,143.85c-1.67,0-2.86-1.33-2.86-2.91,0-1.67,1.24-2.91,2.91-2.91s2.86,1.24,2.86,2.91c0,1.58-1.2,2.91-2.86,2.91h-.04Z"/>
    <path class="cls-1" d="M524.56,140.65v5.69h4.66v4.79h-4.66v7.61c0,2.52.64,3.68,2.56,3.68.9,0,1.33-.04,1.92-.17l.04,4.92c-.81.3-2.39.56-4.19.56-2.09,0-3.85-.73-4.92-1.8-1.2-1.24-1.8-3.25-1.8-6.2v-8.59h-2.78v-4.79h2.78v-3.93l6.37-1.75Z"/>
    <path class="cls-1" d="M540.71,140.65v5.69h4.66v4.79h-4.66v7.61c0,2.52.64,3.68,2.57,3.68.9,0,1.33-.04,1.92-.17l.04,4.92c-.81.3-2.39.56-4.19.56-2.09,0-3.85-.73-4.92-1.8-1.2-1.24-1.8-3.25-1.8-6.2v-8.59h-2.78v-4.79h2.78v-3.93l6.37-1.75Z"/>
    <path class="cls-1" d="M553.91,158.82c.21,2.74,2.86,4.02,5.9,4.02,2.22,0,4.02-.3,5.77-.9l.85,4.4c-2.14.9-4.75,1.33-7.57,1.33-7.1,0-11.16-4.1-11.16-10.69,0-5.3,3.33-11.16,10.56-11.16,6.75,0,9.32,5.26,9.32,10.43,0,1.11-.13,2.09-.21,2.61l-13.47-.04ZM561.56,154.37c0-1.54-.68-4.23-3.63-4.23-2.78,0-3.89,2.52-4.06,4.23h7.7Z"/>
    <path class="cls-1" d="M571.59,153c0-2.61-.09-4.79-.17-6.67h5.64l.3,2.91h.13c.85-1.37,2.95-3.38,6.46-3.38,4.28,0,7.48,2.86,7.48,9.02v12.35h-6.5v-11.58c0-2.69-.94-4.53-3.29-4.53-1.8,0-2.86,1.24-3.33,2.44-.17.43-.21,1.03-.21,1.62v12.06h-6.5v-14.24Z"/>
  </g>
  <g id="Freiraum_zum_Selbermachen" data-name="Freiraum zum Selbermachen">
    <path class="cls-2" d="M37.7,174.7h11.7l-.48,2.43h-8.83l-1.51,7.77h8.14l-.48,2.39h-8.14l-1.95,10.46h-2.84l4.38-23.05Z"/>
    <path class="cls-2" d="M48.05,197.76l2.02-10.67c.41-2.16.65-4.35.82-5.88h2.5c-.1,1.16-.24,2.29-.44,3.59h.1c1.09-2.26,2.84-3.97,5.06-3.97.27,0,.58.03.82.07l-.55,2.8c-.2-.03-.48-.07-.79-.07-2.43,0-4.62,2.98-5.34,6.81l-1.37,7.32h-2.84Z"/>
    <path class="cls-2" d="M70.39,196.83c-1.23.69-3.25,1.3-5.47,1.3-4.38,0-6.29-3.01-6.29-6.67,0-5,3.69-10.64,9.03-10.64,3.15,0,4.86,1.88,4.86,4.28,0,4.34-4.89,5.47-11.01,5.37-.14.72-.03,2.26.34,3.14.65,1.51,1.98,2.23,3.69,2.23,1.95,0,3.42-.58,4.45-1.13l.41,2.12ZM69.78,185.13c0-1.33-1.03-2.09-2.53-2.09-2.7,0-4.72,2.64-5.4,5.23,4.45.07,7.94-.55,7.94-3.11v-.04Z"/>
    <path class="cls-2" d="M73.86,197.76l3.15-16.55h2.84l-3.15,16.55h-2.84ZM79.16,178.16c-.99,0-1.68-.79-1.68-1.85.03-1.13.89-2.02,1.95-2.02s1.78.79,1.78,1.85c-.03,1.2-.89,2.02-2.02,2.02h-.03Z"/>
    <path class="cls-2" d="M81.62,197.76l2.02-10.67c.41-2.16.65-4.35.82-5.88h2.5c-.1,1.16-.24,2.29-.44,3.59h.1c1.09-2.26,2.84-3.97,5.06-3.97.27,0,.58.03.82.07l-.55,2.8c-.2-.03-.48-.07-.79-.07-2.43,0-4.62,2.98-5.34,6.81l-1.37,7.32h-2.84Z"/>
    <path class="cls-2" d="M102.67,197.76c0-.99.17-2.56.38-4.28h-.07c-1.81,3.46-4.1,4.65-6.43,4.65-2.94,0-4.75-2.33-4.75-5.47,0-5.78,4.24-11.83,11.42-11.83,1.57,0,3.32.28,4.45.61l-1.68,8.66c-.55,2.87-.75,5.81-.68,7.66h-2.63ZM104.49,183.32c-.41-.14-.99-.24-1.95-.24-4.28,0-7.8,4.45-7.8,9.06,0,1.85.65,3.66,2.8,3.66,2.39,0,5.2-3.08,5.99-7.49l.96-5Z"/>
    <path class="cls-2" d="M125.58,181.2l-2.26,11.73c-.34,1.84-.58,3.45-.72,4.82h-2.57l.44-3.11h-.07c-1.51,2.16-3.66,3.49-5.85,3.49s-4.38-1.02-4.38-4.79c0-.79.1-1.71.31-2.81l1.81-9.34h2.8l-1.74,9.23c-.17.92-.27,1.71-.27,2.43,0,1.71.69,2.87,2.63,2.87,2.09,0,4.72-2.43,5.4-6.05l1.61-8.48h2.84Z"/>
    <path class="cls-2" d="M127.31,197.76l2.22-11.73c.34-1.85.58-3.45.75-4.82h2.5l-.44,3.11h.1c1.54-2.33,3.62-3.49,5.81-3.49,2.53,0,3.73,1.61,3.86,3.7,1.47-2.39,3.59-3.66,6.05-3.7,1.92,0,4.04,1.23,4.04,4.35,0,.75-.1,1.88-.27,2.8l-1.85,9.78h-2.77l1.78-9.54c.14-.62.24-1.47.24-2.15,0-1.74-.65-2.87-2.5-2.87-2.05,0-4.52,2.39-5.2,6.09l-1.57,8.48h-2.74l1.85-9.71c.14-.75.2-1.37.2-2.02,0-1.4-.37-2.84-2.46-2.84s-4.65,2.74-5.3,6.26l-1.54,8.31h-2.77Z"/>
    <path class="cls-2" d="M159.8,196.01l8.04-8.96c1.4-1.54,2.33-2.39,3.46-3.42v-.1h-8.48l.48-2.33h11.87l-.38,1.88-7.9,8.82c-1.5,1.61-2.39,2.46-3.42,3.42l-.03.1h9.2l-.48,2.33h-12.66l.31-1.75Z"/>
    <path class="cls-2" d="M191.26,181.2l-2.26,11.73c-.34,1.84-.58,3.45-.72,4.82h-2.57l.44-3.11h-.07c-1.5,2.16-3.66,3.49-5.85,3.49s-4.38-1.02-4.38-4.79c0-.79.1-1.71.31-2.81l1.81-9.34h2.81l-1.75,9.23c-.17.92-.27,1.71-.27,2.43,0,1.71.68,2.87,2.63,2.87,2.09,0,4.72-2.43,5.4-6.05l1.61-8.48h2.84Z"/>
    <path class="cls-2" d="M192.99,197.76l2.22-11.73c.34-1.85.58-3.45.75-4.82h2.5l-.44,3.11h.1c1.54-2.33,3.63-3.49,5.81-3.49,2.53,0,3.73,1.61,3.86,3.7,1.47-2.39,3.59-3.66,6.05-3.7,1.92,0,4.04,1.23,4.04,4.35,0,.75-.1,1.88-.27,2.8l-1.85,9.78h-2.77l1.78-9.54c.14-.62.24-1.47.24-2.15,0-1.74-.65-2.87-2.5-2.87-2.05,0-4.52,2.39-5.2,6.09l-1.57,8.48h-2.74l1.85-9.71c.14-.75.2-1.37.2-2.02,0-1.4-.38-2.84-2.46-2.84s-4.65,2.74-5.3,6.26l-1.54,8.31h-2.77Z"/>
    <path class="cls-2" d="M227.33,194.2c1.23.86,2.98,1.47,4.89,1.47,2.6,0,4.99-1.54,4.99-4.31,0-1.74-.96-3.01-3.38-4.31-2.94-1.61-4.58-3.45-4.58-5.92,0-4.14,3.56-6.77,7.8-6.77,2.26,0,3.93.65,4.72,1.2l-1.03,2.33c-.72-.44-2.15-1.13-3.97-1.1-2.87,0-4.58,1.88-4.58,3.76s1.16,2.94,3.59,4.28c2.84,1.54,4.38,3.35,4.38,6.16,0,4-3.11,7.15-8.31,7.15-2.33-.03-4.58-.75-5.54-1.61l1.03-2.33Z"/>
    <path class="cls-2" d="M254.47,196.83c-1.23.69-3.25,1.3-5.47,1.3-4.38,0-6.29-3.01-6.29-6.67,0-5,3.69-10.64,9.03-10.64,3.15,0,4.86,1.88,4.86,4.28,0,4.34-4.89,5.47-11.01,5.37-.14.72-.04,2.26.34,3.14.65,1.51,1.98,2.23,3.69,2.23,1.95,0,3.42-.58,4.45-1.13l.41,2.12ZM253.86,185.13c0-1.33-1.03-2.09-2.53-2.09-2.7,0-4.72,2.64-5.4,5.23,4.45.07,7.94-.55,7.94-3.11v-.04Z"/>
    <path class="cls-2" d="M257.96,197.76l4.62-24.29h2.84l-4.62,24.29h-2.84Z"/>
    <path class="cls-2" d="M273,173.47l-2.19,10.74h.07c1.47-2.22,3.59-3.38,5.81-3.38,3.63,0,4.99,3.01,4.99,5.95,0,5.09-3.66,11.35-10.29,11.35-2.91,0-5.1-1.2-5.1-4.24,0-.82.14-1.81.31-2.6l3.56-17.82h2.84ZM269.41,191.36c-.14.58-.24,1.23-.21,2.12,0,1.57.92,2.43,2.67,2.43,4.27,0,6.87-5.1,6.87-8.79,0-2.05-.89-3.93-3.15-3.93-2.46,0-4.99,2.53-5.81,6.43l-.38,1.74Z"/>
    <path class="cls-2" d="M295.64,196.83c-1.23.69-3.25,1.3-5.47,1.3-4.38,0-6.29-3.01-6.29-6.67,0-5,3.69-10.64,9.03-10.64,3.15,0,4.86,1.88,4.86,4.28,0,4.34-4.89,5.47-11.01,5.37-.14.72-.03,2.26.34,3.14.65,1.51,1.98,2.23,3.69,2.23,1.95,0,3.42-.58,4.45-1.13l.41,2.12ZM295.03,185.13c0-1.33-1.03-2.09-2.53-2.09-2.7,0-4.72,2.64-5.4,5.23,4.45.07,7.94-.55,7.94-3.11v-.04Z"/>
    <path class="cls-2" d="M299.1,197.76l2.02-10.67c.41-2.16.65-4.35.82-5.88h2.5c-.1,1.16-.24,2.29-.45,3.59h.1c1.09-2.26,2.84-3.97,5.06-3.97.27,0,.58.03.82.07l-.55,2.8c-.2-.03-.48-.07-.79-.07-2.43,0-4.62,2.98-5.34,6.81l-1.37,7.32h-2.84Z"/>
    <path class="cls-2" d="M309.71,197.76l2.22-11.73c.34-1.85.58-3.45.75-4.82h2.5l-.44,3.11h.1c1.54-2.33,3.62-3.49,5.81-3.49,2.53,0,3.73,1.61,3.86,3.7,1.47-2.39,3.59-3.66,6.05-3.7,1.92,0,4.04,1.23,4.04,4.35,0,.75-.1,1.88-.27,2.8l-1.85,9.78h-2.77l1.78-9.54c.14-.62.24-1.47.24-2.15,0-1.74-.65-2.87-2.5-2.87-2.05,0-4.52,2.39-5.2,6.09l-1.57,8.48h-2.74l1.85-9.71c.14-.75.2-1.37.2-2.02,0-1.4-.38-2.84-2.46-2.84s-4.65,2.74-5.3,6.26l-1.54,8.31h-2.77Z"/>
    <path class="cls-2" d="M348.13,197.76c0-.99.17-2.56.38-4.28h-.07c-1.81,3.46-4.1,4.65-6.43,4.65-2.94,0-4.75-2.33-4.75-5.47,0-5.78,4.24-11.83,11.42-11.83,1.57,0,3.32.28,4.45.61l-1.67,8.66c-.55,2.87-.75,5.81-.69,7.66h-2.63ZM349.94,183.32c-.41-.14-.99-.24-1.95-.24-4.28,0-7.8,4.45-7.8,9.06,0,1.85.65,3.66,2.81,3.66,2.39,0,5.2-3.08,5.99-7.49l.96-5Z"/>
    <path class="cls-2" d="M366.22,197.11c-.85.44-2.57,1.02-4.79,1.02-4.28,0-6.36-2.87-6.36-6.39,0-5.68,4.17-10.91,10.12-10.91,1.54,0,2.94.45,3.46.75l-.82,2.23c-.65-.31-1.57-.62-2.8-.62-4.31,0-7.01,4.24-7.01,8.17,0,2.7,1.4,4.45,4.1,4.45,1.71,0,2.98-.51,3.83-.92l.27,2.22Z"/>
    <path class="cls-2" d="M368.98,197.76l4.62-24.29h2.84l-2.05,10.64h.07c1.4-2.02,3.42-3.28,5.92-3.28,1.88,0,4.11,1.13,4.11,4.45,0,.86-.1,1.95-.28,2.77l-1.85,9.71h-2.84l1.85-9.58c.1-.58.21-1.37.21-2.29,0-1.5-.72-2.7-2.56-2.7-2.19,0-4.96,2.56-5.64,6.26l-1.54,8.31h-2.84Z"/>
    <path class="cls-2" d="M399,196.83c-1.23.69-3.25,1.3-5.47,1.3-4.38,0-6.29-3.01-6.29-6.67,0-5,3.69-10.64,9.03-10.64,3.15,0,4.86,1.88,4.86,4.28,0,4.34-4.89,5.47-11.01,5.37-.14.72-.03,2.26.34,3.14.65,1.51,1.98,2.23,3.7,2.23,1.95,0,3.42-.58,4.45-1.13l.41,2.12ZM398.39,185.13c0-1.33-1.03-2.09-2.53-2.09-2.7,0-4.72,2.64-5.41,5.23,4.45.07,7.94-.55,7.94-3.11v-.04Z"/>
    <path class="cls-2" d="M402.48,197.76l2.19-11.73c.38-1.85.62-3.45.79-4.82h2.57l-.44,3.25h.07c1.5-2.33,3.73-3.63,6.16-3.63,1.95,0,4.17,1.13,4.17,4.58,0,.75-.14,1.81-.31,2.67l-1.85,9.68h-2.81l1.81-9.58c.1-.62.2-1.4.2-2.12,0-1.64-.65-2.87-2.6-2.87s-4.89,2.43-5.64,6.53l-1.5,8.04h-2.8Z"/>
  </g>
  <path class="cls-2" d="M68.59,54.04c-.94.38-1.39,1.44-1.01,2.39,15.27,37.67,51.39,62,92.04,62,1.01,0,1.83-.82,1.83-1.83s-.82-1.83-1.83-1.83c-39.15,0-73.94-23.44-88.64-59.72-.38-.94-1.45-1.39-2.39-1.01Z"/>
  <path class="cls-1" d="M92.06,71.16C37.31,75.31-3.86,123.23.29,177.99c.44,5.91,1.42,11.81,2.9,17.53.3,1.14,1.46,1.83,2.61,1.54,1.14-.3,1.83-1.46,1.53-2.6-1.41-5.47-2.35-11.12-2.77-16.78C.58,125.26,39.98,79.4,92.38,75.43c38.91-2.94,75.26,17.74,92.61,52.68.52,1.06,1.81,1.49,2.86.96,1.06-.52,1.49-1.81.96-2.86-18.13-36.51-56.11-58.12-96.76-55.04Z"/>
  <path class="cls-2" d="M255.21.03c-1,.18-1.66,1.13-1.48,2.13,1,5.58,1.51,11.3,1.51,17,0,52.72-42.89,95.61-95.61,95.61-1.01,0-1.83.82-1.83,1.83s.82,1.83,1.83,1.83c54.74,0,99.28-44.53,99.28-99.27,0-5.91-.53-11.85-1.56-17.64-.18-1-1.13-1.66-2.13-1.48Z"/>
</svg>